<svg width="42" height="42" viewBox="0 0 42 42" fill="none" xmlns="http://www.w3.org/2000/svg">
<circle cx="21.1201" cy="20.6201" r="20.6201" fill="#EE5531"/>
<rect x="9.12012" y="8.62012" width="24" height="24" rx="12" fill="#EE5531"/>
<path fill-rule="evenodd" clip-rule="evenodd" d="M16.9156 16.1757C16.9156 12.6503 19.9412 9.87012 23.5747 9.87012H26.9383C27.1979 9.87012 27.4548 9.88196 27.6872 9.92996C27.9255 9.9792 28.1882 10.0764 28.4096 10.2845C28.8454 10.6943 28.8701 11.2982 28.8701 11.7312V13.9535C28.8701 14.3864 28.8454 14.9904 28.4096 15.4002C28.1882 15.6083 27.9255 15.7055 27.6872 15.7547C27.4548 15.8027 27.1979 15.8146 26.9383 15.8146H23.5747C23.2919 15.8146 23.1428 16.0192 23.1428 16.1757V18.2035H25.5533C25.886 18.2035 26.2037 18.2199 26.479 18.2812C26.7538 18.3425 27.0786 18.4686 27.3137 18.7617C27.5551 19.0625 27.6011 19.4119 27.5871 19.7004C27.5735 19.9815 27.4994 20.2848 27.4073 20.5879L26.9008 22.2545C26.7966 22.5975 26.6408 23.0259 26.2506 23.3026C25.8718 23.5712 25.4156 23.5923 25.0469 23.5923H23.1428V29.509C23.1428 29.942 23.1181 30.546 22.6823 30.9557C22.461 31.1638 22.1983 31.261 21.9599 31.3103C21.7275 31.3583 21.4706 31.3701 21.211 31.3701H18.8474C18.5878 31.3701 18.3309 31.3583 18.0985 31.3103C17.8601 31.261 17.5975 31.1638 17.3761 30.9557C16.9403 30.546 16.9156 29.942 16.9156 29.509V23.5923H15.3019C15.0423 23.5923 14.7855 23.5805 14.5531 23.5325C14.3147 23.4833 14.052 23.386 13.8306 23.1779C13.3948 22.7682 13.3701 22.1642 13.3701 21.7312V20.0646C13.3701 19.6316 13.3948 19.0276 13.8306 18.6179C14.052 18.4097 14.3147 18.3125 14.5531 18.2633C14.7855 18.2153 15.0423 18.2035 15.3019 18.2035H16.9156V16.1757ZM23.5747 11.3701C20.6811 11.3701 18.4156 13.5646 18.4156 16.1757V18.9535C18.4156 19.3677 18.0798 19.7035 17.6656 19.7035H15.3019C15.1 19.7035 14.971 19.7129 14.8878 19.7265C14.8777 19.7953 14.8701 19.9015 14.8701 20.0646V21.7312C14.8701 21.8943 14.8777 22.0005 14.8878 22.0693C14.971 22.0829 15.1 22.0923 15.3019 22.0923H17.6656C18.0798 22.0923 18.4156 22.4281 18.4156 22.8423V29.509C18.4156 29.6721 18.4232 29.7783 18.4333 29.8471C18.5165 29.8607 18.6455 29.8701 18.8474 29.8701H21.211C21.4129 29.8701 21.542 29.8607 21.6251 29.8471C21.6352 29.7783 21.6428 29.6721 21.6428 29.509V22.8423C21.6428 22.4281 21.9786 22.0923 22.3928 22.0923H25.0469C25.2163 22.0923 25.3139 22.084 25.3722 22.0732C25.3941 22.0294 25.4247 21.9531 25.4656 21.8184L25.9721 20.1517C26.0295 19.9628 26.0615 19.8274 26.077 19.7315C25.9628 19.7144 25.7956 19.7035 25.5533 19.7035H22.3928C21.9786 19.7035 21.6428 19.3677 21.6428 18.9535V16.1757C21.6428 15.1049 22.552 14.3146 23.5747 14.3146H26.9383C27.1402 14.3146 27.2692 14.3052 27.3524 14.2915C27.3625 14.2227 27.3701 14.1165 27.3701 13.9535V11.7312C27.3701 11.5681 27.3625 11.462 27.3524 11.3932C27.2692 11.3795 27.1402 11.3701 26.9383 11.3701H23.5747Z" fill="white"/>
</svg>
