<svg width="42" height="42" viewBox="0 0 42 42" fill="none" xmlns="http://www.w3.org/2000/svg">
<circle cx="21.3604" cy="20.6201" r="20.6201" fill="#EE5531"/>
<rect x="9.36035" y="8.62012" width="24" height="24" rx="12" fill="#EE5531"/>
<path d="M18.4398 11.4064C20.3927 11.3574 22.3267 11.3574 24.2796 11.4064L24.3382 11.4084C25.863 11.4467 27.0902 11.4774 28.0736 11.6486C29.1029 11.8279 29.94 12.1715 30.6468 12.881C31.3506 13.5875 31.6926 14.4124 31.8685 15.425C32.0359 16.3893 32.0615 17.5867 32.0931 19.0695L32.0941 19.1281C32.1153 20.1244 32.1153 21.1152 32.0941 22.1115L32.0931 22.1701C32.0615 23.6529 32.0359 24.8503 31.8685 25.8146C31.6926 26.8273 31.3505 27.6521 30.6468 28.3586C29.94 29.0681 29.1029 29.4117 28.0736 29.591C27.0902 29.7622 25.863 29.7939 24.3382 29.8322L24.2796 29.8332C22.3267 29.8822 20.3927 29.8822 18.4398 29.8332L18.3821 29.8322C16.8574 29.7939 15.6301 29.7622 14.6468 29.591C13.6173 29.4117 12.7804 29.0681 12.0736 28.3586C11.3697 27.652 11.0278 26.8274 10.8519 25.8146C10.6844 24.8503 10.6589 23.6529 10.6273 22.1701L10.6263 22.1115C10.605 21.1152 10.605 20.1244 10.6263 19.1281L10.6273 19.0695C10.6589 17.5867 10.6844 16.3893 10.8519 15.425C11.0278 14.4124 11.3697 13.5875 12.0736 12.881C12.7804 12.1716 13.6173 11.8279 14.6468 11.6486C15.6301 11.4774 16.8574 11.4467 18.3821 11.4084L18.4398 11.4064ZM24.8177 19.1857C23.5244 19.9185 22.4731 20.3664 21.3607 20.3664C20.2482 20.3664 19.1969 19.9185 17.9036 19.1857L12.2816 16.0002C12.1777 16.7926 12.1544 17.7943 12.1253 19.1603C12.1045 20.1352 12.1045 21.1044 12.1253 22.0793C12.1585 23.6347 12.1836 24.7183 12.3294 25.5578C12.469 26.3615 12.7089 26.8712 13.1361 27.3C13.5602 27.7258 14.0764 27.9693 14.9036 28.1135C15.7649 28.2634 16.8812 28.2931 18.4778 28.3332C20.4057 28.3816 22.3146 28.3816 24.2425 28.3332C25.839 28.2931 26.9546 28.2634 27.8157 28.1135C28.6432 27.9694 29.1591 27.7257 29.5833 27.3C30.0105 26.8711 30.2504 26.3616 30.39 25.5578C30.5357 24.7183 30.5609 23.6348 30.5941 22.0793C30.6148 21.1044 30.6149 20.1352 30.5941 19.1603C30.5649 17.7943 30.5417 16.7926 30.4378 16.0002L24.8177 19.1857ZM24.2425 12.9064C22.3146 12.858 20.4057 12.858 18.4778 12.9064C16.8812 12.9465 15.7649 12.9762 14.9036 13.1262C14.0763 13.2703 13.5602 13.5138 13.1361 13.9396C12.9629 14.1134 12.8218 14.3013 12.7044 14.5158L18.6429 17.881C19.8982 18.5923 20.6605 18.8664 21.3607 18.8664C22.0608 18.8664 22.8225 18.5921 24.0775 17.881L30.015 14.5158C29.8976 14.3014 29.7564 14.1133 29.5833 13.9396C29.1591 13.514 28.643 13.2702 27.8157 13.1262C26.9546 12.9762 25.8389 12.9465 24.2425 12.9064Z" fill="white"/>
</svg>
