<svg width="42" height="42" viewBox="0 0 42 42" fill="none" xmlns="http://www.w3.org/2000/svg">
<circle cx="20.8799" cy="20.6201" r="20.6201" fill="#EE5531"/>
<rect x="8.87988" y="8.62012" width="24" height="24" rx="12" fill="#EE5531"/>
<path d="M20.8799 31.3701C26.8169 31.3701 31.6299 26.5572 31.6299 20.6201C31.6299 14.6831 26.8169 9.87012 20.8799 9.87012C14.9428 9.87012 10.1299 14.6831 10.1299 20.6201C10.1299 26.5572 14.9428 31.3701 20.8799 31.3701ZM20.8799 29.8701C19.7991 29.8701 18.762 29.6835 17.7979 29.3428L19.0996 26.0898C19.6608 26.2724 20.2595 26.3701 20.8799 26.3701C24.0555 26.3701 26.6299 23.7958 26.6299 20.6201C26.6299 17.4445 24.0555 14.8701 20.8799 14.8701C17.7042 14.8701 15.1299 17.4445 15.1299 20.6201C15.1299 21.6664 15.4106 22.6496 15.9004 23.4961C16.108 23.8542 16.5664 23.9769 16.9248 23.7695C17.2833 23.5621 17.4057 23.1027 17.1982 22.7441C16.837 22.1198 16.6299 21.3953 16.6299 20.6201C16.6299 18.2729 18.5327 16.3701 20.8799 16.3701C23.2271 16.3701 25.1299 18.2729 25.1299 20.6201C25.1299 22.9673 23.2271 24.8701 20.8799 24.8701C20.4544 24.8701 20.0446 24.8072 19.6582 24.6914L21.5762 19.8984C21.7298 19.5139 21.5427 19.0776 21.1582 18.9238C20.7737 18.7702 20.3374 18.9573 20.1836 19.3418L16.4277 28.7305C13.5678 27.1572 11.6299 24.1149 11.6299 20.6201C11.6299 15.5115 15.7712 11.3701 20.8799 11.3701C25.9885 11.3701 30.1299 15.5115 30.1299 20.6201C30.1299 25.7288 25.9885 29.8701 20.8799 29.8701Z" fill="white"/>
</svg>
