<svg width="23" height="21" viewBox="0 0 23 21" fill="none" xmlns="http://www.w3.org/2000/svg">
<path fill-rule="evenodd" clip-rule="evenodd" d="M10.7786 3.86245C10.3919 3.73799 10.0398 3.49514 9.78298 3.14342C9.13718 2.25932 9.33443 1.02012 10.2235 0.377981C11.1126 -0.264459 12.3587 -0.068071 13.0049 0.816032C13.6507 1.70013 13.4534 2.93934 12.5644 3.58147C12.3906 3.70713 12.2033 3.80049 12.0095 3.86316L13.5207 8.48857H18.4122C18.4127 7.877 18.6972 7.27364 19.2328 6.88696C20.1219 6.24452 21.3681 6.44091 22.0138 7.32501C22.6599 8.20911 22.4624 9.44831 21.5733 10.0905C20.6842 10.7329 19.4381 10.5365 18.7923 9.6524L14.835 12.5114L16.3464 17.1368C17.1447 16.8792 18.0531 17.1451 18.5728 17.8566C19.2186 18.7407 19.0214 19.9799 18.1323 20.622C17.2433 21.2645 15.9969 21.0681 15.351 20.184C14.8313 19.4727 14.8574 18.5316 15.3507 17.8563L11.394 14.9974L7.4368 17.8565C8.08261 18.7406 7.88536 19.9798 6.99629 20.6219C6.10723 21.2644 4.86107 21.068 4.21492 20.1839C3.56911 19.2998 3.76636 18.0606 4.65543 17.4184C5.19103 17.0314 5.85594 16.9488 6.4411 17.1374L7.95273 12.5114L3.99597 9.6526C3.87622 9.81672 3.72878 9.965 3.555 10.0904C2.66593 10.7329 1.41977 10.5365 0.774025 9.65236C0.127976 8.76826 0.325468 7.52905 1.21454 6.88692C2.1036 6.24448 3.34976 6.44087 3.99551 7.32497C4.25268 7.67646 4.37611 8.08435 4.37562 8.48861H9.26717L10.7786 3.8626L10.7786 3.86245Z" fill="#FFC225"/>
</svg>
