<svg width="14" height="15" viewBox="0 0 14 15" fill="none" xmlns="http://www.w3.org/2000/svg">
<path d="M1.49915 4.41345C2.06587 3.89827 2.14698 3.23732 2.15605 2.98302H4.48855C4.56807 2.98302 4.6321 2.9157 4.6321 2.83336C4.6321 2.75046 4.56753 2.68371 4.48855 2.68371L2.0125 2.68315H1.86682C1.69445 2.68315 1.55411 2.54072 1.55411 2.36547V1.2344C1.55411 1.05915 1.69445 0.916721 1.86682 0.916721H7.11036C7.28273 0.916721 7.42307 1.05915 7.42307 1.2344V2.36547C7.42307 2.54072 7.28273 2.68315 7.11036 2.68315H6.96735C6.89104 2.68315 6.82754 2.74546 6.82381 2.82558L6.82167 2.87009C6.82007 2.90569 6.78966 3.75358 7.47591 4.41054C8.02769 4.93907 8.00154 5.8176 8.001 5.83255L8.00047 11.4316C8.00047 11.9161 7.61892 12.3106 7.14986 12.3106H1.82742C1.35836 12.3106 0.976811 11.9161 0.976811 11.4316V5.82638C0.976278 5.81748 0.948529 4.9134 1.49924 4.41327L1.49915 4.41345Z" fill="#443B32"/>
<path d="M11.4265 4.64277C11.4249 4.67838 11.3945 5.52626 12.0808 6.18323C12.6325 6.71176 12.6064 7.59028 12.6059 7.60524M11.4265 4.64277L11.5722 4.64976L11.7152 4.65661L11.7963 4.6605C11.7839 4.70743 11.7557 4.75136 11.7152 4.78285C11.6774 4.81227 11.6288 4.83084 11.5722 4.83084H11.7152C11.7474 4.83084 11.7791 4.82862 11.81 4.82435M11.4265 4.64277L11.5722 4.64932L11.7152 4.65575L11.7966 4.65941M11.4265 4.64277L11.7966 4.65941M11.81 4.82435C11.8178 4.89495 11.8322 4.98443 11.8585 5.08522C11.9237 5.33468 12.0591 5.64331 12.3401 5.91235L12.3402 5.91242C12.6915 6.24899 12.8465 6.68267 12.9169 7.00734C12.9833 7.3136 12.9821 7.55772 12.9809 7.61029M11.81 4.82435C12.1487 4.77755 12.4029 4.48349 12.4029 4.13816V3.00709C12.4029 2.63021 12.1001 2.31441 11.7152 2.31441H6.47168C6.08676 2.31441 5.78396 2.63021 5.78396 3.00709V4.13816C5.78396 4.48484 6.04019 4.77984 6.38086 4.82489C6.35835 5.07222 6.25863 5.53861 5.85205 5.9084L5.85199 5.90835C5.49344 6.23397 5.3388 6.6735 5.26943 6.99843C5.20698 7.29096 5.20501 7.53141 5.20667 7.60299M11.81 4.82435L12.9803 13.2043M12.9809 7.61029L12.9809 7.60527L12.6059 7.60524M12.9809 7.61029C12.9808 7.6141 12.9807 7.61691 12.9806 7.61866L12.6059 7.60524M12.9809 7.61029L12.9803 13.2042H12.6053M12.6059 7.60524L12.6053 13.2042M12.6053 13.2042L12.9803 13.2043M12.6053 13.2042C12.6053 13.6888 12.2238 14.0833 11.7547 14.0833H6.43228C5.96322 14.0833 5.58167 13.6888 5.58167 13.2042V7.59907L5.20734 7.62151C5.20713 7.61802 5.20687 7.61178 5.20667 7.60299M12.9803 13.2043C12.9803 13.8842 12.4424 14.4583 11.7547 14.4583H6.43228C5.74455 14.4583 5.20667 13.8842 5.20667 13.2042V7.60299M12.9803 13.2043L5.20667 7.60299M11.7966 4.65941C11.8003 4.6452 11.8025 4.63071 11.8032 4.61623C11.8032 4.61606 11.8033 4.61589 11.8033 4.61572L11.7966 4.65941Z" fill="#443B32" stroke="#F5F5F5" stroke-width="0.75"/>
</svg>
