<svg width="15" height="19" viewBox="0 0 15 19" fill="none" xmlns="http://www.w3.org/2000/svg">
<path fill-rule="evenodd" clip-rule="evenodd" d="M14.199 9.38189C13.8494 9.93721 13.3363 10.2378 12.7064 10.2609H11.0976H10.4216H2.44632C2.30622 10.2609 2.23618 10.2609 2.19004 10.3304C2.09664 10.423 2.09664 10.4688 2.09664 10.5389C2.14334 10.6773 2.21283 10.7004 2.28288 10.7004H2.39962H2.44632H7.71645H10.3515C10.8641 10.7004 11.3071 10.8626 11.6574 11.1399C12.007 11.4179 12.24 11.8111 12.3334 12.2969C12.4034 12.7596 12.3334 13.1991 12.1004 13.5923C11.867 13.9623 11.5173 14.2628 11.0742 14.4018C10.8641 14.4713 10.6311 14.5171 10.3749 14.5171H6.76026H4.56827C4.47487 14.5171 4.40483 14.5402 4.31143 14.5634C4.28864 14.5865 4.21859 14.6097 4.21859 14.7487C4.21859 14.8182 4.26473 14.8876 4.33478 14.9103C4.40483 14.9334 4.47487 14.9566 4.54492 14.9566H5.47775H6.41059C7.43626 14.9797 8.29905 15.8124 8.29905 16.8536V16.992V17.9173C8.29905 18.2184 8.15951 18.4958 7.90268 18.658C7.76314 18.7269 7.62305 18.7732 7.45961 18.7732C7.34342 18.7732 7.20333 18.75 7.06324 18.6806C6.78361 18.5422 6.62017 18.2642 6.59682 17.9173V17.6863C6.59682 17.5473 6.59682 17.4084 6.57347 17.2931C6.52733 16.9225 6.20045 16.6451 5.82743 16.6451H4.91794H4.52157C4.0318 16.6451 3.58873 16.483 3.23906 16.2056C2.86604 15.9282 2.63311 15.5119 2.56306 15.0492C2.49301 14.5865 2.58641 14.1239 2.81934 13.7307C3.05283 13.3375 3.42585 13.0596 3.86892 12.9211C4.0785 12.8517 4.28864 12.8285 4.54492 12.8285H8.69598H10.2815C10.3515 12.8285 10.4216 12.8285 10.4916 12.8053C10.5844 12.7822 10.6545 12.6895 10.6545 12.5974C10.6545 12.4816 10.5611 12.4122 10.4683 12.389H10.3282H10.2815H7.32007H2.37627C1.37339 12.389 0.603994 11.741 0.41776 10.7699C0.277668 9.96037 0.767435 9.05819 1.56018 8.73393C1.81701 8.61868 2.09664 8.57235 2.39962 8.57235H6.13096H8.32296H12.4735C12.5435 8.57235 12.6369 8.52603 12.7297 8.47971C12.7998 8.43339 12.7998 8.3639 12.7764 8.31758C12.7297 8.17916 12.6597 8.156 12.5902 8.156H12.4735H12.4268H4.49822C4.00845 8.156 3.56538 7.99388 3.21571 7.71649C2.84269 7.43911 2.60976 7.02221 2.53971 6.56009C2.37627 5.63474 2.88938 4.77888 3.77552 4.45462C3.98566 4.38569 4.21859 4.33937 4.47487 4.33937H8.13617H10.3048C10.3982 4.33937 10.4677 4.31621 10.5611 4.29305C10.5844 4.26989 10.6545 4.24672 10.6545 4.10776C10.6545 4.01566 10.6311 3.96934 10.5611 3.94618C10.491 3.92302 10.4216 3.89986 10.3515 3.89986H9.37198H8.50919C7.99607 3.89986 7.50631 3.69141 7.15663 3.34454C6.80696 2.97451 6.59682 2.51184 6.59682 2.00284V1.77178V1.12382C6.59682 0.800116 6.73691 0.545894 6.9704 0.383766C7.20333 0.221637 7.50631 0.175315 7.78649 0.291121C8.06612 0.406927 8.29905 0.730632 8.29905 1.0775V1.21647C8.29905 1.33227 8.29905 1.40176 8.3224 1.54017C8.3691 1.88704 8.69542 2.18813 9.06845 2.18813H10.3743C10.8641 2.18813 11.2838 2.32655 11.6568 2.62765C12.1004 2.97451 12.3567 3.46035 12.3567 4.03882C12.3801 4.84836 11.9837 5.47261 11.2371 5.81948C11.0042 5.91212 10.7479 5.98161 10.491 5.98161H6.15375H4.61496C4.52157 5.98161 4.47487 5.98161 4.40483 6.00477C4.31199 6.02793 4.24194 6.12058 4.24194 6.21267C4.24194 6.32847 4.33478 6.39796 4.42817 6.42112H4.56827H4.59161H6.83031H12.5896C13.2662 6.42112 13.8027 6.72166 14.1757 7.27698C14.6188 7.97071 14.6421 8.68816 14.199 9.38189Z" fill="#54C0E8"/>
</svg>
