<svg width="20" height="19" viewBox="0 0 20 19" fill="none" xmlns="http://www.w3.org/2000/svg">
<path fill-rule="evenodd" clip-rule="evenodd" d="M9.7214 4.09465C9.38952 3.98783 9.08739 3.77942 8.86696 3.47757C8.31273 2.71883 8.48201 1.65534 9.24501 1.10425C10.008 0.552904 11.0775 0.721446 11.632 1.48019C12.1862 2.23893 12.017 3.30242 11.254 3.85351C11.1048 3.96135 10.9441 4.04147 10.7778 4.09526L12.0747 8.06482H16.2726C16.273 7.53996 16.5172 7.02215 16.9769 6.6903C17.7399 6.13895 18.8094 6.3075 19.3635 7.06624C19.918 7.82498 19.7485 8.88847 18.9855 9.43956C18.2225 9.99091 17.153 9.82236 16.5988 9.06362L13.2026 11.5173L14.4997 15.4868C15.1848 15.2657 15.9644 15.4939 16.4105 16.1045C16.9647 16.8632 16.7954 17.9267 16.0324 18.4778C15.2694 19.0292 14.1998 18.8606 13.6454 18.1019C13.1994 17.4915 13.2219 16.6838 13.6452 16.1042L10.2495 13.6508L6.85345 16.1044C7.40769 16.8632 7.23841 17.9267 6.47541 18.4777C5.7124 19.0291 4.64294 18.8605 4.08841 18.1018C3.53418 17.3431 3.70345 16.2796 4.46646 15.7285C4.92611 15.3963 5.49674 15.3254 5.99893 15.4873L7.29622 11.5173L3.90051 9.0638C3.79774 9.20464 3.6712 9.3319 3.52206 9.43952C2.75906 9.99087 1.68959 9.82233 1.13541 9.06359C0.580969 8.30484 0.750457 7.24135 1.51346 6.69026C2.27646 6.13892 3.34593 6.30746 3.90011 7.0662C4.12082 7.36786 4.22674 7.71791 4.22632 8.06485H8.42429L9.72137 4.09477L9.7214 4.09465Z" fill="#C1A284"/>
</svg>
