<svg width="12" height="13" viewBox="0 0 12 13" fill="none" xmlns="http://www.w3.org/2000/svg">
<path d="M1.0172 3.14214C1.50356 2.70001 1.57317 2.13277 1.58096 1.91453H3.58272C3.65096 1.91453 3.70591 1.85675 3.70591 1.78609C3.70591 1.71495 3.6505 1.65766 3.58272 1.65766L1.45776 1.65718H1.33273C1.1848 1.65718 1.06436 1.53495 1.06436 1.38455V0.413857C1.06436 0.263451 1.1848 0.14122 1.33273 0.14122H5.83277C5.9807 0.14122 6.10115 0.263451 6.10115 0.413857V1.38455C6.10115 1.53495 5.9807 1.65718 5.83277 1.65718H5.71004C5.64456 1.65718 5.59006 1.71066 5.58685 1.77941L5.58502 1.81761C5.58365 1.84817 5.55754 2.57583 6.14649 3.13964C6.62003 3.59323 6.59759 4.34718 6.59713 4.36002L6.59667 9.16513C6.59667 9.581 6.26922 9.91952 5.86667 9.91952H1.29892C0.896372 9.91952 0.568922 9.581 0.568922 9.16513V4.35472C0.568464 4.34708 0.544649 3.5712 1.01728 3.14198L1.0172 3.14214Z" fill="#C1A284"/>
<path d="M9.53705 3.33894C9.53568 3.3695 9.50957 4.09716 10.0985 4.66097C10.5721 5.11456 10.5496 5.86852 10.5492 5.88135M9.53705 3.33894L9.66207 3.34494L9.7848 3.35082L9.85439 3.35416C9.84371 3.39444 9.81954 3.43213 9.7848 3.45916C9.75233 3.48441 9.71063 3.50034 9.66207 3.50034H9.7848C9.81245 3.50034 9.8396 3.49844 9.86615 3.49477M9.53705 3.33894L9.66207 3.34456L9.7848 3.35008L9.85463 3.35322M9.53705 3.33894L9.85463 3.35322M9.86615 3.49477C9.87285 3.55536 9.8852 3.63215 9.90779 3.71866C9.96371 3.93274 10.0799 4.19761 10.3211 4.4285L10.3211 4.42856C10.6227 4.71741 10.7557 5.0896 10.8161 5.36823C10.8731 5.63111 10.872 5.84064 10.871 5.8857M9.86615 3.49477C10.1568 3.45461 10.375 3.20225 10.375 2.90588V1.93519C10.375 1.61175 10.1151 1.34072 9.7848 1.34072H5.28476C4.95442 1.34072 4.69456 1.61175 4.69456 1.93519V2.90588C4.69456 3.20341 4.91445 3.45658 5.20682 3.49523C5.1875 3.7075 5.10192 4.10776 4.75299 4.42511L4.75294 4.42507C4.44523 4.70452 4.31251 5.08173 4.25298 5.36058C4.19939 5.61163 4.19769 5.81799 4.19912 5.87942M9.86615 3.49477L10.8705 10.6865M10.871 5.8857L10.871 5.88138L10.5492 5.88135M10.871 5.8857C10.8709 5.88896 10.8708 5.89136 10.8708 5.89286L10.5492 5.88135M10.871 5.8857L10.8705 10.6865H10.5487M10.5492 5.88135L10.5487 10.6865M10.5487 10.6865L10.8705 10.6865M10.5487 10.6865C10.5487 11.1023 10.2213 11.4409 9.8187 11.4409H5.25095C4.8484 11.4409 4.52095 11.1023 4.52095 10.6865V5.87605L4.1997 5.89531C4.19952 5.89232 4.1993 5.88697 4.19912 5.87942M10.8705 10.6865C10.8705 11.27 10.4089 11.7627 9.8187 11.7627H5.25095C4.66073 11.7627 4.19912 11.27 4.19912 10.6865V5.87942M10.8705 10.6865L4.19912 5.87942M9.85463 3.35322C9.8578 3.34102 9.85973 3.3286 9.86034 3.31616C9.86035 3.31602 9.86035 3.31587 9.86036 3.31573L9.85463 3.35322Z" fill="#C1A284" stroke="#F5F5F5" stroke-width="0.643655"/>
</svg>
