<svg width="13" height="17" viewBox="0 0 13 17" fill="none" xmlns="http://www.w3.org/2000/svg">
<path fill-rule="evenodd" clip-rule="evenodd" d="M12.5669 8.68967C12.2668 9.16625 11.8264 9.42418 11.2859 9.44406H9.90517H9.32502H2.48062C2.36039 9.44406 2.30028 9.44406 2.26068 9.50369C2.18052 9.5832 2.18052 9.62248 2.18052 9.68258C2.2206 9.80137 2.28024 9.82125 2.34035 9.82125H2.44054H2.48062H7.00348H9.26491C9.70479 9.82125 10.085 9.96039 10.3856 10.1984C10.6857 10.437 10.8856 10.7744 10.9658 11.1913C11.0259 11.5884 10.9658 11.9656 10.7659 12.303C10.5655 12.6206 10.2654 12.8785 9.88513 12.9978C9.70479 13.0574 9.50489 13.0967 9.28495 13.0967H6.18287H4.30169C4.22154 13.0967 4.16142 13.1166 4.08127 13.1365C4.06171 13.1563 4.0016 13.1762 4.0016 13.2955C4.0016 13.3551 4.04119 13.4147 4.10131 13.4341C4.16142 13.454 4.22154 13.4739 4.28165 13.4739H5.08222H5.88278C6.76302 13.4938 7.50347 14.2084 7.50347 15.1019V15.2207V16.0149C7.50347 16.2733 7.38372 16.5113 7.1633 16.6505C7.04355 16.7096 6.92333 16.7494 6.78306 16.7494C6.68335 16.7494 6.56312 16.7295 6.44289 16.6699C6.20291 16.5511 6.06265 16.3125 6.04261 16.0149V15.8166C6.04261 15.6973 6.04261 15.578 6.02257 15.4791C5.98297 15.1611 5.70244 14.923 5.38231 14.923H4.60178H4.26161C3.84129 14.923 3.46105 14.7839 3.16095 14.5458C2.84082 14.3078 2.64092 13.9505 2.58081 13.5534C2.52069 13.1563 2.60085 12.7593 2.80075 12.4218C3.00113 12.0844 3.32126 11.8459 3.7015 11.7271C3.88137 11.6675 4.06171 11.6476 4.28165 11.6476H7.84412H9.20479C9.26491 11.6476 9.32502 11.6476 9.38514 11.6277C9.46481 11.6078 9.52493 11.5283 9.52493 11.4493C9.52493 11.3499 9.44477 11.2903 9.3651 11.2704H9.24487H9.20479H6.66331H2.4205C1.55982 11.2704 0.899524 10.7143 0.739698 9.88088C0.61947 9.18613 1.03979 8.41187 1.72013 8.13359C1.94055 8.03468 2.18052 7.99492 2.44054 7.99492H5.6428H7.52399H11.086C11.1461 7.99492 11.2262 7.95517 11.3059 7.91541C11.366 7.87566 11.366 7.81603 11.346 7.77627C11.3059 7.65749 11.2458 7.63761 11.1862 7.63761H11.086H11.0459H4.24158C3.82125 7.63761 3.44101 7.49847 3.14092 7.26042C2.82079 7.02236 2.62088 6.66458 2.56077 6.26798C2.4205 5.47384 2.86086 4.73934 3.62135 4.46106C3.80169 4.4019 4.0016 4.36215 4.22154 4.36215H7.36369H9.22483C9.30499 4.36215 9.36462 4.34227 9.44477 4.32239C9.46481 4.30251 9.52493 4.28264 9.52493 4.16337C9.52493 4.08434 9.50489 4.04459 9.44477 4.02471C9.38466 4.00483 9.32502 3.98495 9.26491 3.98495H8.42427H7.68382C7.24346 3.98495 6.82314 3.80606 6.52304 3.50838C6.22295 3.19082 6.04261 2.79375 6.04261 2.35692V2.15863V1.60254C6.04261 1.32474 6.16284 1.10656 6.36322 0.967421C6.56312 0.828281 6.82314 0.788527 7.06359 0.887912C7.30357 0.987298 7.50347 1.2651 7.50347 1.56279V1.68205C7.50347 1.78144 7.50347 1.84107 7.52351 1.95986C7.56359 2.25754 7.84364 2.51594 8.16377 2.51594H9.28447C9.70479 2.51594 10.065 2.63473 10.3851 2.89313C10.7658 3.19082 10.9858 3.60776 10.9858 4.10422C11.0058 4.79897 10.6657 5.3347 10.0249 5.63239C9.82502 5.7119 9.60508 5.77153 9.38466 5.77153H5.66236H4.34176C4.26161 5.77153 4.22154 5.77153 4.16142 5.7914C4.08175 5.81128 4.02163 5.89079 4.02163 5.96982C4.02163 6.06921 4.10131 6.12884 4.18146 6.14872H4.30169H4.32173H6.24299H11.1857C11.7663 6.14872 12.2267 6.40665 12.5468 6.88322C12.9271 7.47859 12.9471 8.09431 12.5669 8.68967Z" fill="#C1A284"/>
</svg>
