<svg width="14" height="15" viewBox="0 0 14 15" fill="none" xmlns="http://www.w3.org/2000/svg">
<path d="M0.710926 12.719H2.25379C2.53804 12.719 2.76832 12.4872 2.76832 12.2016C2.76832 11.9154 2.53804 11.6836 2.25379 11.6836H0.710926C0.426669 11.6836 0.196392 11.9154 0.196392 12.2016C0.196392 12.4872 0.426669 12.719 0.710926 12.719Z" fill="#C1A284"/>
<path d="M13.0582 11.497C13.0561 10.7567 12.5382 10.1204 11.818 9.97383L10.4862 9.70484V6.30904C10.4828 6.23199 10.4698 6.15562 10.4479 6.08131L11.0096 5.67472C11.4647 5.34311 11.5727 4.70535 11.2522 4.24029L9.16955 1.23578H9.17023C8.86685 0.794089 8.27714 0.660617 7.81523 0.92963L7.04377 1.37337V1.37406C6.95084 1.34792 6.8545 1.33622 6.75814 1.33966C3.17008 1.55431 1.72824 3.50612 1.29238 4.2862C0.797659 4.35499 0.374699 4.67835 0.17585 5.13998C-0.0223135 5.60161 0.0323543 6.13411 0.321396 6.54415L5.29721 13.6407C5.32317 13.6779 5.35324 13.7109 5.38126 13.7446H0.710837C0.42658 13.7446 0.196302 13.9765 0.196302 14.2627C0.196302 14.5489 0.42658 14.7807 0.710837 14.7807L11.7722 14.791C12.1132 14.791 12.4405 14.6548 12.6817 14.412C12.9229 14.1691 13.0582 13.8396 13.0582 13.4963C13.0562 13.4385 13.0507 13.3807 13.0411 13.3236C13.0493 13.2954 13.0555 13.2665 13.0582 13.2369L13.0582 11.497ZM5.03484 4.41011C5.19884 4.64403 5.14417 4.96738 4.91253 5.13249C4.6802 5.2983 4.35905 5.24257 4.19505 5.00935L3.21724 3.61688C3.48782 3.40154 3.7796 3.21578 4.08778 3.06099L5.03484 4.41011ZM8.32771 1.8302L10.4104 4.83471L9.66283 5.37409L9.15376 5.24544V5.24475C8.59208 5.10371 8.11991 4.72189 7.8623 4.19971L7.81105 4.09583H7.81037C7.57394 3.62181 7.53499 3.07211 7.70241 2.56914C7.7434 2.44048 7.75639 2.30426 7.7393 2.17079L8.32771 1.8302ZM11.7722 13.7549H7.50147C6.9596 13.7549 6.45122 13.4893 6.13826 13.0435L1.16244 5.94695C1.10094 5.85751 1.07703 5.74674 1.09616 5.64011C1.11461 5.53279 1.17543 5.43716 1.26425 5.37524C1.44874 5.2459 1.70294 5.2913 1.8314 5.47706L6.66843 12.5639C6.9561 12.985 7.43169 13.2368 7.94007 13.2368H11.772C11.9141 13.2368 12.0289 13.3531 12.0289 13.4962C12.0289 13.6393 11.9141 13.7548 11.772 13.7548L11.7722 13.7549Z" fill="#C1A284"/>
</svg>
