<svg width="14" height="15" viewBox="0 0 14 15" fill="none" xmlns="http://www.w3.org/2000/svg">
<path id="Mask" fill-rule="evenodd" clip-rule="evenodd" d="M0 0.709473V2.10947H1.4L3.92 7.42247L2.975 9.13747C2.863 9.33347 2.8 9.56447 2.8 9.80947C2.8 10.5795 3.43 11.2095 4.2 11.2095H12.6V9.80947H4.494C4.396 9.80947 4.319 9.73247 4.319 9.63447L4.34 9.55047L4.97 8.40947H10.185C10.71 8.40947 11.172 8.12247 11.41 7.68847L13.916 3.14547C13.972 3.04747 14 2.92847 14 2.80947C14 2.42447 13.685 2.10947 13.3 2.10947H2.947L2.289 0.709473H0ZM4.19984 11.9095C3.42984 11.9095 2.80684 12.5395 2.80684 13.3095C2.80684 14.0795 3.42984 14.7095 4.19984 14.7095C4.96984 14.7095 5.59984 14.0795 5.59984 13.3095C5.59984 12.5395 4.96984 11.9095 4.19984 11.9095ZM9.80684 13.3095C9.80684 12.5395 10.4298 11.9095 11.1998 11.9095C11.9698 11.9095 12.5998 12.5395 12.5998 13.3095C12.5998 14.0795 11.9698 14.7095 11.1998 14.7095C10.4298 14.7095 9.80684 14.0795 9.80684 13.3095Z" fill="black"/>
</svg>
