<svg width="103" height="32" viewBox="0 0 103 32" fill="none" xmlns="http://www.w3.org/2000/svg">
<path d="M22.4282 15.0076H19.2836C19.2155 15.0076 19.1614 14.9474 19.1675 14.8766L19.6551 9.13099C19.6654 9.01187 19.5183 8.95231 19.4472 9.04635L18.6987 10.0338L13.5697 16.7971C13.5101 16.8761 13.5642 16.9914 13.6615 16.9914H16.8061C16.8742 16.9914 16.9283 17.0516 16.9222 17.1225L16.4346 22.8687C16.4242 22.9879 16.5714 23.048 16.6425 22.9534L17.3909 21.9659L22.52 15.2027C22.5795 15.1237 22.5254 15.0083 22.4282 15.0083V15.0076Z" fill="#3B342D"/>
<path d="M40.3008 12.144C40.3008 12.3147 40.2154 12.4 40.0448 12.4H34.6688C34.6048 12.4 34.5728 12.432 34.5728 12.496V15.456C34.5728 15.52 34.6048 15.552 34.6688 15.552H38.2528C38.4234 15.552 38.5088 15.6373 38.5088 15.808V16.896C38.5088 17.0667 38.4234 17.152 38.2528 17.152H34.6688C34.6048 17.152 34.5728 17.184 34.5728 17.248V20.304C34.5728 20.368 34.6048 20.4 34.6688 20.4H40.0448C40.2154 20.4 40.3008 20.4853 40.3008 20.656V21.744C40.3008 21.9147 40.2154 22 40.0448 22H32.9728C32.8021 22 32.7168 21.9147 32.7168 21.744V11.056C32.7168 10.8853 32.8021 10.8 32.9728 10.8H40.0448C40.2154 10.8 40.3008 10.8853 40.3008 11.056V12.144ZM42.4415 22C42.2709 22 42.1855 21.9147 42.1855 21.744V11.056C42.1855 10.8853 42.2709 10.8 42.4415 10.8H43.7215C43.8709 10.8 43.9775 10.8587 44.0415 10.976L48.5215 18.304C48.5429 18.3467 48.5642 18.3627 48.5855 18.352C48.6175 18.3413 48.6335 18.3147 48.6335 18.272V11.056C48.6335 10.8853 48.7189 10.8 48.8895 10.8H50.2335C50.4042 10.8 50.4895 10.8853 50.4895 11.056V21.744C50.4895 21.9147 50.4042 22 50.2335 22H48.9215C48.7722 22 48.6655 21.9413 48.6015 21.824L44.1215 14.448C44.1002 14.4053 44.0735 14.3893 44.0415 14.4C44.0202 14.4107 44.0095 14.4373 44.0095 14.48L44.0255 21.744C44.0255 21.9147 43.9402 22 43.7695 22H42.4415ZM60.2539 12.144C60.2539 12.3147 60.1686 12.4 59.9979 12.4H54.6219C54.5579 12.4 54.5259 12.432 54.5259 12.496V15.456C54.5259 15.52 54.5579 15.552 54.6219 15.552H58.2059C58.3766 15.552 58.4619 15.6373 58.4619 15.808V16.896C58.4619 17.0667 58.3766 17.152 58.2059 17.152H54.6219C54.5579 17.152 54.5259 17.184 54.5259 17.248V20.304C54.5259 20.368 54.5579 20.4 54.6219 20.4H59.9979C60.1686 20.4 60.2539 20.4853 60.2539 20.656V21.744C60.2539 21.9147 60.1686 22 59.9979 22H52.9259C52.7552 22 52.6699 21.9147 52.6699 21.744V11.056C52.6699 10.8853 52.7552 10.8 52.9259 10.8H59.9979C60.1686 10.8 60.2539 10.8853 60.2539 11.056V12.144ZM68.4746 22C68.3253 22 68.224 21.936 68.1706 21.808L66.0746 17.232C66.064 17.1893 66.0266 17.168 65.9626 17.168H64.0906C64.0266 17.168 63.9946 17.2 63.9946 17.264V21.744C63.9946 21.9147 63.9093 22 63.7386 22H62.3946C62.224 22 62.1386 21.9147 62.1386 21.744V11.04C62.1386 10.8693 62.224 10.784 62.3946 10.784H66.7306C67.3813 10.784 67.9573 10.9227 68.4586 11.2C68.96 11.4667 69.3493 11.8507 69.6266 12.352C69.904 12.8427 70.0426 13.408 70.0426 14.048C70.0426 14.784 69.8506 15.4133 69.4666 15.936C69.0933 16.448 68.576 16.8 67.9146 16.992C67.8826 17.0027 67.8613 17.024 67.8506 17.056C67.84 17.0773 67.8453 17.0987 67.8666 17.12L70.0746 21.696L70.1066 21.824C70.1066 21.9413 70.032 22 69.8826 22H68.4746ZM64.0906 12.384C64.0266 12.384 63.9946 12.416 63.9946 12.48V15.632C63.9946 15.696 64.0266 15.728 64.0906 15.728H66.4746C66.9866 15.728 67.3973 15.5787 67.7066 15.28C68.0266 14.9707 68.1866 14.5707 68.1866 14.08C68.1866 13.5787 68.0266 13.1733 67.7066 12.864C67.3973 12.544 66.9866 12.384 66.4746 12.384H64.0906ZM75.6951 22.128C74.8951 22.128 74.1911 21.9733 73.5831 21.664C72.9751 21.344 72.5058 20.896 72.1751 20.32C71.8445 19.744 71.6791 19.0827 71.6791 18.336V14.464C71.6791 13.7067 71.8445 13.0453 72.1751 12.48C72.5058 11.904 72.9751 11.4613 73.5831 11.152C74.1911 10.832 74.8951 10.672 75.6951 10.672C76.4845 10.672 77.1778 10.8267 77.7751 11.136C78.3831 11.4453 78.8525 11.8667 79.1831 12.4C79.5138 12.9333 79.6791 13.536 79.6791 14.208V14.272C79.6791 14.4427 79.5938 14.528 79.4231 14.528H78.0951C78.0205 14.528 77.9565 14.5173 77.9031 14.496C77.8605 14.464 77.8391 14.4267 77.8391 14.384V14.256C77.8391 13.68 77.6418 13.2053 77.2471 12.832C76.8631 12.4587 76.3458 12.272 75.6951 12.272C75.0445 12.272 74.5218 12.4693 74.1271 12.864C73.7325 13.248 73.5351 13.76 73.5351 14.4V18.4C73.5351 19.04 73.7431 19.5573 74.1591 19.952C74.5751 20.336 75.1138 20.528 75.7751 20.528C76.4151 20.528 76.9165 20.3627 77.2791 20.032C77.6525 19.6907 77.8391 19.2267 77.8391 18.64V17.664C77.8391 17.6 77.8071 17.568 77.7431 17.568H75.8551C75.6845 17.568 75.5991 17.4827 75.5991 17.312V16.256C75.5991 16.0853 75.6845 16 75.8551 16H79.4231C79.5938 16 79.6791 16.0853 79.6791 16.256V18.24C79.6791 19.4667 79.3165 20.4213 78.5911 21.104C77.8765 21.7867 76.9111 22.128 75.6951 22.128ZM84.2389 21.984C84.0682 21.984 83.9829 21.8987 83.9829 21.728V17.52C83.9829 17.488 83.9722 17.4507 83.9509 17.408L80.7189 11.104C80.6869 11.0507 80.6709 11.0027 80.6709 10.96C80.6709 10.8533 80.7456 10.8 80.8949 10.8H82.3509C82.4896 10.8 82.5909 10.864 82.6549 10.992L84.8469 15.392C84.8682 15.424 84.8896 15.44 84.9109 15.44C84.9429 15.44 84.9642 15.424 84.9749 15.392L87.1829 10.992C87.2469 10.864 87.3482 10.8 87.4869 10.8H88.9589C89.1082 10.8 89.1829 10.8533 89.1829 10.96C89.1829 11.0027 89.1669 11.0507 89.1349 11.104L85.8709 17.408C85.8496 17.472 85.8389 17.5093 85.8389 17.52V21.728C85.8389 21.8987 85.7536 21.984 85.5829 21.984H84.2389Z" fill="#3B342D"/>
</svg>
