<svg width="139" height="32" viewBox="0 0 139 32" fill="none" xmlns="http://www.w3.org/2000/svg">
<path fill-rule="evenodd" clip-rule="evenodd" d="M26.2496 15.8981C25.9278 16.3772 25.4556 16.6365 24.8759 16.6564H23.3953H22.7732H15.4337C15.3047 16.6564 15.2403 16.6564 15.1978 16.7164C15.1119 16.7963 15.1119 16.8358 15.1119 16.8962C15.1548 17.0156 15.2188 17.0356 15.2832 17.0356H15.3907H15.4337H20.2837H22.7087C23.1804 17.0356 23.5882 17.1755 23.9105 17.4148C24.2323 17.6546 24.4467 17.9938 24.5326 18.4129C24.5971 18.812 24.5326 19.1912 24.3183 19.5304C24.1034 19.8496 23.7816 20.1089 23.3738 20.2288C23.1804 20.2887 22.9661 20.3282 22.7302 20.3282H19.4037H17.3865C17.3005 20.3282 17.2361 20.3482 17.1501 20.3682C17.1291 20.3882 17.0647 20.4081 17.0647 20.528C17.0647 20.588 17.1071 20.6479 17.1716 20.6674C17.2361 20.6874 17.3005 20.7074 17.365 20.7074H18.2235H19.0819C20.0259 20.7274 20.8199 21.4457 20.8199 22.3439V22.4634V23.2616C20.8199 23.5214 20.6915 23.7607 20.4551 23.9006C20.3267 23.96 20.1978 24 20.0473 24C19.9404 24 19.8115 23.98 19.6826 23.9201C19.4252 23.8007 19.2748 23.5609 19.2533 23.2616V23.0623C19.2533 22.9424 19.2533 22.8225 19.2318 22.7231C19.1894 22.4034 18.8886 22.1641 18.5453 22.1641H17.7083H17.3435C16.8928 22.1641 16.485 22.0242 16.1632 21.7849C15.8199 21.5456 15.6056 21.1865 15.5411 20.7873C15.4766 20.3882 15.5626 19.989 15.7769 19.6498C15.9918 19.3106 16.3351 19.0708 16.7429 18.9514C16.9357 18.8915 17.1291 18.8715 17.365 18.8715H21.1852H22.6443C22.7087 18.8715 22.7732 18.8715 22.8377 18.8515C22.9231 18.8315 22.9876 18.7516 22.9876 18.6722C22.9876 18.5723 22.9016 18.5123 22.8162 18.4923H22.6872H22.6443H19.9189H15.3692C14.4463 18.4923 13.7382 17.9333 13.5668 17.0956C13.4379 16.3972 13.8886 15.6188 14.6182 15.3391C14.8545 15.2397 15.1119 15.1997 15.3907 15.1997H18.8246H20.8419H24.6615C24.726 15.1997 24.812 15.1598 24.8974 15.1198C24.9619 15.0798 24.9619 15.0199 24.9404 14.9799C24.8974 14.8605 24.8329 14.8405 24.769 14.8405H24.6615H24.6186H17.322C16.8713 14.8405 16.4635 14.7007 16.1417 14.4614C15.7984 14.2221 15.5841 13.8624 15.5196 13.4637C15.3692 12.6654 15.8414 11.9271 16.6569 11.6474C16.8503 11.5879 17.0647 11.5479 17.3005 11.5479H20.67H22.6658C22.7517 11.5479 22.8157 11.5279 22.9016 11.508C22.9231 11.488 22.9876 11.468 22.9876 11.3481C22.9876 11.2687 22.9661 11.2287 22.9016 11.2087C22.8371 11.1887 22.7732 11.1688 22.7087 11.1688H21.8073H21.0133C20.541 11.1688 20.0903 10.9889 19.7685 10.6897C19.4467 10.3705 19.2533 9.97131 19.2533 9.5322V9.33287V8.77387C19.2533 8.49461 19.3823 8.27529 19.5971 8.13542C19.8115 7.99555 20.0903 7.95559 20.3482 8.0555C20.6055 8.1554 20.8199 8.43466 20.8199 8.73391V8.85379C20.8199 8.9537 20.8199 9.01364 20.8414 9.13305C20.8843 9.4323 21.1847 9.69205 21.5279 9.69205H22.7297C23.1804 9.69205 23.5667 9.81146 23.91 10.0712C24.3183 10.3705 24.5541 10.7896 24.5541 11.2886C24.5756 11.987 24.2108 12.5256 23.5237 12.8248C23.3094 12.9047 23.0735 12.9647 22.8371 12.9647H18.8456H17.4294C17.3435 12.9647 17.3005 12.9647 17.2361 12.9847C17.1506 13.0046 17.0862 13.0846 17.0862 13.164C17.0862 13.2639 17.1716 13.3239 17.2575 13.3438H17.3865H17.408H19.4682H24.7685C25.3911 13.3438 25.8848 13.6031 26.2281 14.0822C26.6358 14.6807 26.6573 15.2996 26.2496 15.8981Z" fill="#3B342D"/>
<path d="M40.4061 22.128C39.6061 22.128 38.9021 21.9733 38.2941 21.664C37.6861 21.344 37.2168 20.896 36.8861 20.32C36.5555 19.744 36.3901 19.0827 36.3901 18.336V14.464C36.3901 13.7067 36.5555 13.0453 36.8861 12.48C37.2168 11.904 37.6861 11.4613 38.2941 11.152C38.9021 10.832 39.6061 10.672 40.4061 10.672C41.1955 10.672 41.8888 10.8267 42.4861 11.136C43.0941 11.4453 43.5635 11.8667 43.8941 12.4C44.2248 12.9333 44.3901 13.536 44.3901 14.208V14.272C44.3901 14.4427 44.3048 14.528 44.1341 14.528H42.8061C42.7315 14.528 42.6675 14.5173 42.6141 14.496C42.5715 14.464 42.5501 14.4267 42.5501 14.384V14.256C42.5501 13.68 42.3528 13.2053 41.9581 12.832C41.5741 12.4587 41.0568 12.272 40.4061 12.272C39.7555 12.272 39.2328 12.4693 38.8381 12.864C38.4435 13.248 38.2461 13.76 38.2461 14.4V18.4C38.2461 19.04 38.4541 19.5573 38.8701 19.952C39.2861 20.336 39.8248 20.528 40.4861 20.528C41.1261 20.528 41.6275 20.3627 41.9901 20.032C42.3635 19.6907 42.5501 19.2267 42.5501 18.64V17.664C42.5501 17.6 42.5181 17.568 42.4541 17.568H40.5661C40.3955 17.568 40.3101 17.4827 40.3101 17.312V16.256C40.3101 16.0853 40.3955 16 40.5661 16H44.1341C44.3048 16 44.3901 16.0853 44.3901 16.256V18.24C44.3901 19.4667 44.0275 20.4213 43.3021 21.104C42.5875 21.7867 41.6221 22.128 40.4061 22.128ZM50.2853 22.128C49.4959 22.128 48.7973 21.9733 48.1893 21.664C47.5813 21.3547 47.1066 20.9173 46.7653 20.352C46.4346 19.776 46.2693 19.1147 46.2693 18.368V11.056C46.2693 10.8853 46.3546 10.8 46.5253 10.8H47.8693C48.0399 10.8 48.1253 10.8853 48.1253 11.056V18.4C48.1253 19.0293 48.3226 19.5413 48.7173 19.936C49.1119 20.3307 49.6346 20.528 50.2853 20.528C50.9359 20.528 51.4586 20.3307 51.8533 19.936C52.2479 19.5413 52.4453 19.0293 52.4453 18.4V11.056C52.4453 10.8853 52.5306 10.8 52.7013 10.8H54.0453C54.2159 10.8 54.3013 10.8853 54.3013 11.056V18.368C54.3013 19.1147 54.1359 19.776 53.8053 20.352C53.4746 20.9173 53.0053 21.3547 52.3973 21.664C51.7893 21.9733 51.0853 22.128 50.2853 22.128ZM63.8331 10.8C64.0038 10.8 64.0891 10.8853 64.0891 11.056V12.16C64.0891 12.3307 64.0038 12.416 63.8331 12.416H60.9691C60.9051 12.416 60.8731 12.448 60.8731 12.512V21.744C60.8731 21.9147 60.7878 22 60.6171 22H59.2731C59.1025 22 59.0171 21.9147 59.0171 21.744V12.512C59.0171 12.448 58.9851 12.416 58.9211 12.416H56.1691C55.9985 12.416 55.9131 12.3307 55.9131 12.16V11.056C55.9131 10.8853 55.9985 10.8 56.1691 10.8H63.8331ZM75.1019 11.056C75.1019 10.8853 75.1872 10.8 75.3579 10.8H76.7019C76.8726 10.8 76.9579 10.8853 76.9579 11.056V21.744C76.9579 21.9147 76.8726 22 76.7019 22H75.3579C75.1872 22 75.1019 21.9147 75.1019 21.744V17.248C75.1019 17.184 75.0699 17.152 75.0059 17.152H70.9579C70.8939 17.152 70.8619 17.184 70.8619 17.248V21.744C70.8619 21.9147 70.7766 22 70.6059 22H69.2619C69.0912 22 69.0059 21.9147 69.0059 21.744V11.056C69.0059 10.8853 69.0912 10.8 69.2619 10.8H70.6059C70.7766 10.8 70.8619 10.8853 70.8619 11.056V15.456C70.8619 15.52 70.8939 15.552 70.9579 15.552H75.0059C75.0699 15.552 75.1019 15.52 75.1019 15.456V11.056ZM86.7774 12.144C86.7774 12.3147 86.6921 12.4 86.5214 12.4H81.1454C81.0814 12.4 81.0494 12.432 81.0494 12.496V15.456C81.0494 15.52 81.0814 15.552 81.1454 15.552H84.7294C84.9001 15.552 84.9854 15.6373 84.9854 15.808V16.896C84.9854 17.0667 84.9001 17.152 84.7294 17.152H81.1454C81.0814 17.152 81.0494 17.184 81.0494 17.248V20.304C81.0494 20.368 81.0814 20.4 81.1454 20.4H86.5214C86.6921 20.4 86.7774 20.4853 86.7774 20.656V21.744C86.7774 21.9147 86.6921 22 86.5214 22H79.4494C79.2787 22 79.1934 21.9147 79.1934 21.744V11.056C79.1934 10.8853 79.2787 10.8 79.4494 10.8H86.5214C86.6921 10.8 86.7774 10.8853 86.7774 11.056V12.144ZM95.6701 22C95.5208 22 95.4248 21.9307 95.3821 21.792L94.8861 20.144C94.8755 20.0907 94.8381 20.064 94.7741 20.064H90.5821C90.5181 20.064 90.4808 20.0907 90.4701 20.144L89.9741 21.792C89.9315 21.9307 89.8355 22 89.6861 22H88.2301C88.1448 22 88.0808 21.9733 88.0381 21.92C88.0061 21.8667 88.0008 21.7973 88.0221 21.712L91.4461 11.008C91.4888 10.8693 91.5848 10.8 91.7341 10.8H93.6061C93.7555 10.8 93.8515 10.8693 93.8941 11.008L97.3341 21.712C97.3448 21.7333 97.3501 21.7653 97.3501 21.808C97.3501 21.936 97.2755 22 97.1261 22H95.6701ZM90.9661 18.496C90.9555 18.5707 90.9821 18.608 91.0461 18.608H94.3101C94.3741 18.608 94.4008 18.5707 94.3901 18.496L92.7421 13.056C92.7315 13.0133 92.7101 12.992 92.6781 12.992C92.6568 12.992 92.6355 13.0133 92.6141 13.056L90.9661 18.496ZM99.2931 22C99.1225 22 99.0371 21.9147 99.0371 21.744V11.056C99.0371 10.8853 99.1225 10.8 99.2931 10.8H100.637C100.808 10.8 100.893 10.8853 100.893 11.056V20.304C100.893 20.368 100.925 20.4 100.989 20.4H106.269C106.44 20.4 106.525 20.4853 106.525 20.656V21.744C106.525 21.9147 106.44 22 106.269 22H99.2931ZM114.771 10.8C114.941 10.8 115.027 10.8853 115.027 11.056V12.16C115.027 12.3307 114.941 12.416 114.771 12.416H111.907C111.843 12.416 111.811 12.448 111.811 12.512V21.744C111.811 21.9147 111.725 22 111.555 22H110.211C110.04 22 109.955 21.9147 109.955 21.744V12.512C109.955 12.448 109.923 12.416 109.859 12.416H107.107C106.936 12.416 106.851 12.3307 106.851 12.16V11.056C106.851 10.8853 106.936 10.8 107.107 10.8H114.771ZM122.836 11.056C122.836 10.8853 122.922 10.8 123.092 10.8H124.436C124.607 10.8 124.692 10.8853 124.692 11.056V21.744C124.692 21.9147 124.607 22 124.436 22H123.092C122.922 22 122.836 21.9147 122.836 21.744V17.248C122.836 17.184 122.804 17.152 122.74 17.152H118.692C118.628 17.152 118.596 17.184 118.596 17.248V21.744C118.596 21.9147 118.511 22 118.34 22H116.996C116.826 22 116.74 21.9147 116.74 21.744V11.056C116.74 10.8853 116.826 10.8 116.996 10.8H118.34C118.511 10.8 118.596 10.8853 118.596 11.056V15.456C118.596 15.52 118.628 15.552 118.692 15.552H122.74C122.804 15.552 122.836 15.52 122.836 15.456V11.056Z" fill="#3B342D"/>
</svg>
