<svg width="66" height="67" viewBox="0 0 66 67" fill="none" xmlns="http://www.w3.org/2000/svg">
<path fill-rule="evenodd" clip-rule="evenodd" d="M11.5693 41.6002C11.5693 41.0922 11.5269 39.9484 11.9082 38.6349C12.1836 37.6607 12.6922 36.6227 13.9208 34.8861C14.7467 33.7213 15.0856 33.3615 15.361 32.6414C15.5302 32.1963 15.5936 31.8365 15.5936 30.9467V29.464C15.5936 29.1671 15.6999 27.9814 14.4712 27.9814C14.1539 27.9814 13.9208 28.0662 13.815 28.1296C13.3699 28.3626 13.3274 28.7648 13.3274 29.2095V31.6024H11.5059V29.3367C11.5059 29.1885 11.4845 28.7015 11.5903 28.2568C12.0569 26.4348 14.069 26.5197 14.4503 26.5197C15.2547 26.5197 16.1021 26.6045 16.7164 27.1759C17.3517 27.7478 17.3941 28.5108 17.4151 28.8073C17.4575 29.3158 17.4575 29.8238 17.4575 30.3323C17.4575 31.7511 17.4151 32.3235 17.1611 33.0227C16.928 33.636 16.3985 34.4833 15.5302 35.7335C15.2972 36.0728 14.0481 37.6817 13.6239 39.3335C13.582 39.5247 13.539 39.7153 13.5181 39.9274H17.5428V41.6002H11.5693Z" fill="#443B32"/>
<path fill-rule="evenodd" clip-rule="evenodd" d="M24.8479 40.1813C24.3189 41.8546 22.4545 41.7913 22.0732 41.7913C21.904 41.7913 21.4809 41.7913 21.0357 41.7059C20.7812 41.6425 19.7227 41.3885 19.32 40.4568C19.1299 40.0331 19.1299 39.6519 19.1299 39.2072V37.0039H20.9085V39.0805C20.9085 39.4617 20.9723 39.8425 21.3112 40.0755C21.5018 40.2238 21.7558 40.2871 21.9889 40.2871C22.2429 40.2871 22.5393 40.2238 22.7509 40.0755C23.2175 39.7582 23.1756 39.1438 23.1756 38.6777V33.8695C23.1756 33.4667 23.1541 32.6199 22.0308 32.6199C21.3746 32.6199 21.0781 32.8948 20.9509 33.1494C20.8665 33.319 20.8032 33.5306 20.8032 33.9328V34.2507H19.2357V26.7317H24.5729V28.4474H20.8875V31.6672C21.1839 31.4127 21.6919 31.0529 22.6451 31.0529C23.6197 31.0529 24.531 31.3917 24.8479 32.3868C24.9542 32.6838 24.9966 32.8948 24.9966 33.4667V38.9951C24.9966 39.1863 25.0176 39.6728 24.8479 40.1813Z" fill="#443B32"/>
<path fill-rule="evenodd" clip-rule="evenodd" d="M31.4971 35.331V41.6005H29.3577V35.3525L27.0916 26.6472H29.1037L30.4805 32.6197L31.9847 26.6472H33.9758L31.4971 35.331Z" fill="#443B32"/>
<path fill-rule="evenodd" clip-rule="evenodd" d="M34.949 41.6002V26.647H39.8835V28.5109H36.9396V32.895H39.5656V34.7589H36.9611V39.7154H39.8835V41.6002H34.949Z" fill="#443B32"/>
<path fill-rule="evenodd" clip-rule="evenodd" d="M43.6735 29.2525L42.8481 37.0255H44.6266L43.6735 29.2525ZM45.2622 41.6002L44.881 38.847H42.6363L42.2974 41.6002H40.3696L42.4881 26.647H44.881L47.1895 41.6002H45.2622Z" fill="#443B32"/>
<path fill-rule="evenodd" clip-rule="evenodd" d="M52.0814 29.8239C52.0814 29.4002 52.0609 29.1038 52.039 28.9561C52.0175 28.8283 51.9546 28.6382 51.8698 28.5748C51.764 28.4895 51.5728 28.4476 51.2345 28.4476H50.1541V32.8741H51.0224C51.9122 32.8741 52.0814 32.6201 52.0814 31.2856V29.8239ZM52.4418 41.6002L50.79 34.6745H50.1328V41.6002H48.1636V26.647H51.7856C52.5476 26.647 53.1195 26.8371 53.4589 27.1759C53.903 27.6211 54.0512 28.193 54.0512 29.5484V31.7512C54.0512 33.5727 53.7334 34.166 52.6325 34.4415L54.4545 41.6002H52.4418Z" fill="#443B32"/>
<path fill-rule="evenodd" clip-rule="evenodd" d="M27.4043 20.8241C26.5666 20.8241 25.9319 20.2527 25.9319 19.4043V16.6797H26.5554V19.3751C26.5554 19.9235 26.8902 20.2639 27.4043 20.2639C27.918 20.2639 28.2583 19.9235 28.2583 19.3751V16.6797H28.8819V19.4043C28.8819 20.2527 28.2415 20.8241 27.4043 20.8241Z" fill="#443B32"/>
<path fill-rule="evenodd" clip-rule="evenodd" d="M30.9843 17.2393H30.0838V18.6075H30.9843C31.4177 18.6075 31.7121 18.3591 31.7121 17.9262C31.7121 17.4928 31.4177 17.2393 30.9843 17.2393ZM31.019 19.1728H30.0837V20.7893H29.4607V16.6792H31.019C31.8214 16.6792 32.335 17.2102 32.335 17.9262C32.335 18.6418 31.8214 19.1728 31.019 19.1728Z" fill="#443B32"/>
<path fill-rule="evenodd" clip-rule="evenodd" d="M35.0048 17.2393V20.7893H34.3813V17.2393H33.2493V16.6792H36.1359V17.2393H35.0048Z" fill="#443B32"/>
<path fill-rule="evenodd" clip-rule="evenodd" d="M38.2389 17.4584C38.0948 17.3026 37.8694 17.2044 37.6272 17.2044C37.3844 17.2044 37.1595 17.3026 37.0144 17.4584C36.8125 17.6777 36.7726 17.9092 36.7726 18.7341C36.7726 19.5595 36.8125 19.79 37.0144 20.0098C37.1595 20.1662 37.3844 20.2638 37.6272 20.2638C37.8694 20.2638 38.0948 20.1662 38.2389 20.0098C38.4413 19.79 38.4812 19.5595 38.4812 18.7341C38.4812 17.9092 38.4413 17.6777 38.2389 17.4584ZM38.712 20.3854C38.4289 20.668 38.065 20.8239 37.627 20.8239C37.1875 20.8239 36.8297 20.668 36.5466 20.3854C36.1428 19.9817 36.1489 19.5247 36.1489 18.7341C36.1489 17.9429 36.1428 17.4876 36.5466 17.0833C36.8297 16.8007 37.1875 16.6443 37.627 16.6443C38.065 16.6443 38.4289 16.8007 38.712 17.0833C39.1158 17.4876 39.104 17.9429 39.104 18.7341C39.104 19.5247 39.1158 19.9817 38.712 20.3854Z" fill="#443B32"/>
<path fill-rule="evenodd" clip-rule="evenodd" d="M20.1784 51.8207C19.561 51.8207 19.1174 51.6766 18.7239 51.278L19.1399 50.8681C19.4399 51.1686 19.7685 51.2601 20.1902 51.2601C20.7273 51.2601 21.0386 51.0296 21.0386 50.6315C21.0386 50.4521 20.987 50.3023 20.8766 50.2042C20.7733 50.1061 20.6691 50.0652 20.4263 50.0314L19.9423 49.9614C19.607 49.9154 19.3418 49.7999 19.1634 49.6328C18.961 49.4427 18.8624 49.1825 18.8624 48.8478C18.8624 48.1318 19.3822 47.6411 20.2367 47.6411C20.7795 47.6411 21.1597 47.7801 21.5123 48.1088L21.1137 48.5013C20.8602 48.2585 20.5658 48.1844 20.2188 48.1844C19.7348 48.1844 19.4685 48.4609 19.4685 48.8248C19.4685 48.975 19.5145 49.1069 19.6249 49.2055C19.7282 49.298 19.8963 49.367 20.0859 49.3962L20.5541 49.4657C20.9348 49.5234 21.1485 49.6154 21.3212 49.7713C21.5471 49.9676 21.6565 50.2619 21.6565 50.6141C21.6565 51.3705 21.0386 51.8207 20.1784 51.8207Z" fill="#443B32"/>
<path fill-rule="evenodd" clip-rule="evenodd" d="M24.3537 51.7859V49.991H22.685V51.7859H22.0625V47.6763H22.685V49.4308H24.3537V47.6763H24.9772V51.7859H24.3537Z" fill="#443B32"/>
<path fill-rule="evenodd" clip-rule="evenodd" d="M25.6206 51.7859V47.6763H28.2471V48.2359H26.2436V49.4364H27.9527V49.991H26.2436V51.2263H28.2471V51.7859H25.6206Z" fill="#443B32"/>
<path fill-rule="evenodd" clip-rule="evenodd" d="M28.6704 51.7859V47.6763H29.2934V51.2263H31.2734V51.7859H28.6704Z" fill="#443B32"/>
<path fill-rule="evenodd" clip-rule="evenodd" d="M32.1753 48.2359V49.4886H33.8843V50.0487H32.1753V51.7859H31.5518V47.6763H34.1787V48.2359H32.1753Z" fill="#443B32"/>
<path fill-rule="evenodd" clip-rule="evenodd" d="M35.4492 51.7859V47.6763H36.0738V51.2263H38.0537V51.7859H35.4492Z" fill="#443B32"/>
<path fill-rule="evenodd" clip-rule="evenodd" d="M38.3315 51.7859H38.9561V47.6763H38.3315V51.7859Z" fill="#443B32"/>
<path fill-rule="evenodd" clip-rule="evenodd" d="M40.2204 48.2359V49.4886H41.9295V50.0487H40.2204V51.7859H39.5969V47.6763H42.2239V48.2359H40.2204Z" fill="#443B32"/>
<path fill-rule="evenodd" clip-rule="evenodd" d="M42.542 51.7859V47.6763H45.169V48.2359H43.1665V49.4364H44.8741V49.991H43.1665V51.2263H45.169V51.7859H42.542Z" fill="#443B32"/>
<path fill-rule="evenodd" clip-rule="evenodd" d="M32.7736 6.67293C17.5755 6.67293 5.21141 19.0365 5.21141 34.2341C5.21141 49.4311 17.5755 61.7952 32.7736 61.7952C47.9706 61.7952 60.3342 49.4311 60.3342 34.2341C60.3342 19.0365 47.9706 6.67293 32.7736 6.67293ZM32.7732 62.6288C17.1152 62.6288 4.37695 49.8911 4.37695 34.2341C4.37695 18.5771 17.1152 5.83936 32.7732 5.83936C48.4302 5.83936 61.168 18.5771 61.168 34.2341C61.168 49.8911 48.4302 62.6288 32.7732 62.6288Z" fill="#443B32"/>
<path fill-rule="evenodd" clip-rule="evenodd" d="M32.7732 62.629C17.1151 62.629 4.3769 49.8907 4.3769 34.2337C4.3769 18.5772 17.1151 5.83949 32.7732 5.83949C48.4302 5.83949 61.1679 18.5772 61.1679 34.2337C61.1679 49.8907 48.4302 62.629 32.7732 62.629ZM63.6916 37.7775C63.7576 37.2271 64.1475 36.6767 64.56 36.0935C65.0358 35.4199 65.5295 34.7218 65.5295 33.9638C65.5295 33.2039 65.0358 32.5073 64.56 31.8326C64.1475 31.251 63.7596 30.7011 63.6921 30.1512C63.6247 29.5818 63.891 28.9103 64.1475 28.2637C64.447 27.5048 64.7567 26.7187 64.5845 26.0037C64.4072 25.2698 63.7652 24.7138 63.1443 24.1792C62.6051 23.7131 62.0945 23.2705 61.8998 22.7492C61.7015 22.2156 61.7986 21.5047 61.8942 20.8152C62.0061 20.0031 62.1221 19.1619 61.7827 18.5036C61.4373 17.8407 60.686 17.4605 59.9587 17.091C59.3505 16.7823 58.7219 16.4639 58.405 16.0008C58.0866 15.5342 58.0145 14.8223 57.9466 14.1318C57.8638 13.3135 57.7764 12.4682 57.2903 11.9091C56.8033 11.3505 55.983 11.1639 55.1934 10.982C54.5274 10.8282 53.84 10.6702 53.4225 10.2956C53.0064 9.91996 52.7708 9.24635 52.5419 8.59728C52.2669 7.81941 51.9848 7.01701 51.3802 6.59128C50.8798 6.2417 50.2215 6.19264 49.5832 6.19264C49.4335 6.19264 49.2806 6.19519 49.1299 6.19877C48.9817 6.20081 48.8304 6.20286 48.6832 6.20286C48.1741 6.20286 47.6472 6.17321 47.245 5.95958C46.7544 5.69842 46.3854 5.13112 45.9928 4.52906C45.5421 3.84063 45.079 3.12512 44.388 2.85986C44.1765 2.77911 43.9444 2.73823 43.6812 2.73823C43.1809 2.73823 42.6401 2.88542 42.1168 3.02699C41.6175 3.16294 41.0992 3.30297 40.6428 3.30297C40.4895 3.30297 40.352 3.28713 40.2237 3.25493C39.6892 3.12256 39.198 2.66361 38.6792 2.17706C38.0777 1.61589 37.4542 1.03632 36.7136 0.946371C36.6467 0.937171 36.5792 0.933594 36.5112 0.933594C35.8596 0.933594 35.2008 1.30157 34.562 1.65729C33.9579 1.9946 33.3338 2.34418 32.765 2.34418C32.1962 2.34418 31.5711 1.9946 30.968 1.65729C30.3307 1.30157 29.6714 0.933594 29.0177 0.933594C28.9508 0.933594 28.8838 0.937171 28.8169 0.946371C28.0763 1.03632 27.4554 1.61589 26.8533 2.17706C26.3315 2.66361 25.8388 3.12256 25.3078 3.25493C25.1785 3.28713 25.0405 3.30297 24.8877 3.30297C24.4318 3.30297 23.9161 3.16294 23.4142 3.02699C22.8909 2.88542 22.3496 2.73925 21.8483 2.73925C21.5866 2.73925 21.3551 2.77911 21.145 2.85986C20.4505 3.12512 19.9859 3.84012 19.5382 4.52906C19.1462 5.13112 18.7751 5.69842 18.2865 5.95856C17.8838 6.17321 17.3579 6.20286 16.8453 6.20286C16.6996 6.20286 16.5514 6.20081 16.4012 6.19877C16.2504 6.19519 16.0971 6.19264 15.9473 6.19264C15.3115 6.19264 14.6497 6.2417 14.1519 6.59128C13.5468 7.01701 13.2631 7.8189 12.9897 8.59728C12.7612 9.24635 12.5241 9.91996 12.1065 10.2956C11.691 10.6697 11.0031 10.8282 10.3387 10.9805C9.54754 11.1639 8.72878 11.3495 8.24172 11.9091C7.75466 12.4672 7.66777 13.3135 7.586 14.1318C7.51394 14.8223 7.44341 15.5332 7.12551 16.0008C6.81018 16.4639 6.17899 16.7823 5.57285 17.091C4.84506 17.4605 4.09275 17.8407 3.7493 18.5036C3.40841 19.1619 3.52494 20.0031 3.63584 20.8152C3.7309 21.5047 3.82852 22.2156 3.63073 22.7486C3.43652 23.2705 2.92646 23.7131 2.38727 24.1792C1.76426 24.7138 1.12438 25.2698 0.947547 26.0037C0.773268 26.7187 1.08196 27.5048 1.38401 28.2653C1.6416 28.9113 1.90583 29.5818 1.83734 30.1512C1.77397 30.7011 1.38401 31.251 0.97259 31.8326C0.49575 32.5073 0 33.2039 0 33.9638C0 34.7218 0.49575 35.4199 0.97259 36.0935C1.38401 36.6767 1.77397 37.2271 1.83734 37.7775C1.90583 38.3469 1.6416 39.0164 1.38401 39.664C1.08196 40.4234 0.773268 41.2069 0.947547 41.9235C1.12438 42.6569 1.76426 43.2109 2.38727 43.749C2.92646 44.2162 3.43652 44.6583 3.63073 45.1796C3.82852 45.7121 3.7309 46.424 3.63584 47.1125C3.52494 47.9246 3.40841 48.7653 3.7493 49.4215C4.09224 50.0865 4.84506 50.4672 5.57285 50.8372C6.17899 51.1444 6.81018 51.4643 7.12551 51.9274C7.44341 52.3925 7.51394 53.1054 7.58498 53.7954C7.66777 54.6126 7.75466 55.459 8.2407 56.0176C8.72878 56.5767 9.54651 56.7643 10.3387 56.9457C11.0031 57.099 11.691 57.2575 12.1065 57.6321C12.5236 58.0072 12.7602 58.6793 12.9897 59.3314C13.2631 60.1078 13.5442 60.9112 14.1509 61.3364C14.6497 61.6865 15.3115 61.7351 15.9473 61.7351C16.0971 61.7351 16.2504 61.7315 16.4012 61.7289C16.5514 61.7264 16.6996 61.7243 16.8453 61.7243C17.3579 61.7243 17.8838 61.754 18.2855 61.9676C18.7751 62.2293 19.1462 62.7971 19.5377 63.3991C19.9854 64.0876 20.4494 64.8 21.1435 65.0673C21.3551 65.1496 21.5846 65.1884 21.8483 65.1884C22.3496 65.1884 22.8909 65.0428 23.4142 64.8997C23.9161 64.7658 24.4318 64.6237 24.8877 64.6237C25.0405 64.6237 25.1785 64.6411 25.3078 64.6723C25.8388 64.8051 26.3315 65.2641 26.8533 65.7506C27.4554 66.3108 28.0763 66.8914 28.8169 66.9818C28.8838 66.9905 28.9508 66.9936 29.0177 66.9936C29.6714 66.9936 30.3312 66.6256 30.968 66.2699C31.5711 65.9336 32.1962 65.584 32.765 65.584C33.3338 65.584 33.9579 65.9336 34.562 66.2689C35.2008 66.6256 35.8596 66.9936 36.5133 66.9936C36.5792 66.9936 36.6472 66.9905 36.7136 66.9818C37.4542 66.8914 38.0777 66.3108 38.6792 65.7506C39.198 65.2641 39.6892 64.8051 40.2237 64.6723C40.352 64.6411 40.4895 64.6237 40.6428 64.6237C41.0992 64.6237 41.6154 64.7658 42.1168 64.8997C42.6401 65.0428 43.1809 65.1884 43.6812 65.1884C43.9444 65.1884 44.1765 65.1496 44.387 65.0673C45.079 64.8 45.5421 64.0886 45.9918 63.3991C46.3848 62.7971 46.7544 62.2293 47.245 61.9681C47.6472 61.754 48.1741 61.7243 48.6832 61.7243C48.8304 61.7243 48.9801 61.7264 49.1288 61.7289C49.2806 61.7335 49.4335 61.7351 49.5832 61.7351C50.2215 61.7351 50.8788 61.687 51.3797 61.3364C51.9848 60.9112 52.2669 60.1098 52.5419 59.3314C52.7688 58.6803 53.0064 58.0072 53.4225 57.6321C53.839 57.2585 54.5274 57.0995 55.1913 56.9467C55.983 56.7663 56.8022 56.5772 57.2888 56.0176C57.7748 55.4605 57.8622 54.6141 57.9466 53.7954C58.0145 53.1054 58.0861 52.3935 58.405 51.9274C58.7198 51.4654 59.3505 51.1449 59.9587 50.8372C60.686 50.4672 61.4372 50.0865 61.7807 49.4231C62.1216 48.7668 62.0061 47.9251 61.8942 47.1125C61.7986 46.424 61.7015 45.7121 61.8988 45.1796C62.0945 44.6583 62.6051 44.2162 63.1443 43.7501C63.7652 43.2129 64.4072 42.6579 64.5845 41.9235C64.7567 41.2069 64.447 40.4229 64.1455 39.6629C63.891 39.0164 63.6247 38.3469 63.6916 37.7775Z" fill="#443B32"/>
<path fill-rule="evenodd" clip-rule="evenodd" d="M57.8974 34.2345C57.8974 48.0874 46.6265 59.3583 32.7731 59.3583C18.9186 59.3583 7.64824 48.0874 7.64824 34.2345C7.64824 20.3811 18.9186 9.11018 32.7731 9.11018C46.6265 9.11018 57.8974 20.3811 57.8974 34.2345ZM32.7728 8.26733C18.4543 8.26733 6.80518 19.9159 6.80518 34.2344C6.80518 48.5524 18.4543 60.2005 32.7728 60.2005C47.0908 60.2005 58.7388 48.5524 58.7388 34.2344C58.7388 19.9159 47.0908 8.26733 32.7728 8.26733Z" fill="#443B32"/>
<path fill-rule="evenodd" clip-rule="evenodd" d="M9.25903 24.1076H56.1544V23.1846H9.25903V24.1076Z" fill="#443B32"/>
<path fill-rule="evenodd" clip-rule="evenodd" d="M9.25903 45.091H56.1544V44.168H9.25903V45.091Z" fill="#443B32"/>
</svg>
