<svg width="60" height="62" viewBox="0 0 60 62" fill="none" xmlns="http://www.w3.org/2000/svg">
<path fill-rule="evenodd" clip-rule="evenodd" d="M10.3698 38.864C10.3698 38.3318 10.3257 37.1342 10.7225 35.7595C11.0093 34.7395 11.5393 33.6532 12.8182 31.8345C13.6785 30.6156 14.0312 30.2385 14.318 29.4848C14.4947 29.0183 14.5606 28.6418 14.5606 27.7106V26.1583C14.5606 25.8475 14.6713 24.6061 13.3918 24.6061C13.0608 24.6061 12.8182 24.6949 12.7081 24.7612C12.2447 25.0051 12.2011 25.4266 12.2011 25.8919V28.3973H10.3039V26.0251C10.3039 25.87 10.2815 25.3597 10.3916 24.8944C10.8774 22.9869 12.9725 23.0763 13.3694 23.0763C14.2073 23.0763 15.09 23.1645 15.7295 23.7631C16.3913 24.3622 16.4355 25.1602 16.4573 25.4704C16.5014 26.0032 16.5014 26.5348 16.5014 27.0677C16.5014 28.553 16.4573 29.1521 16.1929 29.8838C15.9497 30.5262 15.3991 31.4136 14.4947 32.7219C14.2515 33.0765 12.9507 34.7614 12.5091 36.4912C12.4649 36.6907 12.4213 36.8903 12.399 37.1123H16.5898V38.864H10.3698Z" fill="#443B32"/>
<path fill-rule="evenodd" clip-rule="evenodd" d="M25.2803 32.3007V38.8643H23.0527V32.3226L20.6926 23.2092H22.7883L24.2216 29.4626L25.7879 23.2092H27.8612L25.2803 32.3007Z" fill="#443B32"/>
<path fill-rule="evenodd" clip-rule="evenodd" d="M28.8743 38.8639V23.2089H34.0131V25.1601H30.947V29.75H33.6822V31.7018H30.9694V36.8902H34.0131V38.8639H28.8743Z" fill="#443B32"/>
<path fill-rule="evenodd" clip-rule="evenodd" d="M37.9599 25.9366L37.1002 34.0743H38.9526L37.9599 25.9366ZM39.6139 38.8637L39.2171 35.9812H36.8794L36.5261 38.8637H34.5193L36.7251 23.2092H39.2171L41.6207 38.8637H39.6139Z" fill="#443B32"/>
<path fill-rule="evenodd" clip-rule="evenodd" d="M46.7153 26.535C46.7153 26.0916 46.6935 25.7814 46.6711 25.6263C46.6487 25.4931 46.5834 25.2936 46.495 25.2273C46.3843 25.1378 46.1859 25.0934 45.8332 25.0934H44.7085V29.7283H45.6117C46.5392 29.7283 46.7153 29.4625 46.7153 28.0653V26.535ZM47.0902 38.8642L45.3702 31.6133H44.6859V38.8642H42.635V23.2091H46.4065C47.2009 23.2091 47.7956 23.4086 48.1489 23.7632C48.6123 24.2291 48.766 24.8277 48.766 26.2467V28.5532C48.766 30.46 48.4351 31.081 47.2886 31.3694L49.1859 38.8642H47.0902Z" fill="#443B32"/>
<path fill-rule="evenodd" clip-rule="evenodd" d="M25.0052 18.6711C24.2392 18.6711 23.6584 18.1456 23.6584 17.3652V14.8599H24.229V17.3385C24.229 17.8433 24.5351 18.156 25.0052 18.156C25.4752 18.156 25.7862 17.8433 25.7862 17.3385V14.8599H26.3567V17.3652C26.3567 18.1456 25.7711 18.6711 25.0052 18.6711Z" fill="#443B32"/>
<path fill-rule="evenodd" clip-rule="evenodd" d="M28.2798 15.3747H27.4564V16.6331H28.2798C28.6761 16.6331 28.9453 16.4044 28.9453 16.0066C28.9453 15.6082 28.6761 15.3747 28.2798 15.3747ZM28.312 17.1526H27.4565V18.6391H26.886V14.8601H28.312C29.0458 14.8601 29.5153 15.3485 29.5153 16.0067C29.5153 16.6642 29.0458 17.1526 28.312 17.1526Z" fill="#443B32"/>
<path fill-rule="evenodd" clip-rule="evenodd" d="M31.9569 15.3747V18.6391H31.387V15.3747H30.3518V14.8601H32.9914V15.3747H31.9569Z" fill="#443B32"/>
<path fill-rule="evenodd" clip-rule="evenodd" d="M34.9149 15.5765C34.783 15.4329 34.5767 15.3429 34.3553 15.3429C34.1332 15.3429 33.9275 15.4329 33.7956 15.5765C33.6105 15.7778 33.5736 15.9907 33.5736 16.7498C33.5736 17.5083 33.6105 17.7206 33.7956 17.9225C33.9275 18.066 34.1332 18.1561 34.3553 18.1561C34.5767 18.1561 34.783 18.066 34.9149 17.9225C35.1 17.7206 35.1363 17.5083 35.1363 16.7498C35.1363 15.9907 35.1 15.7778 34.9149 15.5765ZM35.348 18.2673C35.0891 18.5276 34.7563 18.6712 34.3552 18.6712C33.9535 18.6712 33.6262 18.5276 33.3679 18.2673C32.9982 17.8962 33.0037 17.4766 33.0037 16.7497C33.0037 16.0222 32.9982 15.6025 33.3679 15.2309C33.6262 14.9712 33.9535 14.8276 34.3552 14.8276C34.7563 14.8276 35.0891 14.9712 35.348 15.2309C35.7171 15.6025 35.7068 16.0222 35.7068 16.7497C35.7068 17.4766 35.7171 17.8962 35.348 18.2673Z" fill="#443B32"/>
<path fill-rule="evenodd" clip-rule="evenodd" d="M18.3965 47.1736C17.8315 47.1736 17.4255 47.041 17.0662 46.6742L17.4467 46.2977C17.7208 46.5739 18.0214 46.6584 18.4074 46.6584C18.8987 46.6584 19.183 46.4461 19.183 46.08C19.183 45.9151 19.1358 45.7777 19.0354 45.687C18.941 45.597 18.8454 45.5599 18.6234 45.5283L18.1806 45.4644C17.8738 45.4218 17.6312 45.3154 17.4679 45.1615C17.2834 44.9863 17.1926 44.7479 17.1926 44.4401C17.1926 43.7814 17.6681 43.3307 18.4498 43.3307C18.9459 43.3307 19.2944 43.4578 19.6168 43.7607L19.252 44.1214C19.0197 43.8982 18.7511 43.8295 18.4334 43.8295C17.9906 43.8295 17.7474 44.0843 17.7474 44.4188C17.7474 44.5563 17.7897 44.6786 17.8902 44.7686C17.9845 44.8537 18.1388 44.9176 18.3124 44.9444L18.7402 45.0076C19.0887 45.0612 19.2841 45.1457 19.442 45.2892C19.6483 45.4693 19.7481 45.7406 19.7481 46.0642C19.7481 46.7594 19.183 47.1736 18.3965 47.1736Z" fill="#443B32"/>
<path fill-rule="evenodd" clip-rule="evenodd" d="M22.2157 47.1416V45.4908H20.6893V47.1416H20.1194V43.3625H20.6893V44.9756H22.2157V43.3625H22.7856V47.1416H22.2157Z" fill="#443B32"/>
<path fill-rule="evenodd" clip-rule="evenodd" d="M23.3738 47.1416V43.3625H25.7762V43.8771H23.9437V44.9817H25.507V45.4908H23.9437V46.627H25.7762V47.1416H23.3738Z" fill="#443B32"/>
<path fill-rule="evenodd" clip-rule="evenodd" d="M26.1628 47.1416V43.3625H26.7327V46.627H28.5435V47.1416H26.1628Z" fill="#443B32"/>
<path fill-rule="evenodd" clip-rule="evenodd" d="M29.3692 43.877V45.029H30.9325V45.5436H29.3692V47.1415H28.7993V43.3624H31.2011V43.877H29.3692Z" fill="#443B32"/>
<path fill-rule="evenodd" clip-rule="evenodd" d="M32.3638 47.1416V43.3625H32.9349V46.627H34.7456V47.1416H32.3638Z" fill="#443B32"/>
<mask id="mask0_1743_672" style="mask-type:luminance" maskUnits="userSpaceOnUse" x="0" y="0" width="60" height="62">
<path fill-rule="evenodd" clip-rule="evenodd" d="M0 61.0656H59.8163V0.440918H0V61.0656Z" fill="white"/>
</mask>
<g mask="url(#mask0_1743_672)">
<path fill-rule="evenodd" clip-rule="evenodd" d="M35.0001 47.1415H35.5712V43.3624H35.0001V47.1415Z" fill="#443B32"/>
<path fill-rule="evenodd" clip-rule="evenodd" d="M36.7274 43.877V45.029H38.2907V45.5436H36.7274V47.1415H36.1575V43.3624H38.5599V43.877H36.7274Z" fill="#443B32"/>
<path fill-rule="evenodd" clip-rule="evenodd" d="M38.8511 47.1416V43.3625H41.2535V43.8771H39.4222V44.9817H40.9843V45.4908H39.4222V46.627H41.2535V47.1416H38.8511Z" fill="#443B32"/>
<path fill-rule="evenodd" clip-rule="evenodd" d="M29.9157 5.65876C16.0153 5.65876 4.7068 17.0275 4.7068 31.002C4.7068 44.9765 16.0153 56.3452 29.9157 56.3452C43.8154 56.3452 55.1233 44.9765 55.1233 31.002C55.1233 17.0275 43.8154 5.65876 29.9157 5.65876ZM29.9157 57.1122C15.5949 57.1122 3.94458 45.3992 3.94458 31.002C3.94458 16.6047 15.5949 4.89233 29.9157 4.89233C44.2359 4.89233 55.8863 16.6047 55.8863 31.002C55.8863 45.3992 44.2359 57.1122 29.9157 57.1122Z" fill="#443B32"/>
<path fill-rule="evenodd" clip-rule="evenodd" d="M29.9157 57.0599C15.6233 57.0599 3.99531 45.37 3.99531 31.0014C3.99531 16.6327 15.6233 4.94283 29.9157 4.94283C44.2074 4.94283 55.8348 16.6327 55.8348 31.0014C55.8348 45.37 44.2074 57.0599 29.9157 57.0599ZM58.1387 34.2538C58.1992 33.7483 58.5543 33.2429 58.9312 32.7082C59.3656 32.0896 59.8163 31.4491 59.8163 30.7539C59.8163 30.0563 59.3656 29.417 58.9312 28.7978C58.5543 28.2644 58.201 27.7595 58.1393 27.2547C58.0776 26.7316 58.3208 26.116 58.5543 25.5224C58.8278 24.8259 59.1109 24.1045 58.9536 23.4482C58.7921 22.7749 58.2058 22.2652 57.6389 21.7737C57.1471 21.3468 56.6806 20.9404 56.5034 20.4618C56.3219 19.9721 56.4108 19.3201 56.4985 18.6869C56.6002 17.9412 56.706 17.1693 56.3957 16.5659C56.0805 15.9571 55.395 15.6079 54.7313 15.2691C54.176 14.9857 53.6024 14.6937 53.3126 14.268C53.0222 13.8404 52.9563 13.1871 52.894 12.5533C52.819 11.8027 52.7391 11.0266 52.2956 10.5133C51.8504 10.0005 51.102 9.82959 50.3814 9.66293C49.7734 9.5212 49.146 9.37644 48.7649 9.03278C48.385 8.68851 48.1702 8.06993 47.9609 7.47445C47.7098 6.76037 47.4527 6.02439 46.9009 5.63329C46.4435 5.31213 45.8428 5.26773 45.2602 5.26773C45.1234 5.26773 44.9837 5.26955 44.8464 5.27259C44.7114 5.27503 44.5729 5.27685 44.4386 5.27685C43.9739 5.27685 43.493 5.24948 43.1264 5.05363C42.6781 4.81398 42.3411 4.29332 41.9829 3.74103C41.5715 3.10845 41.1492 2.45215 40.5176 2.20885C40.3252 2.13404 40.1135 2.09754 39.8727 2.09754C39.4165 2.09754 38.9223 2.23196 38.4449 2.36213C37.9888 2.48743 37.5163 2.61516 37.1 2.61516C36.959 2.61516 36.8338 2.60056 36.7171 2.57137C36.2288 2.45033 35.7805 2.02881 35.3068 1.58236C34.7581 1.06717 34.1888 0.535563 33.513 0.452841C33.4519 0.444325 33.3902 0.441284 33.3285 0.441284C32.7332 0.441284 32.1318 0.778862 31.5492 1.10549C30.9974 1.41509 30.4275 1.73564 29.9085 1.73564C29.3894 1.73564 28.8189 1.41509 28.2683 1.10549C27.6863 0.778862 27.0843 0.441284 26.4878 0.441284C26.4267 0.441284 26.3656 0.444325 26.3045 0.452841C25.6281 0.535563 25.0613 1.06717 24.5125 1.58236C24.0358 2.02881 23.5857 2.45033 23.1011 2.57137C22.9831 2.60056 22.8579 2.61516 22.7181 2.61516C22.3013 2.61516 21.8312 2.48743 21.3726 2.36213C20.8953 2.23196 20.4016 2.09815 19.9436 2.09815C19.7046 2.09815 19.4935 2.13404 19.3017 2.20885C18.6677 2.45215 18.2436 3.10784 17.8346 3.74103C17.4771 4.29332 17.1383 4.81398 16.6924 5.05302C16.3251 5.24948 15.8448 5.27685 15.3771 5.27685C15.2434 5.27685 15.1085 5.27503 14.9712 5.27259C14.8338 5.26955 14.6935 5.26773 14.5567 5.26773C13.9766 5.26773 13.3728 5.31213 12.9184 5.63329C12.3655 6.02439 12.1071 6.75976 11.8573 7.47445C11.6485 8.06993 11.432 8.68851 11.0514 9.03278C10.6715 9.37583 10.0441 9.5212 9.43729 9.6611C8.71493 9.82959 7.96776 9.99989 7.52309 10.5133C7.07903 11.0254 6.99917 11.8027 6.92476 12.5533C6.85942 13.1871 6.79468 13.8392 6.50489 14.268C6.21691 14.6937 5.64035 14.9857 5.08739 15.2691C4.42311 15.6079 3.73583 15.9571 3.42245 16.5659C3.11148 17.1693 3.21796 17.9412 3.31899 18.6869C3.40551 19.3201 3.49505 19.9721 3.31476 20.4611C3.13689 20.9404 2.67165 21.3468 2.17919 21.7737C1.61049 22.2652 1.02667 22.7749 0.865141 23.4482C0.706027 24.1045 0.987954 24.8259 1.26383 25.5236C1.49857 26.1166 1.73996 26.7316 1.67704 27.2547C1.61957 27.7595 1.26383 28.2644 0.88813 28.7978C0.452535 29.417 0 30.0563 0 30.7539C0 31.4491 0.452535 32.0896 0.88813 32.7082C1.26383 33.2429 1.61957 33.7483 1.67704 34.2538C1.73996 34.7762 1.49857 35.3906 1.26383 35.9848C0.987954 36.6819 0.706027 37.4002 0.865141 38.0584C1.02667 38.7311 1.61049 39.2396 2.17919 39.7335C2.67165 40.1623 3.13689 40.568 3.31476 41.0467C3.49505 41.5351 3.40551 42.1884 3.31899 42.8203C3.21796 43.5654 3.11148 44.3373 3.42245 44.9395C3.73523 45.5495 4.42311 45.8993 5.08739 46.2387C5.64035 46.5209 6.21691 46.8147 6.50489 47.2386C6.79468 47.6656 6.85942 48.3201 6.92355 48.9533C6.99917 49.7039 7.07903 50.48 7.52249 50.9927C7.96776 51.5061 8.71433 51.6782 9.43729 51.8449C10.0441 51.9854 10.6715 52.1308 11.0514 52.4744C11.432 52.8187 11.6479 53.4361 11.8573 54.034C12.1071 54.7468 12.3636 55.4834 12.9172 55.8739C13.3728 56.1957 13.9766 56.2401 14.5567 56.2401C14.6935 56.2401 14.8338 56.237 14.9712 56.2346C15.1085 56.2322 15.2434 56.2298 15.3771 56.2298C15.8448 56.2298 16.3251 56.2571 16.6918 56.453C17.1383 56.6932 17.4771 57.2145 17.834 57.7668C18.243 58.3988 18.6665 59.0526 19.3005 59.2984C19.4935 59.3732 19.7028 59.4091 19.9436 59.4091C20.4016 59.4091 20.8953 59.2752 21.3726 59.1439C21.8312 59.021 22.3013 58.8908 22.7181 58.8908C22.8579 58.8908 22.9831 58.9066 23.1011 58.9352C23.5857 59.0575 24.0358 59.4784 24.5125 59.9255C25.0613 60.4388 25.6281 60.9716 26.3045 61.055C26.3656 61.0629 26.4267 61.0659 26.4878 61.0659C27.0843 61.0659 27.6869 60.7284 28.2683 60.4017C28.8189 60.0927 29.3894 59.7722 29.9085 59.7722C30.4275 59.7722 30.9974 60.0927 31.5492 60.4005C32.1318 60.7283 32.7332 61.0659 33.3297 61.0659C33.3902 61.0659 33.4525 61.0629 33.513 61.055C34.1888 60.9716 34.7581 60.4388 35.3068 59.9255C35.7805 59.4784 36.2288 59.0575 36.7171 58.9352C36.8338 58.9066 36.959 58.8908 37.1 58.8908C37.5156 58.8908 37.9869 59.021 38.4449 59.1439C38.9223 59.2752 39.4165 59.4091 39.8727 59.4091C40.1135 59.4091 40.3252 59.3732 40.517 59.2984C41.1492 59.0526 41.5715 58.4 41.9823 57.7668C42.3405 57.2145 42.6781 56.6932 43.1264 56.4536C43.493 56.2571 43.9739 56.2298 44.4386 56.2298C44.5729 56.2298 44.7096 56.2322 44.8457 56.2346C44.9837 56.2383 45.1234 56.2401 45.2602 56.2401C45.8428 56.2401 46.4429 56.1957 46.9003 55.8739C47.4527 55.4834 47.7098 54.7481 47.9609 54.034C48.1684 53.4367 48.385 52.8187 48.7649 52.4744C49.1448 52.1314 49.7734 51.9854 50.3796 51.8455C51.102 51.6801 51.8498 51.5061 52.2938 50.9927C52.7379 50.4818 52.8171 49.7051 52.894 48.9533C52.9563 48.3201 53.0222 47.6668 53.3126 47.2386C53.6 46.8153 54.176 46.5209 54.7313 46.2387C55.395 45.8993 56.0805 45.5495 56.3939 44.9413C56.7054 44.3385 56.6002 43.566 56.4985 42.8203C56.4108 42.1884 56.3219 41.5351 56.5022 41.0467C56.6806 40.568 57.1471 40.1623 57.6389 39.7347C58.2058 39.2414 58.7921 38.7323 58.9536 38.0584C59.1109 37.4002 58.8277 36.6813 58.5531 35.9842C58.3208 35.3906 58.0776 34.7762 58.1387 34.2538Z" fill="#443B32"/>
<path fill-rule="evenodd" clip-rule="evenodd" d="M52.9822 31.0021C52.9822 43.7893 42.6344 54.1927 29.9157 54.1927C17.1963 54.1927 6.84846 43.7893 6.84846 31.0021C6.84846 18.2149 17.1963 7.81143 29.9157 7.81143C42.6344 7.81143 52.9822 18.2149 52.9822 31.0021ZM29.9158 7.03406C16.7699 7.03406 6.07544 17.786 6.07544 31.0021C6.07544 44.2181 16.7699 54.97 29.9158 54.97C43.0611 54.97 53.7556 44.2181 53.7556 31.0021C53.7556 17.786 43.0611 7.03406 29.9158 7.03406Z" fill="#443B32"/>
<path fill-rule="evenodd" clip-rule="evenodd" d="M8.40991 21.6901H51.3009V20.8416H8.40991V21.6901Z" fill="#443B32"/>
<path fill-rule="evenodd" clip-rule="evenodd" d="M8.40991 40.9855H51.3009V40.137H8.40991V40.9855Z" fill="#443B32"/>
</g>
</svg>
