<svg width="60" height="62" viewBox="0 0 60 62" fill="none" xmlns="http://www.w3.org/2000/svg">
<mask id="mask0_1743_643" style="mask-type:luminance" maskUnits="userSpaceOnUse" x="0" y="0" width="60" height="62">
<path fill-rule="evenodd" clip-rule="evenodd" d="M0 0.816284H59.8163V61.4409H0V0.816284Z" fill="white"/>
</mask>
<g mask="url(#mask0_1743_643)">
<path fill-rule="evenodd" clip-rule="evenodd" d="M29.9157 57.4353C15.6233 57.4353 3.99594 45.7453 3.99594 31.3766C3.99594 17.0079 15.6233 5.31799 29.9157 5.31799C44.2074 5.31799 55.8348 17.0079 55.8348 31.3766C55.8348 45.7453 44.2074 57.4353 29.9157 57.4353ZM58.1387 34.6289C58.1992 34.1234 58.5543 33.6186 58.9312 33.0833C59.3656 32.4647 59.8163 31.8243 59.8163 31.129C59.8163 30.4314 59.3656 29.7921 58.9312 29.1729C58.5543 28.6395 58.201 28.1346 58.1393 27.6298C58.0776 27.1067 58.3208 26.4911 58.5543 25.8975C58.8278 25.201 59.1109 24.4796 58.9536 23.8233C58.7921 23.15 58.2058 22.6403 57.6389 22.1488C57.1471 21.7218 56.6812 21.3155 56.5034 20.8368C56.3219 20.3472 56.4108 19.6951 56.4985 19.062C56.6002 18.3162 56.706 17.5444 56.3963 16.941C56.0811 16.3321 55.395 15.983 54.7313 15.6442C54.176 15.3608 53.6024 15.0688 53.3132 14.643C53.0222 14.2154 52.9563 13.5622 52.8946 12.929C52.819 12.1778 52.7391 11.4017 52.2956 10.8883C51.8504 10.3755 51.102 10.2046 50.3814 10.038C49.7734 9.89624 49.146 9.75148 48.7649 9.40781C48.3856 9.06355 48.1702 8.44495 47.9609 7.84948C47.7098 7.13539 47.4527 6.39941 46.9009 6.00831C46.4435 5.68715 45.8428 5.64275 45.2602 5.64275C45.1234 5.64275 44.9843 5.64518 44.8464 5.64761C44.7114 5.65005 44.5729 5.65187 44.4386 5.65187C43.9739 5.65187 43.493 5.6245 43.1264 5.42864C42.6781 5.18899 42.3411 4.66833 41.9829 4.11604C41.5715 3.48346 41.1492 2.82716 40.5176 2.58386C40.3252 2.50904 40.1135 2.47255 39.8727 2.47255C39.4165 2.47255 38.9229 2.60697 38.4455 2.73714C37.9888 2.86244 37.5163 2.99017 37.1 2.99017C36.959 2.99017 36.8338 2.97557 36.7171 2.94638C36.2294 2.82533 35.7805 2.40382 35.3068 1.95736C34.7575 1.44217 34.1888 0.910563 33.513 0.827841C33.4519 0.819325 33.3902 0.816284 33.3285 0.816284C32.7332 0.816284 32.1318 1.15386 31.5492 1.48049C30.9974 1.78948 30.4275 2.11064 29.9085 2.11064C29.3894 2.11064 28.8189 1.78948 28.2677 1.48049C27.6863 1.15386 27.0843 0.816284 26.4878 0.816284C26.4267 0.816284 26.3656 0.819325 26.3045 0.827841C25.6281 0.910563 25.0613 1.44217 24.5125 1.95736C24.0358 2.40382 23.5863 2.82533 23.1011 2.94638C22.9831 2.97557 22.8579 2.99017 22.7181 2.99017C22.3013 2.99017 21.8312 2.86244 21.3726 2.73714C20.8953 2.60697 20.4016 2.47316 19.9436 2.47316C19.7046 2.47316 19.4935 2.50904 19.3017 2.58386C18.6677 2.82716 18.2436 3.48285 17.8346 4.11604C17.4771 4.66833 17.1383 5.18899 16.6924 5.42804C16.3251 5.6245 15.8448 5.65187 15.3771 5.65187C15.2434 5.65187 15.1085 5.65005 14.9712 5.64761C14.8338 5.64518 14.6935 5.64275 14.5567 5.64275C13.9766 5.64275 13.3728 5.68715 12.9184 6.00831C12.3655 6.39941 12.1071 7.13478 11.8573 7.84948C11.6485 8.44495 11.4326 9.06355 11.0514 9.40781C10.6715 9.75087 10.0441 9.89624 9.43729 10.0361C8.71554 10.2046 7.96776 10.3749 7.52309 10.8883C7.07903 11.4004 6.99917 12.1778 6.92476 12.929C6.85942 13.5622 6.79468 14.2142 6.50489 14.643C6.21691 15.0688 5.64035 15.3608 5.08739 15.6442C4.42311 15.983 3.73583 16.3321 3.42245 16.941C3.11148 17.5444 3.21796 18.3162 3.31899 19.062C3.40611 19.6951 3.49505 20.3472 3.31476 20.8362C3.13689 21.3155 2.67165 21.7218 2.17919 22.1488C1.61049 22.6403 1.02667 23.15 0.865141 23.8233C0.706027 24.4796 0.987954 25.201 1.26383 25.8987C1.49857 26.4917 1.73996 27.1067 1.67704 27.6298C1.61957 28.1346 1.26383 28.6395 0.88813 29.1729C0.452535 29.7921 0 30.4314 0 31.129C0 31.8243 0.452535 32.4647 0.88813 33.0833C1.26383 33.6186 1.61957 34.1234 1.67704 34.6289C1.73996 35.1514 1.49857 35.7651 1.26383 36.36C0.987954 37.057 0.706027 37.7754 0.865141 38.4335C1.02667 39.1062 1.61049 39.6147 2.17919 40.1086C2.67165 40.5374 3.13689 40.9431 3.31476 41.4218C3.49505 41.9109 3.40611 42.5635 3.31899 43.1955C3.21796 43.9406 3.11148 44.7125 3.42245 45.3146C3.73583 45.9253 4.42311 46.2745 5.08739 46.6139C5.64035 46.8961 6.21691 47.1899 6.50489 47.6138C6.79468 48.0408 6.85942 48.6959 6.92355 49.3285C6.99917 50.0791 7.07903 50.8552 7.52249 51.3679C7.96776 51.8813 8.71433 52.0534 9.43729 52.2201C10.0441 52.36 10.6715 52.506 11.0514 52.8496C11.432 53.1939 11.6479 53.8113 11.8573 54.4092C12.1071 55.1221 12.3636 55.8586 12.9172 56.2491C13.3728 56.5709 13.9766 56.6153 14.5567 56.6153C14.6935 56.6153 14.8338 56.6123 14.9712 56.6098C15.1085 56.6074 15.2434 56.6056 15.3771 56.6056C15.8448 56.6056 16.3251 56.6323 16.6918 56.8282C17.1383 57.0685 17.4771 57.5897 17.8346 58.142C18.243 58.7746 18.6665 59.4279 19.3005 59.6736C19.4935 59.7484 19.7028 59.7843 19.9436 59.7843C20.4016 59.7843 20.8953 59.6505 21.3726 59.5197C21.8312 59.3962 22.3013 59.2661 22.7181 59.2661C22.8579 59.2661 22.9831 59.2819 23.1011 59.3105C23.5863 59.4327 24.0358 59.8542 24.5125 60.3007C25.0613 60.8141 25.6281 61.3469 26.3045 61.4302C26.3656 61.4381 26.4267 61.4412 26.4878 61.4412C27.0843 61.4412 27.6869 61.1036 28.2677 60.777C28.8189 60.468 29.3894 60.1474 29.9085 60.1474C30.4275 60.1474 30.9974 60.468 31.5492 60.7757C32.1318 61.1036 32.7332 61.4412 33.3297 61.4412C33.3902 61.4412 33.4525 61.4381 33.513 61.4302C34.1888 61.3469 34.7575 60.8141 35.3068 60.3007C35.7805 59.8542 36.2294 59.4327 36.7171 59.3105C36.8338 59.2819 36.959 59.2661 37.1 59.2661C37.5156 59.2661 37.9875 59.3962 38.4455 59.5197C38.9229 59.6505 39.4165 59.7843 39.8727 59.7843C40.1135 59.7843 40.3252 59.7484 40.517 59.6736C41.1492 59.4279 41.5715 58.7752 41.9823 58.142C42.3405 57.5897 42.6781 57.0685 43.1264 56.8288C43.493 56.6323 43.9739 56.6056 44.4386 56.6056C44.5729 56.6056 44.7096 56.6074 44.8457 56.6098C44.9843 56.6135 45.1234 56.6153 45.2602 56.6153C45.8428 56.6153 46.4429 56.5709 46.9003 56.2491C47.4527 55.8586 47.7098 55.1233 47.9609 54.4092C48.1684 53.8119 48.3856 53.1939 48.7649 52.8496C49.1448 52.5066 49.7734 52.3606 50.3796 52.2207C51.102 52.0553 51.8498 51.8813 52.2938 51.3679C52.7379 50.8564 52.8171 50.0803 52.8946 49.3285C52.9563 48.6959 53.0222 48.042 53.3132 47.6138C53.6 47.1905 54.176 46.8967 54.7313 46.6139C55.395 46.2745 56.0811 45.9253 56.3939 45.3165C56.7054 44.7137 56.6002 43.9412 56.4985 43.1955C56.4108 42.5635 56.3219 41.9109 56.5022 41.4218C56.6812 40.9431 57.1471 40.5374 57.6389 40.1098C58.2058 39.6172 58.7921 39.1074 58.9536 38.4335C59.1109 37.7754 58.8277 37.0564 58.5531 36.3594C58.3208 35.7651 58.0776 35.1514 58.1387 34.6289Z" fill="#443B32"/>
</g>
<path fill-rule="evenodd" clip-rule="evenodd" d="M20.8589 36.743C20.6387 36.743 20.4578 37.1092 20.4578 37.5532C20.4578 37.9979 20.6368 38.3579 20.8571 38.3579L20.8589 38.35C21.0791 38.35 21.2582 37.9918 21.2582 37.5478C21.2582 37.1031 21.0791 36.743 20.8589 36.743Z" fill="#443B32"/>
<path fill-rule="evenodd" clip-rule="evenodd" d="M22.4554 39.1604C22.2352 39.1604 22.0562 39.5205 22.0562 39.9651C22.0562 40.4091 22.2334 40.7692 22.4554 40.7692L22.4573 40.7613C22.6793 40.7613 22.8541 40.4091 22.8547 39.9651C22.8547 39.5205 22.6757 39.1604 22.4554 39.1604Z" fill="#443B32"/>
<path fill-rule="evenodd" clip-rule="evenodd" d="M24.0541 36.7489C23.8339 36.7489 23.6548 37.109 23.6548 37.5536C23.6548 37.9976 23.8339 38.3577 24.0541 38.3577L24.0577 38.3498C24.2779 38.3498 24.4528 37.9976 24.4534 37.5536C24.4534 37.109 24.2743 36.7489 24.0541 36.7489Z" fill="#443B32"/>
<path fill-rule="evenodd" clip-rule="evenodd" d="M20.8589 41.5581C20.6387 41.5581 20.4578 41.9322 20.4578 42.3762C20.4578 42.8208 20.6368 43.1809 20.8571 43.1809L20.8589 43.173C21.0791 43.173 21.2582 42.8068 21.2582 42.3628C21.2582 41.9182 21.0791 41.5581 20.8589 41.5581Z" fill="#443B32"/>
<path fill-rule="evenodd" clip-rule="evenodd" d="M22.4554 34.3375C22.2352 34.3375 22.0562 34.6976 22.0562 35.1422C22.0562 35.5863 22.2334 35.9463 22.4554 35.9463L22.4573 35.9384C22.6793 35.9384 22.8541 35.5863 22.8547 35.1422C22.8547 34.6976 22.6757 34.3375 22.4554 34.3375Z" fill="#443B32"/>
<path fill-rule="evenodd" clip-rule="evenodd" d="M17.6605 36.7411C17.4403 36.7411 17.2612 37.1012 17.2612 37.5458C17.2612 37.9898 17.4385 38.3499 17.6605 38.3499C17.8826 38.3499 18.0592 37.9898 18.0598 37.5458C18.0598 37.1012 17.8807 36.7411 17.6605 36.7411Z" fill="#443B32"/>
<path fill-rule="evenodd" clip-rule="evenodd" d="M16.0624 34.3298C15.8422 34.3298 15.6631 34.6899 15.6631 35.1345C15.6631 35.5786 15.8422 35.9387 16.0624 35.9387C16.2826 35.9387 16.4611 35.5786 16.4611 35.1345C16.4611 34.6899 16.2826 34.3298 16.0624 34.3298Z" fill="#443B32"/>
<path fill-rule="evenodd" clip-rule="evenodd" d="M19.2589 34.3298C19.0387 34.3298 18.8596 34.6899 18.8596 35.1345C18.8596 35.5786 19.0387 35.9387 19.2589 35.9387H19.2607C19.4809 35.9387 19.6576 35.5786 19.6582 35.1345C19.6582 34.6899 19.4791 34.3298 19.2589 34.3298Z" fill="#443B32"/>
<path fill-rule="evenodd" clip-rule="evenodd" d="M19.2589 39.1525C19.0387 39.1525 18.8596 39.5125 18.8596 39.9572C18.8596 40.4012 19.0387 40.7613 19.2589 40.7613H19.2607C19.4809 40.7613 19.6576 40.4012 19.6582 39.9572C19.6582 39.5125 19.4791 39.1525 19.2589 39.1525Z" fill="#443B32"/>
<path fill-rule="evenodd" clip-rule="evenodd" d="M36.5309 32.893C36.5302 32.7367 36.4679 32.5871 36.3572 32.477C36.2453 32.3687 36.0959 32.3085 35.941 32.3085C35.7855 32.3085 35.6367 32.3687 35.5247 32.477C35.4225 32.5877 35.3662 32.7336 35.3675 32.8851C35.3693 33.0359 35.428 33.1807 35.5326 33.2896L35.5247 33.3097C35.6367 33.4204 35.7873 33.483 35.9446 33.483C36.1001 33.4836 36.2495 33.4216 36.3596 33.3109C36.4697 33.1996 36.5315 33.0493 36.5309 32.893Z" fill="#443B32"/>
<path fill-rule="evenodd" clip-rule="evenodd" d="M46.5484 36.1672C45.944 36.9129 45.0292 37.079 44.0165 36.6842C42.5385 37.4744 40.8887 37.8819 39.2153 37.8685C36.7245 37.8618 34.3051 37.0291 32.3328 35.5C29.0822 32.9824 27.7906 29.2125 28.7997 25.1591C28.3998 24.6293 28.2401 23.9542 28.3599 23.3003C26.6483 22.6014 24.7559 22.4238 22.4321 22.7359C22.3117 22.7517 22.1907 22.7158 22.0982 22.6367C22.0074 22.5601 21.953 22.4482 21.9493 22.3289L21.8665 20.995C21.8556 20.7888 21.9209 20.5857 22.0498 20.4257C22.1786 20.2651 22.3626 20.1587 22.5652 20.1265C23.7704 19.9337 25.4746 20.5212 27.2763 21.3898C25.8395 19.1204 25.9653 16.168 27.669 14.2337C27.7083 14.2033 27.7567 14.1863 27.8063 14.1863C27.8589 14.1869 27.9091 14.2064 27.9479 14.2416C29.271 15.5524 29.954 16.9733 29.9105 18.3425C29.8869 19.5778 29.3139 20.7657 28.1953 21.8594L28.9806 22.2541C29.6527 21.7645 30.5136 21.6185 31.3086 21.8594C35.6621 19.4045 40.1609 21.003 42.9251 23.3234C46.1642 26.0429 47.5381 29.8992 46.4346 33.1911C47.1062 34.2883 47.1528 35.4215 46.5484 36.1672ZM22.6537 44.5726C22.1129 44.9029 21.4916 45.0774 20.8581 45.0774C20.2247 45.0774 19.6034 44.9029 19.0625 44.5726C17.0491 43.3159 14.0628 39.4073 14.0628 36.7432C14.0628 34.0797 15.4077 32.4684 17.429 31.6953C18.1423 31.4277 18.8877 31.2556 19.6463 31.1844C19.7649 31.1728 19.8859 31.1534 20.0081 31.1534C20.287 31.1333 20.5708 31.1236 20.8593 31.1236C21.1473 31.1236 21.4317 31.1333 21.71 31.1534C21.8322 31.1613 21.9532 31.171 22.0717 31.1844C22.8304 31.2531 23.577 31.4222 24.2915 31.6874C26.3103 32.4684 27.6534 34.0967 27.6534 36.7432C27.6534 39.3897 24.6672 43.3117 22.6537 44.5726ZM16.541 26.3421C16.541 26.3421 18.1939 26.8531 19.2121 28.1036C19.6446 26.6043 20.8595 25.5088 20.8595 25.5088C20.8595 25.5088 22.0737 26.6043 22.5081 28.1213C23.5263 26.8628 25.1791 26.3598 25.1791 26.3598C25.1791 26.3598 26.1271 28.5914 25.288 30.4016C25.0993 30.7933 24.844 31.1497 24.5348 31.4545L24.4005 31.3997L24.346 31.3803C23.6594 31.1297 22.9449 30.9642 22.2183 30.8888L22.0991 30.8754C21.9769 30.8639 21.8541 30.8438 21.7337 30.8438C21.4451 30.8243 21.1378 30.8146 20.8613 30.8146C20.5848 30.8146 20.3065 30.8243 20.0318 30.842H19.9889C19.8703 30.8499 19.7499 30.8596 19.6307 30.8736H19.615L19.4964 30.887C18.7704 30.9636 18.0565 31.1303 17.3705 31.3821L17.3178 31.4016L17.1835 31.4563C16.8744 31.151 16.6191 30.7939 16.4303 30.4016C15.5912 28.5817 16.541 26.3421 16.541 26.3421ZM29.9081 7.16028C16.7417 7.16028 6.06836 17.891 6.06836 31.1284C6.06836 44.3657 16.7417 55.0965 29.9081 55.0965C43.0746 55.0965 53.7479 44.3657 53.7479 31.1284C53.7479 17.891 43.0746 7.16028 29.9081 7.16028Z" fill="#443B32"/>
<path fill-rule="evenodd" clip-rule="evenodd" d="M39.0675 33.5009C39.0675 33.3428 39.0045 33.1919 38.8932 33.0806C38.7807 32.9742 38.6319 32.9152 38.477 32.9152C38.3227 32.9152 38.1739 32.9742 38.0607 33.0806C37.9512 33.1925 37.8901 33.344 37.8901 33.5009C37.8901 33.6578 37.9512 33.8093 38.0607 33.9212L38.0529 33.9528C38.1666 34.0611 38.3167 34.1213 38.4734 34.1225C38.6343 34.1152 38.7861 34.0429 38.8932 33.9212C39.0045 33.8099 39.0675 33.6584 39.0675 33.5009Z" fill="#443B32"/>
<path fill-rule="evenodd" clip-rule="evenodd" d="M40.7979 33.7055C40.6 33.7615 40.4458 33.9166 40.3901 34.1155C40.3344 34.3144 40.3865 34.5279 40.5262 34.6793H40.5456C40.6569 34.7919 40.8081 34.8545 40.9661 34.8527C41.1143 34.8496 41.2558 34.787 41.3587 34.6793C41.47 34.5686 41.5323 34.4178 41.5323 34.2609C41.5323 34.1033 41.47 33.9531 41.3587 33.8424C41.208 33.7019 40.9957 33.6496 40.7979 33.7055Z" fill="#443B32"/>
<path fill-rule="evenodd" clip-rule="evenodd" d="M39.1596 35.2961C38.9999 35.2931 38.8456 35.3557 38.7331 35.4695C38.6199 35.5832 38.5576 35.7377 38.5607 35.8983C38.5631 36.0589 38.6308 36.2115 38.7476 36.321C38.8595 36.4323 39.0108 36.495 39.1681 36.495C39.3229 36.4956 39.4718 36.4329 39.5801 36.321C39.6914 36.2103 39.7537 36.0601 39.7537 35.9026C39.7537 35.7456 39.6914 35.5948 39.5801 35.4847C39.4712 35.3667 39.3193 35.2992 39.1596 35.2961Z" fill="#443B32"/>
<path fill-rule="evenodd" clip-rule="evenodd" d="M36.6784 34.4317C36.5187 34.4287 36.3644 34.4914 36.2519 34.6051C36.1387 34.7188 36.0764 34.8733 36.0795 35.0339C36.0819 35.1945 36.1496 35.3472 36.2664 35.4566C36.3789 35.5667 36.5302 35.6276 36.6869 35.6263C36.8411 35.6276 36.9894 35.5661 37.0989 35.4566C37.2102 35.3459 37.2725 35.1957 37.2725 35.0382C37.2725 34.8812 37.2102 34.7304 37.0989 34.6203C36.99 34.5023 36.8381 34.4348 36.6784 34.4317Z" fill="#443B32"/>
<path fill-rule="evenodd" clip-rule="evenodd" d="M25.6522 34.3375C25.432 34.3375 25.2529 34.6976 25.2529 35.1422C25.2529 35.5863 25.432 35.9463 25.6522 35.9463L25.6559 35.9384C25.8761 35.9384 26.0509 35.5863 26.0515 35.1422C26.0515 34.6976 25.8724 34.3375 25.6522 34.3375Z" fill="#443B32"/>
</svg>
