<svg width="60" height="60" viewBox="0 0 60 60" fill="none" xmlns="http://www.w3.org/2000/svg">
<mask id="mask0_1770_766" style="mask-type:luminance" maskUnits="userSpaceOnUse" x="0" y="0" width="60" height="60">
<path fill-rule="evenodd" clip-rule="evenodd" d="M0 0H60V60H0V0Z" fill="white"/>
</mask>
<g mask="url(#mask0_1770_766)">
<path fill-rule="evenodd" clip-rule="evenodd" d="M30.0077 55.2787C16.0919 55.2787 4.77143 44.049 4.77143 30.246C4.77143 16.4429 16.0919 5.21319 30.0077 5.21319C43.9224 5.21319 55.2429 16.4429 55.2429 30.246C55.2429 44.049 43.9224 55.2787 30.0077 55.2787ZM58.3182 33.4646C58.3779 32.9648 58.7351 32.4639 59.113 31.935C59.5485 31.3232 60.0002 30.6887 60.0002 30.0004C60.0002 29.3099 59.5485 28.6776 59.113 28.0647C58.7351 27.5369 58.3801 27.037 58.3182 26.5372C58.2563 26.0202 58.5006 25.4105 58.7351 24.8223C59.0088 24.134 59.2933 23.4198 59.1348 22.7703C58.973 22.1035 58.3844 21.5994 57.8165 21.1125C57.3224 20.6903 56.8555 20.2874 56.6774 19.8145C56.4949 19.3298 56.584 18.6845 56.6719 18.0576C56.774 17.3197 56.8804 16.556 56.5699 15.9582C56.2528 15.356 55.5654 15.0102 54.8997 14.6752C54.3427 14.3941 53.7672 14.1054 53.4772 13.6842C53.1851 13.2609 53.1189 12.6146 53.057 11.9877C52.981 11.2444 52.9006 10.4764 52.4565 9.96793C52.0102 9.46057 51.2598 9.29145 50.5366 9.12665C49.9263 8.98661 49.2976 8.84334 48.9154 8.50295C48.5342 8.16256 48.3181 7.54964 48.1085 6.96042C47.8566 6.25379 47.5982 5.52561 47.0454 5.1389C46.5861 4.82113 45.9834 4.77696 45.3992 4.77696C45.2624 4.77696 45.1223 4.77912 44.9844 4.78235C44.8487 4.78342 44.7097 4.78558 44.575 4.78558C44.1092 4.78558 43.627 4.75865 43.2589 4.56476C42.8094 4.32777 42.4716 3.8118 42.1122 3.26567C41.6996 2.63982 41.2761 1.99028 40.6419 1.74899C40.4486 1.67574 40.2369 1.63911 39.9958 1.63911C39.5376 1.63911 39.0424 1.77268 38.5635 1.90087C38.1053 2.02475 37.6318 2.15185 37.2137 2.15185C37.0726 2.15185 36.9477 2.13677 36.8293 2.10769C36.3407 1.98812 35.89 1.57125 35.4155 1.1296C34.8649 0.620094 34.2937 0.0933491 33.6161 0.0114829C33.5543 0.00286535 33.4924 -0.000366211 33.4305 -0.000366211C32.8343 -0.000366211 32.2305 0.333562 31.6463 0.656718C31.0925 0.963717 30.5213 1.28041 30.0001 1.28041C29.48 1.28041 28.9077 0.963717 28.355 0.656718C27.7718 0.333562 27.1681 -0.000366211 26.5698 -0.000366211C26.5079 -0.000366211 26.447 0.00286535 26.3852 0.0114829C25.7076 0.0933491 25.1385 0.620094 24.588 1.1296C24.1091 1.57125 23.6585 1.98812 23.172 2.10769C23.0536 2.13677 22.9277 2.15185 22.7876 2.15185C22.3695 2.15185 21.8982 2.02475 21.4378 1.90087C20.9589 1.77268 20.4638 1.64019 20.0044 1.64019C19.7655 1.64019 19.5538 1.67574 19.3616 1.74899C18.7252 1.99028 18.2996 2.63874 17.8891 3.26567C17.5307 3.8118 17.1909 4.32777 16.7435 4.56368C16.3753 4.75865 15.8932 4.78558 15.4241 4.78558C15.2905 4.78558 15.1548 4.78342 15.0169 4.78235C14.879 4.77912 14.7389 4.77696 14.6021 4.77696C14.0189 4.77696 13.4141 4.82113 12.958 5.1389C12.4031 5.52561 12.1447 6.25379 11.8938 6.96042C11.6843 7.54964 11.4671 8.16256 11.0859 8.50295C10.7048 8.84227 10.075 8.98661 9.46577 9.12557C8.74148 9.29145 7.99221 9.46057 7.54591 9.96793C7.10069 10.4753 7.02033 11.2444 6.9454 11.9877C6.88025 12.6146 6.8151 13.2598 6.52516 13.6842C6.23523 14.1054 5.65753 14.3941 5.10264 14.6752C4.43698 15.0102 3.74743 15.356 3.43252 15.9582C3.12087 16.556 3.22838 17.3197 3.32936 18.0576C3.41624 18.6845 3.50528 19.3298 3.32502 19.8134C3.14585 20.2874 2.67891 20.6903 2.18591 21.1125C1.61582 21.5994 1.02943 22.1035 0.867633 22.7703C0.708006 23.4198 0.990339 24.134 1.26724 24.8245C1.50288 25.4116 1.74504 26.0202 1.68206 26.5372C1.6245 27.037 1.26724 27.5369 0.890436 28.0647C0.453905 28.6776 0 29.3099 0 30.0004C0 30.6887 0.453905 31.3232 0.890436 31.935C1.26724 32.4639 1.6245 32.9648 1.68206 33.4646C1.74504 33.9817 1.50288 34.5892 1.26724 35.1773C0.990339 35.8678 0.708006 36.5788 0.867633 37.2305C1.02943 37.8962 1.61582 38.3992 2.18591 38.8883C2.67891 39.3116 3.14585 39.7134 3.32502 40.1874C3.50528 40.671 3.41624 41.3173 3.32936 41.9432C3.22838 42.68 3.12087 43.4437 3.43252 44.0405C3.74635 44.6448 4.43698 44.9895 5.10264 45.3255C5.65753 45.6056 6.23523 45.8964 6.52516 46.3155C6.8151 46.7388 6.88025 47.3862 6.94432 48.0131C7.02033 48.7553 7.10069 49.5233 7.54591 50.0318C7.99221 50.5391 8.74039 50.7093 9.46577 50.8741C10.075 51.0131 10.7048 51.1574 11.0859 51.4978C11.4671 51.8382 11.6832 52.449 11.8938 53.0414C12.1447 53.747 12.401 54.4762 12.9569 54.8619C13.4141 55.1807 14.0189 55.2238 14.6021 55.2238C14.7389 55.2238 14.879 55.2217 15.0169 55.2195C15.1548 55.2174 15.2905 55.2141 15.4241 55.2141C15.8932 55.2141 16.3753 55.241 16.7435 55.4349C17.1909 55.673 17.5307 56.189 17.8891 56.7351C18.2985 57.361 18.7241 58.0083 19.3594 58.2507C19.5538 58.325 19.7633 58.3606 20.0044 58.3606C20.4638 58.3606 20.9589 58.2281 21.4378 58.0988C21.8982 57.9771 22.3695 57.8478 22.7876 57.8478C22.9277 57.8478 23.0536 57.864 23.172 57.892C23.6585 58.0127 24.1091 58.4295 24.588 58.8722C25.1385 59.3807 25.7076 59.9074 26.3852 59.9893C26.447 59.9979 26.5079 60.0001 26.5698 60.0001C27.1681 60.0001 27.7718 59.6661 28.355 59.343C28.9077 59.0371 29.48 58.7204 30.0001 58.7204C30.5213 58.7204 31.0925 59.0371 31.6463 59.3419C32.2305 59.6661 32.8343 60.0001 33.4326 60.0001C33.4924 60.0001 33.5553 59.9979 33.6161 59.9893C34.2937 59.9074 34.8649 59.3807 35.4155 58.8722C35.89 58.4295 36.3407 58.0127 36.8293 57.892C36.9477 57.864 37.0726 57.8478 37.2137 57.8478C37.6307 57.8478 38.1042 57.9771 38.5635 58.0988C39.0424 58.2281 39.5376 58.3606 39.9958 58.3606C40.2369 58.3606 40.4486 58.325 40.6419 58.2507C41.2761 58.0083 41.6996 57.362 42.1111 56.7351C42.4706 56.189 42.8094 55.673 43.2589 55.436C43.627 55.2411 44.1092 55.2141 44.575 55.2141C44.7097 55.2141 44.8476 55.2174 44.9833 55.2195C45.1223 55.2227 45.2624 55.2238 45.3992 55.2238C45.9834 55.2238 46.5861 55.1807 47.0444 54.8619C47.5982 54.4762 47.8566 53.7481 48.1085 53.0414C48.316 52.4501 48.5342 51.8382 48.9154 51.4978C49.2965 51.1585 49.9263 51.0142 50.5344 50.8752C51.2598 50.7115 52.0091 50.5391 52.4554 50.0318C52.8995 49.5255 52.9799 48.7564 53.057 48.0131C53.1189 47.3862 53.1851 46.7388 53.4772 46.3155C53.765 45.8964 54.3427 45.6056 54.8997 45.3255C55.5654 44.9895 56.2528 44.6448 56.5677 44.0415C56.8804 43.4458 56.774 42.681 56.6719 41.9432C56.584 41.3173 56.4949 40.671 56.6763 40.1874C56.8555 39.7134 57.3224 39.3116 57.8165 38.8883C58.3844 38.4014 58.973 37.8973 59.1348 37.2305C59.2933 36.5788 59.0088 35.8667 58.733 35.1773C58.5006 34.5892 58.2563 33.9817 58.3182 33.4646Z" fill="#443B32"/>
</g>
<path fill-rule="evenodd" clip-rule="evenodd" d="M39.5474 34.9773C39.5474 35.1679 39.4714 35.351 39.3346 35.4868C39.1989 35.6214 39.0143 35.6968 38.8221 35.6968H19.3486C19.1554 35.6968 18.9708 35.6214 18.835 35.4857C18.6982 35.35 18.6222 35.1668 18.6222 34.9751V31.3331C18.6222 31.1425 18.6993 30.9593 18.835 30.8247C18.9708 30.689 19.1554 30.6136 19.3486 30.6136H19.6712V27.2872C19.6712 27.0621 19.7624 26.8456 19.9231 26.6861C20.0838 26.5267 20.301 26.4373 20.529 26.4373H24.3698C24.5968 26.4362 24.8151 26.5256 24.9758 26.6861C25.1376 26.8456 25.2277 27.061 25.2277 27.2872V30.6136H26.3071V27.2872C26.3071 27.0621 26.3972 26.8456 26.5579 26.6861C26.7186 26.5267 26.9369 26.4373 27.1639 26.4373H31.0068C31.2338 26.4373 31.4521 26.5267 31.6128 26.6861C31.7735 26.8456 31.8636 27.0621 31.8636 27.2872V30.6136H32.943V27.2872C32.943 27.0621 33.0331 26.8456 33.1938 26.6861C33.3546 26.5267 33.5728 26.4373 33.8009 26.4373H37.6417C37.8686 26.4373 38.0869 26.5267 38.2476 26.6861C38.4083 26.8456 38.4985 27.0621 38.4985 27.2872V30.6136H38.8221C39.0143 30.6136 39.1989 30.689 39.3346 30.8247C39.4714 30.9593 39.5474 31.1425 39.5474 31.3331V34.9773ZM39.0251 42.3592C39.024 42.5682 38.9404 42.7686 38.7906 42.9172C38.6418 43.0648 38.4398 43.1488 38.2281 43.1488H19.9426C19.7309 43.1488 19.5289 43.0648 19.379 42.9172C19.2303 42.7686 19.1456 42.5682 19.1456 42.3592V36.6523C19.2129 36.6609 19.2802 36.6652 19.3475 36.6652H38.8199C38.8883 36.6652 38.9567 36.6609 39.0251 36.6523V42.3592ZM19.6723 24.3519L22.4511 23.6259L23.752 21.2959L25.0138 20.3124C25.1517 20.4654 25.2277 20.6647 25.2255 20.8693V24.6793C25.2266 24.9045 25.1365 25.121 24.9769 25.2804C24.8162 25.4398 24.599 25.5292 24.3709 25.5292H20.5279C20.301 25.5292 20.0827 25.4398 19.922 25.2804C19.7624 25.121 19.6723 24.9045 19.6723 24.6793V24.3519ZM26.3071 20.8694C26.3071 20.3997 26.6904 20.0195 27.1638 20.0195H31.0057C31.4792 20.0195 31.8625 20.4891 31.8625 20.8694V24.6804C31.8625 25.1501 31.4792 25.5303 31.0057 25.5303H27.1638C26.6904 25.5303 26.3071 25.0607 26.3071 24.6804V20.8694ZM26.3375 18.4899L27.3376 17.7391H29.8124L30.8364 16.0436L31.8614 15.6859V18.2626C31.8614 18.4877 31.7702 18.7042 31.6095 18.8636C31.4488 19.0231 31.2305 19.1135 31.0036 19.1135H27.1638C26.9771 19.1125 26.7946 19.0521 26.6459 18.939C26.496 18.827 26.3885 18.6687 26.3375 18.4899ZM32.9419 20.8694C32.9419 20.3997 33.3263 20.0195 33.7998 20.0195H37.6406C38.114 20.0195 38.4985 20.4891 38.4985 20.8694V24.6804C38.4985 25.1501 38.114 25.5303 37.6406 25.5303H33.7998C33.3263 25.5303 32.9419 25.0607 32.9419 24.6804V20.8694ZM32.943 15.31L33.8703 14.9847L36.8142 15.3671L38.4984 14.4385V18.2625C38.4984 18.4877 38.4072 18.7042 38.2465 18.8636C38.0858 19.023 37.8675 19.1135 37.6406 19.1135H33.8008C33.5728 19.1135 33.3545 19.0241 33.1938 18.8647C33.0331 18.7053 32.943 18.4887 32.943 18.2636V15.31ZM30.0035 6.65796C16.8956 6.65796 6.23535 17.2413 6.23535 30.2441C6.23535 43.2468 16.8956 53.8302 30.0035 53.8302C43.1201 53.8302 53.7803 43.2468 53.7803 30.2441C53.7803 17.2413 43.1201 6.65796 30.0035 6.65796Z" fill="#443B32"/>
</svg>
