<svg width="66" height="67" viewBox="0 0 66 67" fill="none" xmlns="http://www.w3.org/2000/svg">
<path fill-rule="evenodd" clip-rule="evenodd" d="M45.4555 46.878H35.3156L33.6045 33.6818H47.1671L45.4555 46.878ZM27.8808 32.1337L26.1697 18.9376H39.7323L38.0207 32.1337H27.8808ZM30.0965 46.878H19.9567L18.2456 33.6818H31.8082L30.0965 46.878ZM32.7645 6.96045C18.0755 6.96045 6.16724 18.8687 6.16724 33.5582C6.16724 48.2478 18.0755 60.1555 32.7645 60.1555C47.454 60.1555 59.3623 48.2478 59.3623 33.5582C59.3623 18.8687 47.454 6.96045 32.7645 6.96045Z" fill="#443B32"/>
<path fill-rule="evenodd" clip-rule="evenodd" d="M32.7731 62.2234C17.1156 62.2234 4.37734 49.4852 4.37734 33.8282C4.37734 18.1717 17.1156 5.43398 32.7731 5.43398C48.4301 5.43398 61.1683 18.1717 61.1683 33.8282C61.1683 49.4852 48.4301 62.2234 32.7731 62.2234ZM63.6921 37.372C63.7581 36.8216 64.1475 36.2712 64.56 35.688C65.0363 35.0144 65.53 34.3163 65.53 33.5583C65.53 32.7984 65.0363 32.1017 64.56 31.4271C64.1475 30.8455 63.7601 30.2956 63.6927 29.7457C63.6247 29.1763 63.8915 28.5047 64.1475 27.8582C64.447 27.0993 64.7572 26.3132 64.585 25.5982C64.4077 24.8643 63.7652 24.3082 63.1448 23.7737C62.6056 23.3075 62.095 22.8649 61.9003 22.3436C61.7015 21.8101 61.7986 21.0992 61.8947 20.4097C62.0066 19.5976 62.1226 18.7564 61.7827 18.0981C61.4373 17.4352 60.6865 17.055 59.9587 16.6854C59.351 16.3768 58.7224 16.0583 58.405 15.5953C58.0866 15.1287 58.0145 14.4167 57.9466 13.7263C57.8643 12.908 57.7764 12.0627 57.2908 11.5036C56.8038 10.945 55.9835 10.7584 55.1934 10.5765C54.5274 10.4226 53.8405 10.2647 53.423 9.89009C53.0069 9.51444 52.7713 8.84084 52.5424 8.19176C52.2674 7.41389 51.9853 6.61149 51.3807 6.18576C50.8798 5.83618 50.2215 5.78712 49.5832 5.78712C49.434 5.78712 49.2806 5.78967 49.1304 5.79325C48.9822 5.79529 48.8309 5.79734 48.6832 5.79734C48.1741 5.79734 47.6472 5.7677 47.245 5.55406C46.7544 5.2929 46.3859 4.7256 45.9934 4.12354C45.5421 3.43511 45.0795 2.7196 44.388 2.45435C44.1765 2.3736 43.9444 2.33271 43.6817 2.33271C43.1814 2.33271 42.6407 2.4799 42.1173 2.62147C41.6175 2.75742 41.0997 2.89746 40.6433 2.89746C40.49 2.89746 40.352 2.88161 40.2243 2.84941C39.6897 2.71704 39.198 2.25809 38.6798 1.77154C38.0777 1.21037 37.4547 0.630804 36.7141 0.540853C36.6467 0.531654 36.5792 0.528076 36.5117 0.528076C35.8601 0.528076 35.2013 0.896056 34.5625 1.25177C33.9584 1.58908 33.3344 1.93866 32.765 1.93866C32.1967 1.93866 31.5716 1.58908 30.9685 1.25177C30.3312 0.896056 29.6714 0.528076 29.0177 0.528076C28.9508 0.528076 28.8843 0.531654 28.8174 0.540853C28.0768 0.630804 27.4554 1.21037 26.8538 1.77154C26.3315 2.25809 25.8393 2.71704 25.3083 2.84941C25.1785 2.88161 25.041 2.89746 24.8877 2.89746C24.4318 2.89746 23.9166 2.75742 23.4142 2.62147C22.8909 2.4799 22.3502 2.33373 21.8483 2.33373C21.5871 2.33373 21.3556 2.3736 21.1455 2.45435C20.451 2.7196 19.9859 3.4346 19.5382 4.12354C19.1467 4.7256 18.7751 5.2929 18.2865 5.55304C17.8843 5.7677 17.3579 5.79734 16.8458 5.79734C16.6996 5.79734 16.5514 5.79529 16.4017 5.79325C16.2509 5.78967 16.0971 5.78712 15.9473 5.78712C15.3115 5.78712 14.6502 5.83618 14.1524 6.18576C13.5468 6.61149 13.2636 7.41338 12.9897 8.19176C12.7612 8.84084 12.5241 9.51444 12.107 9.89009C11.691 10.2642 11.0031 10.4226 10.3387 10.5749C9.54805 10.7584 8.72878 10.9439 8.24223 11.5036C7.75517 12.0617 7.66777 12.908 7.586 13.7263C7.51445 14.4167 7.44341 15.1277 7.12603 15.5953C6.81069 16.0583 6.1795 16.3768 5.57336 16.6854C4.84558 17.055 4.09275 17.4352 3.74981 18.0981C3.40892 18.7564 3.52545 19.5976 3.63584 20.4097C3.73141 21.0992 3.82903 21.8101 3.63124 22.3431C3.43652 22.8649 2.92697 23.3075 2.38727 23.7737C1.76426 24.3082 1.12438 24.8643 0.947547 25.5982C0.773779 26.3132 1.08247 27.0993 1.38452 27.8598C1.6416 28.5058 1.90583 29.1763 1.83734 29.7457C1.77448 30.2956 1.38452 30.8455 0.973101 31.4271C0.49575 32.1017 0 32.7984 0 33.5583C0 34.3163 0.49575 35.0144 0.973101 35.688C1.38452 36.2712 1.77448 36.8216 1.83734 37.372C1.90583 37.9414 1.6416 38.6109 1.38452 39.2584C1.08247 40.0179 0.773779 40.8014 0.947547 41.5179C1.12438 42.2513 1.76426 42.8053 2.38727 43.3435C2.92697 43.8106 3.43652 44.2527 3.63124 44.774C3.82903 45.3066 3.73141 46.0185 3.63584 46.707C3.52545 47.5191 3.40892 48.3598 3.74981 49.016C4.09275 49.6809 4.84558 50.0617 5.57336 50.4317C6.1795 50.7389 6.81069 51.0588 7.12603 51.5219C7.44341 51.9869 7.51445 52.6999 7.58498 53.3899C7.66777 54.2071 7.75517 55.0534 8.24121 55.6121C8.72878 56.1712 9.54651 56.3587 10.3387 56.5402C11.0031 56.6935 11.691 56.8519 12.107 57.2266C12.5241 57.6017 12.7607 58.2738 12.9897 58.9259C13.2636 59.7023 13.5442 60.5057 14.1509 60.9309C14.6502 61.281 15.3115 61.3295 15.9473 61.3295C16.0971 61.3295 16.2509 61.326 16.4017 61.3234C16.5514 61.3209 16.6996 61.3188 16.8458 61.3188C17.3579 61.3188 17.8843 61.3484 18.286 61.5621C18.7751 61.8238 19.1467 62.3916 19.5382 62.9936C19.9854 63.6821 20.4494 64.3945 21.144 64.6618C21.3556 64.7441 21.5846 64.7829 21.8483 64.7829C22.3502 64.7829 22.8909 64.6373 23.4142 64.4942C23.9166 64.3603 24.4318 64.2182 24.8877 64.2182C25.041 64.2182 25.1785 64.2356 25.3083 64.2667C25.8393 64.3996 26.3315 64.8586 26.8538 65.3451C27.4554 65.9053 28.0768 66.4859 28.8174 66.5763C28.8843 66.585 28.9508 66.5881 29.0177 66.5881C29.6714 66.5881 30.3317 66.2201 30.9685 65.8644C31.5716 65.5281 32.1967 65.1785 32.765 65.1785C33.3344 65.1785 33.9584 65.5281 34.5625 65.8634C35.2013 66.2201 35.8601 66.5881 36.5133 66.5881C36.5792 66.5881 36.6477 66.585 36.7141 66.5763C37.4547 66.4859 38.0777 65.9053 38.6798 65.3451C39.198 64.8586 39.6897 64.3996 40.2243 64.2667C40.352 64.2356 40.49 64.2182 40.6433 64.2182C41.0992 64.2182 41.6159 64.3603 42.1173 64.4942C42.6407 64.6373 43.1814 64.7829 43.6817 64.7829C43.9444 64.7829 44.1765 64.7441 44.3875 64.6618C45.0795 64.3945 45.5421 63.6831 45.9923 62.9936C46.3848 62.3916 46.7544 61.8238 47.245 61.5626C47.6472 61.3484 48.1741 61.3188 48.6832 61.3188C48.8309 61.3188 48.9806 61.3209 49.1294 61.3234C49.2806 61.328 49.434 61.3295 49.5832 61.3295C50.2215 61.3295 50.8793 61.2815 51.3797 60.9309C51.9853 60.5057 52.2674 59.7043 52.5424 58.9259C52.7693 58.2748 53.0069 57.6017 53.423 57.2266C53.8395 56.853 54.5274 56.694 55.1918 56.5412C55.9835 56.3608 56.8027 56.1717 57.2893 55.6121C57.7753 55.055 57.8622 54.2086 57.9466 53.3899C58.0145 52.6999 58.0866 51.988 58.405 51.5219C58.7203 51.0598 59.351 50.7394 59.9587 50.4317C60.6865 50.0617 61.4372 49.6809 61.7807 49.0176C62.1221 48.3613 62.0066 47.5196 61.8947 46.707C61.7986 46.0185 61.7015 45.3066 61.8993 44.774C62.095 44.2527 62.6056 43.8106 63.1448 43.3445C63.7652 42.8074 64.4077 42.2524 64.585 41.5179C64.7572 40.8014 64.447 40.0174 64.146 39.2574C63.8915 38.6109 63.6247 37.9414 63.6921 37.372Z" fill="#443B32"/>
</svg>
