<svg width="151" height="38" viewBox="0 0 151 38" fill="none" xmlns="http://www.w3.org/2000/svg">
<path fill-rule="evenodd" clip-rule="evenodd" d="M31.1957 0.879788H0.75V2.40691L2.48026 2.57629C4.72782 2.91565 5.5937 4.27309 5.93837 7.4976C6.45899 13.6079 6.28514 24.6412 5.93837 29.9007C5.5928 33.1264 4.72872 34.6544 2.48026 34.822L0.75 35.1631V36.5206H20.2971V35.1631L18.2213 34.822C15.9729 34.6532 15.1079 33.1264 14.762 29.9007C14.5882 27.6934 14.4155 24.1286 14.4155 19.7169L18.5672 19.8866C21.1624 19.8866 22.3721 21.9234 22.8915 24.8079H24.4488V12.7609H22.8915C22.3712 15.6464 21.1624 17.6822 18.5672 17.6822L14.4164 17.8528C14.4164 12.0816 14.5894 6.65068 14.7632 3.42617H20.8166C25.4888 3.42617 27.9102 6.31073 29.6393 11.4035L31.3696 10.8939L31.1957 0.879788ZM88.454 35.3334C87.7616 35.3334 86.8958 35.3334 86.3782 35.1649C86.2043 32.7891 86.0326 22.7741 86.2043 13.949C87.2422 13.6087 87.9337 13.4394 88.7996 13.4394C92.6078 13.4394 94.6836 17.8519 94.6836 23.2817C94.6824 30.073 92.0871 35.3334 88.454 35.3334ZM92.4327 10.7233C90.0113 10.7233 88.1093 11.2329 86.2064 12.2504C86.2064 6.81947 86.2064 1.89816 86.3803 0.20166L74.7897 2.23723V3.2556L76.0002 3.42528C77.5557 3.76435 78.0769 4.61215 78.4198 6.64979C78.7684 10.7233 78.5936 32.448 78.4198 36.0127C81.5332 36.692 84.8208 37.2017 88.1084 37.2017C97.2767 37.2017 102.812 31.6001 102.812 22.7741C102.812 15.8161 98.3146 10.7233 92.4327 10.7233Z" fill="white"/>
<mask id="mask0_1741_1833" style="mask-type:luminance" maskUnits="userSpaceOnUse" x="27" y="10" width="124" height="28">
<path fill-rule="evenodd" clip-rule="evenodd" d="M27.8118 10.7729H150.75V37.2015H27.8118V10.7729Z" fill="white"/>
</mask>
<g mask="url(#mask0_1741_1833)">
<path fill-rule="evenodd" clip-rule="evenodd" d="M76.4691 11.5267C73.547 9.86116 68.388 10.693 65.6378 16.6956L65.8085 10.8606L54.2899 13.0275V14.0278L55.4934 14.1945C57.0422 14.362 57.7283 15.1948 57.9011 17.3626C58.2445 21.3637 58.0729 28.3666 57.9011 31.8671C57.7283 33.8657 57.0422 34.8659 55.4934 35.0335L54.2899 35.201V36.5343H70.2793V35.201L68.2161 35.0335C66.4975 34.8659 65.9813 33.8657 65.8085 31.8671C65.465 28.6987 65.465 22.364 65.6378 18.3629C66.4966 17.195 70.2793 16.1959 73.7177 18.3629L76.4691 11.5267ZM149.2 12.1939C147.137 11.3591 144.386 10.8594 141.292 10.8594C134.931 10.8594 130.974 14.5266 130.974 18.8617C130.974 23.1967 133.895 25.0298 138.026 26.3642C142.323 27.8631 143.528 29.0309 143.528 31.0315C143.528 33.032 141.98 34.8651 139.228 34.8651C135.963 34.8651 133.554 33.032 131.664 28.0297L130.459 28.3648L130.632 35.6996C132.695 36.5323 136.477 37.2007 139.745 37.2007C146.451 37.2007 150.75 33.8648 150.75 28.6979C150.75 25.1964 148.857 23.1967 144.387 21.5283C139.572 19.6953 137.854 18.5286 137.854 16.3605C137.854 14.1933 139.404 12.6924 141.467 12.6924C144.56 12.6924 146.623 14.5266 148.173 19.0281L149.376 18.695L149.2 12.1939ZM112.746 21.0298L120.827 20.8623C120.827 17.5284 120.311 12.5269 117.389 12.5269C114.467 12.5269 112.917 17.1942 112.746 21.0298ZM104.838 24.197C104.838 17.3617 109.308 10.8594 118.077 10.8594C125.296 10.8594 128.737 16.0284 128.737 22.8628H112.746C112.574 29.0309 115.668 33.5326 121.859 33.5326C124.61 33.5326 125.985 32.8674 127.706 31.6996L128.392 32.5323C126.672 34.8659 122.89 37.2016 118.077 37.2016C110.34 37.2007 104.838 31.8662 104.838 24.197ZM40.7063 12.5269C36.9233 12.5269 35.8917 17.5284 35.8917 24.0295C35.8917 30.3642 37.6114 35.5323 41.0507 35.5323C45.0026 35.5323 46.036 30.5309 46.036 24.0295C46.036 17.6947 44.3184 12.5269 40.7063 12.5269ZM41.2226 10.8594C49.8199 10.8594 54.1183 16.5281 54.1183 24.0295C54.1183 31.1981 49.3037 37.2016 40.7063 37.2016C32.1099 37.2016 27.8118 31.532 27.8118 24.0295C27.8118 16.8611 32.6252 10.8594 41.2226 10.8594Z" fill="white"/>
</g>
</svg>
