<svg width="60" height="60" viewBox="0 0 60 60" fill="none" xmlns="http://www.w3.org/2000/svg">
<mask id="mask0_1770_781" style="mask-type:luminance" maskUnits="userSpaceOnUse" x="0" y="0" width="60" height="60">
<path fill-rule="evenodd" clip-rule="evenodd" d="M0 0H60V60H0V0Z" fill="white"/>
</mask>
<g mask="url(#mask0_1770_781)">
<path fill-rule="evenodd" clip-rule="evenodd" d="M30.0077 55.2787C16.0919 55.2787 4.77143 44.049 4.77143 30.246C4.77143 16.4429 16.0919 5.21319 30.0077 5.21319C43.9224 5.21319 55.2429 16.4429 55.2429 30.246C55.2429 44.049 43.9224 55.2787 30.0077 55.2787ZM58.3171 33.4646C58.3779 32.9648 58.7351 32.4639 59.113 31.935C59.5485 31.3232 60.0002 30.6887 60.0002 30.0004C60.0002 29.3099 59.5485 28.6776 59.113 28.0647C58.7351 27.5369 58.3801 27.037 58.3182 26.5372C58.2563 26.0202 58.5006 25.4105 58.7351 24.8223C59.0088 24.134 59.2933 23.4198 59.1348 22.7703C58.973 22.1035 58.3844 21.5994 57.8165 21.1125C57.3224 20.6903 56.8555 20.2874 56.6774 19.8145C56.4949 19.3298 56.584 18.6845 56.6719 18.0576C56.774 17.3197 56.8804 16.556 56.5699 15.9582C56.2528 15.356 55.5654 15.0102 54.8997 14.6752C54.3427 14.3941 53.7672 14.1054 53.4772 13.6842C53.1851 13.2609 53.1189 12.6146 53.057 11.9877C52.981 11.2444 52.9006 10.4764 52.4565 9.96793C52.0102 9.46057 51.2598 9.29145 50.5366 9.12665C49.9263 8.98661 49.2976 8.84334 48.9154 8.50295C48.5342 8.16256 48.3181 7.54964 48.1085 6.96042C47.8566 6.25379 47.5982 5.52561 47.0454 5.1389C46.5861 4.82113 45.9834 4.77696 45.3992 4.77696C45.2624 4.77696 45.1223 4.77912 44.9844 4.78235C44.8487 4.78342 44.7097 4.78558 44.575 4.78558C44.1092 4.78558 43.627 4.75865 43.2589 4.56476C42.8094 4.32777 42.4716 3.8118 42.1122 3.26567C41.6996 2.63982 41.2761 1.99028 40.6419 1.74899C40.4486 1.67574 40.2369 1.63911 39.9958 1.63911C39.5376 1.63911 39.0424 1.77268 38.5635 1.90087C38.1053 2.02475 37.6318 2.15185 37.2137 2.15185C37.0726 2.15185 36.9477 2.13677 36.8293 2.10769C36.3407 1.98812 35.89 1.57125 35.4155 1.1296C34.8649 0.620094 34.2937 0.0933491 33.6161 0.0114829C33.5543 0.00286535 33.4924 -0.000366211 33.4305 -0.000366211C32.8343 -0.000366211 32.2305 0.333562 31.6463 0.656718C31.0925 0.963717 30.5213 1.28041 30.0001 1.28041C29.48 1.28041 28.9077 0.963717 28.355 0.656718C27.7718 0.333562 27.1681 -0.000366211 26.5698 -0.000366211C26.5079 -0.000366211 26.447 0.00286535 26.3852 0.0114829C25.7076 0.0933491 25.1385 0.620094 24.588 1.1296C24.1091 1.57125 23.6585 1.98812 23.172 2.10769C23.0536 2.13677 22.9277 2.15185 22.7876 2.15185C22.3695 2.15185 21.8982 2.02475 21.4378 1.90087C20.9589 1.77268 20.4638 1.64019 20.0044 1.64019C19.7655 1.64019 19.5538 1.67574 19.3616 1.74899C18.7252 1.99028 18.2996 2.63874 17.8891 3.26567C17.5307 3.8118 17.1909 4.32777 16.7435 4.56368C16.3753 4.75865 15.8932 4.78558 15.4241 4.78558C15.2905 4.78558 15.1548 4.78342 15.0169 4.78235C14.879 4.77912 14.7389 4.77696 14.6021 4.77696C14.0189 4.77696 13.4141 4.82113 12.958 5.1389C12.4031 5.52561 12.1447 6.25379 11.8938 6.96042C11.6843 7.54964 11.4671 8.16256 11.0859 8.50295C10.7048 8.84227 10.075 8.98661 9.46577 9.12557C8.74148 9.29145 7.99221 9.46057 7.54591 9.96793C7.10069 10.4753 7.02033 11.2444 6.9454 11.9877C6.88025 12.6146 6.8151 13.2598 6.52516 13.6842C6.23523 14.1054 5.65753 14.3941 5.10264 14.6752C4.43698 15.0102 3.74743 15.356 3.43252 15.9582C3.12087 16.556 3.22838 17.3197 3.32936 18.0576C3.41624 18.6845 3.50528 19.3298 3.32502 19.8134C3.14585 20.2874 2.67891 20.6903 2.18591 21.1125C1.61582 21.5994 1.02943 22.1035 0.867633 22.7703C0.708006 23.4198 0.990339 24.134 1.26724 24.8245C1.50288 25.4116 1.74504 26.0202 1.68206 26.5372C1.6245 27.037 1.26724 27.5369 0.890436 28.0647C0.453905 28.6776 0 29.3099 0 30.0004C0 30.6887 0.453905 31.3232 0.890436 31.935C1.26724 32.4639 1.6245 32.9648 1.68206 33.4646C1.74504 33.9817 1.50288 34.5892 1.26724 35.1773C0.990339 35.8678 0.708006 36.5788 0.867633 37.2305C1.02943 37.8962 1.61582 38.3992 2.18591 38.8883C2.67891 39.3116 3.14585 39.7134 3.32502 40.1874C3.50528 40.671 3.41624 41.3173 3.32936 41.9432C3.22838 42.68 3.12087 43.4437 3.43252 44.0405C3.74635 44.6448 4.43698 44.9895 5.10264 45.3255C5.65753 45.6056 6.23523 45.8964 6.52516 46.3155C6.8151 46.7388 6.88025 47.3862 6.94432 48.0131C7.02033 48.7553 7.10069 49.5233 7.54591 50.0318C7.99221 50.5391 8.74039 50.7093 9.46577 50.8741C10.075 51.0131 10.7048 51.1574 11.0859 51.4978C11.4671 51.8382 11.6832 52.449 11.8938 53.0414C12.1447 53.747 12.401 54.4762 12.9569 54.8619C13.4141 55.1807 14.0189 55.2238 14.6021 55.2238C14.7389 55.2238 14.879 55.2217 15.0169 55.2195C15.1548 55.2174 15.2905 55.2141 15.4241 55.2141C15.8932 55.2141 16.3753 55.241 16.7424 55.4349C17.1909 55.673 17.5307 56.189 17.8891 56.7351C18.2985 57.361 18.7241 58.0083 19.3594 58.2507C19.5538 58.325 19.7633 58.3606 20.0044 58.3606C20.4638 58.3606 20.9589 58.2281 21.4378 58.0988C21.8982 57.9771 22.3695 57.8478 22.7876 57.8478C22.9277 57.8478 23.0536 57.864 23.172 57.892C23.6585 58.0127 24.1091 58.4295 24.588 58.8722C25.1385 59.3807 25.7076 59.9074 26.3852 59.9893C26.447 59.9979 26.5079 60.0001 26.5698 60.0001C27.1681 60.0001 27.7718 59.6661 28.355 59.343C28.9077 59.0371 29.48 58.7204 30.0001 58.7204C30.5213 58.7204 31.0925 59.0371 31.6463 59.3419C32.2305 59.6661 32.8343 60.0001 33.4326 60.0001C33.4924 60.0001 33.5553 59.9979 33.6161 59.9893C34.2937 59.9074 34.8649 59.3807 35.4155 58.8722C35.89 58.4295 36.3407 58.0127 36.8293 57.892C36.9477 57.864 37.0726 57.8478 37.2137 57.8478C37.6307 57.8478 38.1042 57.9771 38.5635 58.0988C39.0424 58.2281 39.5376 58.3606 39.9958 58.3606C40.2369 58.3606 40.4486 58.325 40.6419 58.2507C41.2761 58.0083 41.6996 57.362 42.1111 56.7351C42.4706 56.189 42.8094 55.673 43.2589 55.436C43.627 55.2411 44.1092 55.2141 44.575 55.2141C44.7097 55.2141 44.8476 55.2174 44.9833 55.2195C45.1223 55.2227 45.2624 55.2238 45.3992 55.2238C45.9834 55.2238 46.5861 55.1807 47.0444 54.8619C47.5982 54.4762 47.8566 53.7481 48.1085 53.0414C48.316 52.4501 48.5342 51.8382 48.9154 51.4978C49.2965 51.1585 49.9263 51.0142 50.5344 50.8752C51.2598 50.7115 52.0091 50.5391 52.4554 50.0318C52.8995 49.5255 52.9799 48.7564 53.057 48.0131C53.1189 47.3862 53.1851 46.7388 53.4772 46.3155C53.765 45.8964 54.3427 45.6056 54.8997 45.3255C55.5654 44.9895 56.2528 44.6448 56.5677 44.0415C56.8804 43.4458 56.774 42.681 56.6719 41.9432C56.584 41.3173 56.4949 40.671 56.6763 40.1874C56.8555 39.7134 57.3224 39.3116 57.8165 38.8883C58.3844 38.4014 58.973 37.8973 59.1348 37.2305C59.2933 36.5788 59.0088 35.8667 58.733 35.1773C58.5006 34.5892 58.2563 33.9817 58.3171 33.4646Z" fill="#443B32"/>
</g>
<path fill-rule="evenodd" clip-rule="evenodd" d="M40.0472 36.4841C37.5865 40.6981 33.7044 43.0733 29.4238 43.0733C28.8299 43.0733 28.2337 43.027 27.6267 42.9354C25.6569 42.6349 23.2396 42.0122 21.7161 40.7369C21.689 40.7541 21.6651 40.767 21.6401 40.7832C20.5977 41.3875 19.5128 41.9412 18.3249 42.3634C17.8558 42.5304 17.3389 42.2891 17.1706 41.8237C16.9914 41.339 17.2726 40.8004 17.7732 40.6593C22.1461 39.273 25.9457 36.4432 29.6128 33.7405C33.3233 30.9075 36.8829 27.8612 40.2893 24.6652C36.7178 27.6749 32.9975 30.5316 29.1382 33.1621C26.2791 35.0385 23.3439 36.985 20.1807 38.3272C19.4792 35.9714 20.0069 33.1782 20.2143 32.268C20.3729 31.5775 20.5933 30.9377 20.8387 30.3204C21.8345 30.7632 22.9356 31.0163 24.0975 31.0163C28.4987 31.0163 32.0669 27.4767 32.0669 23.1108C32.0669 22.6293 32.017 22.1608 31.9333 21.704C33.5503 21.3281 35.1769 21.1374 36.7048 21.1148H36.8959C40.2654 21.0986 41.7575 20.9909 42.4134 20.9058C42.6566 20.8724 42.902 20.9392 43.092 21.0922L43.0942 21.0868C43.2842 21.2376 43.4048 21.4573 43.4243 21.6997C43.8467 26.5255 42.5545 32.1883 40.0472 36.4841ZM24.0975 16.4722C27.7874 16.4722 30.7888 19.4506 30.7888 23.1109C30.7888 26.7712 27.7874 29.7485 24.0975 29.7485C20.4076 29.7485 17.4062 26.7712 17.4062 23.1109C17.4062 19.4506 20.4076 16.4722 24.0975 16.4722ZM30.0026 6.65784C16.8948 6.65784 6.2356 17.2423 6.2356 30.2439C6.2356 43.2467 16.8948 53.8311 30.0026 53.8311C43.1203 53.8311 53.7795 43.2467 53.7795 30.2439C53.7795 17.2423 43.1203 6.65784 30.0026 6.65784Z" fill="#443B32"/>
<path fill-rule="evenodd" clip-rule="evenodd" d="M26.4584 25.8572C26.5453 25.9434 26.6593 25.9865 26.7744 25.9865C26.8884 25.9865 27.0024 25.9434 27.0893 25.8572C27.2642 25.6838 27.2642 25.4048 27.0893 25.2313L24.544 22.7053V18.9061C24.544 18.6616 24.3442 18.4634 24.0977 18.4634C23.8512 18.4634 23.6514 18.6616 23.6514 18.9061V22.8895C23.6514 23.0059 23.6981 23.119 23.7817 23.2019L26.4584 25.8572Z" fill="#443B32"/>
</svg>
