<svg width="60" height="60" viewBox="0 0 60 60" fill="none" xmlns="http://www.w3.org/2000/svg">
<path fill-rule="evenodd" clip-rule="evenodd" d="M29.3098 19.265C26.3633 19.265 24.1619 20.2998 24.1619 21.224H34.4573C34.4568 20.2989 32.2563 19.265 29.3098 19.265Z" fill="#443B32"/>
<path fill-rule="evenodd" clip-rule="evenodd" d="M40.2923 23.0346L37.1556 30.3108L38.6657 40.8923C38.6726 40.9385 38.6758 40.9853 38.6758 41.032C38.6758 41.5786 38.233 42.0214 37.6864 42.0214H20.9325C20.8858 42.0214 20.839 42.0182 20.7927 42.0117C20.2518 41.9344 19.876 41.4332 19.9533 40.8923L20.3314 38.2415L16.1594 27.3565C16.0284 27.0177 15.9613 26.6577 15.9609 26.2944C15.959 24.6599 17.2826 23.3335 18.9176 23.3317H22.4601L22.6776 21.7906C22.7197 21.4991 22.9507 21.2709 23.2427 21.2321V21.2242C23.2427 19.8035 25.2021 18.6863 27.9746 18.4138C28.1208 18.0509 28.4077 17.7636 28.7706 17.6178C29.5068 17.3202 30.3454 17.6766 30.6425 18.4138C33.4159 18.6863 35.3749 19.8035 35.3749 21.2242V21.2321C35.6669 21.2709 35.8973 21.4991 35.9394 21.7906L35.9853 22.1123H39.6866C39.7773 22.1118 39.8666 22.1303 39.9499 22.1664C40.284 22.3117 40.4372 22.7 40.2923 23.0346ZM38.0022 15.8657C38.192 15.34 38.5816 14.9309 39.0435 14.6907C38.9435 15.2039 38.8982 15.6556 38.894 16.0536C38.9148 16.4854 38.9352 16.7376 39.1254 17.2101C39.1846 17.4429 39.2466 17.621 39.3012 17.8996C39.3401 18.2051 39.3327 18.5017 39.2536 18.7696C39.1212 19.3106 38.807 19.729 38.4289 20.0853L38.3433 18.6826C38.3067 18.4818 38.2905 18.3008 38.2197 18.1477L37.987 17.4854C37.8217 17.0814 37.7833 16.3544 38.0022 15.8657ZM29.6679 6.1441C16.5435 6.1441 5.90381 16.7834 5.90381 29.9082C5.90381 43.0326 16.5435 53.6723 29.6679 53.6723C42.7923 53.6723 53.4324 43.0326 53.4324 29.9082C53.4324 16.7834 42.7923 6.1441 29.6679 6.1441Z" fill="#443B32"/>
<path fill-rule="evenodd" clip-rule="evenodd" d="M18.5628 25.3787C18.0584 25.5745 17.809 26.1423 18.0047 26.6463L20.9068 34.2085L22.1771 25.3116H18.9173C18.7956 25.3116 18.6758 25.3343 18.5628 25.3787Z" fill="#443B32"/>
<path fill-rule="evenodd" clip-rule="evenodd" d="M29.6755 55.8642C15.4979 55.8642 3.96317 44.3299 3.96317 30.1527C3.96317 15.976 15.4979 4.4422 29.6755 4.4422C43.8527 4.4422 55.3865 15.976 55.3865 30.1527C55.3865 44.3299 43.8527 55.8642 29.6755 55.8642ZM57.6723 33.3616C57.732 32.8632 58.0846 32.3648 58.4581 31.8368C58.8894 31.2268 59.3364 30.5947 59.3364 29.9084C59.3364 29.2202 58.8894 28.5895 58.4581 27.9786C58.0846 27.452 57.7338 26.954 57.6723 26.4561C57.6112 25.9405 57.8527 25.3324 58.0846 24.747C58.3558 24.0598 58.6367 23.3481 58.4807 22.7006C58.3201 22.0361 57.7384 21.5326 57.1766 21.0485C56.6884 20.6265 56.2261 20.2257 56.0493 19.7537C55.8697 19.2705 55.9577 18.6268 56.0447 18.0025C56.146 17.2672 56.2511 16.5054 55.9433 15.9094C55.6305 15.3091 54.9507 14.9648 54.2917 14.6302C53.7414 14.3507 53.1722 14.0624 52.8848 13.6431C52.5965 13.2206 52.5313 12.576 52.4697 11.9508C52.3947 11.2099 52.3156 10.4444 51.876 9.93815C51.4345 9.43233 50.6917 9.26342 49.9767 9.09867C49.3737 8.95937 48.7518 8.81637 48.3737 8.47716C47.997 8.13702 47.7836 7.52708 47.5758 6.93935C47.3269 6.235 47.0719 5.50844 46.5244 5.12295C46.0709 4.80641 45.4748 4.76198 44.8968 4.76198C44.7617 4.76198 44.6229 4.76429 44.4868 4.76753C44.3526 4.76939 44.2151 4.77124 44.0819 4.77124C43.6209 4.77124 43.1438 4.7444 42.7796 4.55095C42.3353 4.31448 42.0017 3.80079 41.6463 3.25564C41.2376 2.63228 40.8188 1.98439 40.1927 1.74421C40.0011 1.67109 39.791 1.63407 39.5527 1.63407C39.1001 1.63407 38.6105 1.76735 38.1366 1.89554C37.684 2.01864 37.2152 2.14544 36.8019 2.14544C36.6631 2.14544 36.5381 2.13109 36.422 2.10194C35.9384 1.98208 35.4932 1.5665 35.0235 1.12594C34.4788 0.617808 33.9146 0.0930183 33.2441 0.0115694C33.183 0.00323944 33.1219 0 33.0608 0C32.4708 0 31.8743 0.3332 31.2958 0.655293C30.7488 0.960726 30.1837 1.27727 29.6682 1.27727C29.1536 1.27727 28.5876 0.960726 28.0411 0.655293C27.4645 0.3332 26.867 0 26.2751 0C26.2145 0 26.1543 0.00323944 26.0932 0.0115694C25.4231 0.0930183 24.8604 0.617808 24.3157 1.12594C23.8428 1.5665 23.3966 1.98208 22.9158 2.10194C22.7987 2.13109 22.6742 2.14544 22.5354 2.14544C22.1226 2.14544 21.6561 2.01864 21.2008 1.89554C20.7273 1.76735 20.2373 1.63499 19.7833 1.63499C19.5463 1.63499 19.3367 1.67109 19.147 1.74421C18.518 1.98439 18.0969 2.63182 17.6915 3.25564C17.337 3.80079 17.0006 4.31448 16.5582 4.55003C16.194 4.7444 15.7173 4.77124 15.2536 4.77124C15.1213 4.77124 14.9871 4.76939 14.851 4.76753C14.7149 4.76429 14.5756 4.76198 14.44 4.76198C13.8644 4.76198 13.2651 4.80641 12.8143 5.12295C12.2664 5.50844 12.01 6.23454 11.762 6.93935C11.5551 7.52708 11.3404 8.13702 10.9627 8.47716C10.586 8.81591 9.96314 8.95937 9.36153 9.09728C8.64561 9.26342 7.90378 9.43141 7.46321 9.93815C7.02219 10.4435 6.94305 11.2099 6.86901 11.9508C6.80422 12.576 6.73989 13.2197 6.45251 13.6431C6.16697 14.0624 5.59544 14.3507 5.04613 14.6302C4.38759 14.9648 3.70592 15.3091 3.39494 15.9094C3.08626 16.5054 3.19224 17.2672 3.2922 18.0025C3.37828 18.6268 3.46667 19.2705 3.28757 19.7532C3.11172 20.2257 2.65033 20.6265 2.16163 21.0485C1.59751 21.5326 1.01811 22.0361 0.85799 22.7006C0.700645 23.3481 0.980163 24.0598 1.25366 24.7484C1.48644 25.3334 1.7257 25.9405 1.66369 26.4561C1.60676 26.954 1.25366 27.452 0.881128 27.9786C0.448894 28.5895 0 29.2202 0 29.9084C0 30.5947 0.448894 31.2268 0.881128 31.8368C1.25366 32.3648 1.60676 32.8632 1.66369 33.3616C1.7257 33.8772 1.48644 34.4834 1.25366 35.0697C0.980163 35.7574 0.700645 36.4669 0.85799 37.1157C1.01811 37.7798 1.59751 38.2814 2.16163 38.7687C2.65033 39.1917 3.11172 39.592 3.28757 40.064C3.46667 40.5463 3.37828 41.1909 3.2922 41.8143C3.19224 42.5496 3.08626 43.3109 3.39494 43.9051C3.70546 44.5072 4.38759 44.8519 5.04613 45.187C5.59544 45.4651 6.16697 45.7548 6.45251 46.1741C6.73989 46.5952 6.80422 47.2408 6.86808 47.8655C6.94305 48.6055 7.02219 49.3719 7.46229 49.8777C7.90378 50.384 8.64422 50.5538 9.36153 50.7181C9.96314 50.8569 10.586 51.0004 10.9627 51.3396C11.3399 51.6793 11.5542 52.2878 11.762 52.8783C12.01 53.5813 12.2641 54.3088 12.8134 54.6938C13.2651 55.0108 13.8644 55.0548 14.44 55.0548C14.5756 55.0548 14.7149 55.0516 14.851 55.0492C14.9871 55.0469 15.1213 55.0451 15.2536 55.0451C15.7173 55.0451 16.194 55.0719 16.5577 55.2654C17.0006 55.5023 17.337 56.0164 17.6915 56.5616C18.0965 57.185 18.5167 57.8301 19.1456 58.0721C19.3367 58.1466 19.5445 58.1818 19.7833 58.1818C20.2373 58.1818 20.7273 58.0499 21.2008 57.9203C21.6561 57.7991 22.1226 57.6704 22.5354 57.6704C22.6742 57.6704 22.7987 57.6861 22.9158 57.7144C23.3966 57.8347 23.8428 58.2503 24.3157 58.6908C24.8604 59.198 25.4231 59.7238 26.0932 59.8057C26.1543 59.8135 26.2145 59.8163 26.2751 59.8163C26.867 59.8163 27.4649 59.4831 28.0411 59.161C28.5876 58.8565 29.1536 58.54 29.6682 58.54C30.1837 58.54 30.7488 58.8565 31.2958 59.1601C31.8743 59.4831 32.4708 59.8163 33.0622 59.8163C33.1219 59.8163 33.1839 59.8135 33.2441 59.8057C33.9146 59.7238 34.4788 59.198 35.0235 58.6908C35.4932 58.2503 35.9384 57.8347 36.422 57.7144C36.5381 57.6861 36.6631 57.6704 36.8019 57.6704C37.2147 57.6704 37.6826 57.7991 38.1366 57.9203C38.6105 58.0499 39.1001 58.1818 39.5527 58.1818C39.791 58.1818 40.0011 58.1466 40.1922 58.0721C40.8188 57.8301 41.2376 57.1859 41.6453 56.5616C42.0008 56.0164 42.3353 55.5023 42.7796 55.2658C43.1438 55.0719 43.6209 55.0451 44.0819 55.0451C44.2151 55.0451 44.3512 55.0469 44.4859 55.0492C44.6229 55.0534 44.7617 55.0548 44.8968 55.0548C45.4748 55.0548 46.0704 55.0113 46.5235 54.6938C47.0719 54.3088 47.3269 53.5832 47.5758 52.8783C47.7813 52.2888 47.997 51.6793 48.3737 51.3396C48.7504 51.0013 49.3737 50.8574 49.9753 50.719C50.6917 50.5557 51.434 50.3844 51.8746 49.8777C52.3147 49.3733 52.3934 48.6069 52.4697 47.8655C52.5313 47.2408 52.5961 46.5961 52.8848 46.1741C53.1704 45.7557 53.7414 45.4656 54.2917 45.187C54.9507 44.8519 55.6305 44.5072 55.9415 43.9065C56.2506 43.3123 56.146 42.5501 56.0447 41.8143C55.9577 41.1909 55.8697 40.5463 56.0488 40.064C56.2261 39.592 56.6884 39.1917 57.1766 38.7697C57.7384 38.2833 58.3201 37.7807 58.4807 37.1157C58.6367 36.4669 58.3558 35.757 58.0832 35.0688C57.8527 34.4834 57.6112 33.8772 57.6723 33.3616Z" fill="#443B32"/>
</svg>
