<svg width="122" height="123" viewBox="0 0 122 123" fill="none" xmlns="http://www.w3.org/2000/svg">
<path fill-rule="evenodd" clip-rule="evenodd" d="M60.9896 114.107C32.1855 114.107 8.75227 90.5476 8.75227 61.5897C8.75227 32.6318 32.1855 9.07241 60.9896 9.07241C89.7925 9.07241 113.226 32.6318 113.226 61.5897C113.226 90.5476 89.7925 114.107 60.9896 114.107ZM117.869 68.1442C117.991 67.1256 118.707 66.1081 119.466 65.0294C120.342 63.7827 121.25 62.4919 121.25 61.0908C121.25 59.6847 120.342 58.3964 119.466 57.1485C118.707 56.0734 117.995 55.056 117.87 54.0385C117.746 52.9843 118.236 51.7438 118.707 50.5474C119.258 49.1438 119.828 47.6899 119.511 46.3673C119.186 45.0103 118.004 43.983 116.862 42.9925C115.871 42.132 114.932 41.3131 114.573 40.3484C114.207 39.3616 114.387 38.0475 114.563 36.7714C114.768 35.2685 114.982 33.713 114.357 32.4969C113.722 31.2699 112.34 30.5662 111.002 29.8834C109.883 29.3122 108.727 28.7238 108.144 27.8657C107.558 27.0039 107.425 25.6874 107.3 24.4113C107.148 22.8974 106.987 21.3332 106.093 20.2986C105.196 19.2652 103.688 18.9208 102.235 18.5849C101.01 18.2993 99.7457 18.0075 98.9775 17.3149C98.213 16.6211 97.779 15.3744 97.3571 14.1743C96.8511 12.7352 96.3329 11.252 95.2209 10.4637C94.2992 9.8165 93.0884 9.72701 91.9143 9.72701C91.6387 9.72701 91.3583 9.73191 91.0803 9.73682C90.8084 9.74172 90.5292 9.7454 90.2585 9.7454C89.3221 9.7454 88.3528 9.69024 87.6139 9.29552C86.7104 8.81254 86.0313 7.76322 85.3095 6.65016C84.4804 5.37529 83.6293 4.05261 82.3564 3.56228C81.9687 3.4115 81.5419 3.33795 81.0566 3.33795C80.1373 3.33795 79.1424 3.60886 78.1804 3.87119C77.2598 4.12371 76.3076 4.38114 75.4687 4.38114C75.1846 4.38114 74.9322 4.35172 74.6969 4.29288C73.7142 4.04894 72.8095 3.19943 71.8548 2.29967C70.7477 1.26139 69.6016 0.190005 68.2396 0.0232909C68.1165 0.00612918 67.9921 0 67.8678 0C66.668 0 65.456 0.680339 64.2819 1.33861C63.1699 1.96134 62.0214 2.60858 60.9752 2.60858C59.9291 2.60858 58.7793 1.96134 57.6685 1.33861C56.4968 0.680339 55.2836 0 54.0814 0C53.9583 0 53.8352 0.00612918 53.712 0.0232909C52.3489 0.190005 51.2064 1.26139 50.1005 2.29967C49.1397 3.19943 48.2338 4.04894 47.256 4.29288C47.0182 4.35172 46.7658 4.38114 46.4842 4.38114C45.6441 4.38114 44.6967 4.12371 43.7725 3.87119C42.8105 3.60886 41.8156 3.33918 40.8926 3.33918C40.411 3.33918 39.9854 3.4115 39.5989 3.56228C38.3211 4.05261 37.4664 5.37407 36.6422 6.65016C35.9216 7.76322 35.2388 8.81254 34.3402 9.29429C33.6001 9.69024 32.632 9.7454 31.6895 9.7454C31.42 9.7454 31.1481 9.74172 30.8714 9.73682C30.5946 9.73191 30.3117 9.72701 30.0362 9.72701C28.8669 9.72701 27.65 9.8165 26.7344 10.4637C25.6199 11.252 25.0993 12.734 24.5958 14.1743C24.1751 15.3744 23.7398 16.6211 22.9717 17.3149C22.206 18.0063 20.9416 18.2993 19.7187 18.5812C18.2641 18.9208 16.757 19.264 15.8609 20.2986C14.9659 21.3308 14.805 22.8974 14.655 24.4113C14.5233 25.6874 14.3929 27.0015 13.8088 27.8657C13.2285 28.7238 12.0665 29.3122 10.9521 29.8834C9.61333 30.5662 8.22823 31.2699 7.59665 32.4969C6.96994 33.713 7.18453 35.2685 7.38815 36.7714C7.56373 38.0475 7.74296 39.3616 7.37962 40.3472C7.02115 41.3131 6.08353 42.132 5.09104 42.9925C3.94492 43.983 2.76833 45.0103 2.44278 46.3673C2.12211 47.6899 2.69029 49.1438 3.24628 50.5498C3.71936 51.745 4.20585 52.9843 4.07904 54.0385C3.96321 55.056 3.24628 56.0734 2.48911 57.1485C1.61124 58.3964 0.699219 59.6847 0.699219 61.0908C0.699219 62.4919 1.61124 63.7827 2.48911 65.0294C3.24628 66.1081 3.96321 67.1256 4.07904 68.1442C4.20585 69.1972 3.71936 70.4341 3.24628 71.633C2.69029 73.0378 2.12211 74.4855 2.44278 75.8119C2.76833 77.1676 3.94492 78.1924 5.09104 79.1878C6.08353 80.052 7.02115 80.8697 7.37962 81.8344C7.74296 82.82 7.56373 84.1353 7.38815 85.4089C7.18453 86.9106 6.96994 88.4662 7.59665 89.6797C8.22823 90.9105 9.61333 91.6141 10.9521 92.2981C12.0665 92.8669 13.2285 93.459 13.8088 94.3134C14.3929 95.1739 14.5233 96.4942 14.6526 97.769C14.805 99.2817 14.9659 100.846 15.8597 101.879C16.757 102.914 18.2616 103.261 19.7187 103.597C20.9416 103.879 22.206 104.173 22.9717 104.865C23.7386 105.559 24.1739 106.803 24.5958 108.008C25.0993 109.445 25.6163 110.93 26.7319 111.717C27.65 112.365 28.8669 112.455 30.0362 112.455C30.3117 112.455 30.5946 112.448 30.8714 112.444C31.1481 112.439 31.42 112.435 31.6895 112.435C32.632 112.435 33.6001 112.489 34.339 112.884C35.2388 113.368 35.9216 114.418 36.6422 115.531C37.4652 116.806 38.3187 118.123 39.5965 118.618C39.9854 118.769 40.4073 118.841 40.8926 118.841C41.8156 118.841 42.8105 118.571 43.7725 118.308C44.6967 118.059 45.6441 117.797 46.4842 117.797C46.7658 117.797 47.0182 117.829 47.256 117.886C48.2338 118.133 49.1397 118.982 50.1005 119.882C51.2064 120.916 52.3489 121.99 53.712 122.158C53.8352 122.174 53.9583 122.18 54.0814 122.18C55.2836 122.18 56.498 121.5 57.6685 120.842C58.7793 120.219 59.9291 119.573 60.9752 119.573C62.0214 119.573 63.1699 120.219 64.2819 120.839C65.456 121.5 66.668 122.18 67.8702 122.18C67.9921 122.18 68.1177 122.174 68.2396 122.158C69.6016 121.99 70.7477 120.916 71.8548 119.882C72.8095 118.982 73.7142 118.133 74.6969 117.886C74.9322 117.829 75.1846 117.797 75.4687 117.797C76.3064 117.797 77.2574 118.059 78.1804 118.308C79.1424 118.571 80.1373 118.841 81.0566 118.841C81.5419 118.841 81.9687 118.769 82.3552 118.618C83.6293 118.123 84.4804 116.807 85.3083 115.531C86.0301 114.418 86.7104 113.368 87.6139 112.885C88.3528 112.489 89.3221 112.435 90.2585 112.435C90.5292 112.435 90.8047 112.439 91.0791 112.444C91.3583 112.451 91.6387 112.455 91.9143 112.455C93.0884 112.455 94.298 112.365 95.2197 111.717C96.3329 110.93 96.8511 109.448 97.3571 108.008C97.7753 106.805 98.213 105.559 98.9775 104.865C99.7432 104.174 101.01 103.88 102.232 103.598C103.688 103.264 105.195 102.914 106.09 101.879C106.984 100.848 107.144 99.2842 107.3 97.769C107.425 96.4942 107.558 95.1764 108.144 94.3134C108.722 93.4602 109.883 92.8681 111.002 92.2981C112.34 91.6141 113.722 90.9105 114.353 89.6834C114.98 88.4686 114.768 86.9118 114.563 85.4089C114.387 84.1353 114.207 82.82 114.571 81.8344C114.932 80.8697 115.871 80.052 116.862 79.1903C118.004 78.1973 119.186 77.1701 119.511 75.8119C119.828 74.4855 119.258 73.0366 118.704 71.6317C118.236 70.4341 117.746 69.1972 117.869 68.1442Z" fill="#443B32"/>
<circle cx="60.6992" cy="61" r="48" fill="#443B32"/>
<path d="M93.3961 63.5095C93.07 62.6598 92.528 62.1832 92.041 61.4932C91.12 60.0074 91.1729 59.052 91.2831 57.3549C91.4461 53.4818 90.091 49.557 87.6519 46.4796C85.3208 43.508 82.3947 40.6441 78.7085 39.3179C75.0223 37.9916 70.3072 37.8321 66.5681 39.0526C64.779 39.637 63.2609 41.2285 61.3638 40.9094C61.1478 40.8555 60.9848 40.8037 60.8217 40.8037C61.9058 40.2193 62.9348 39.3717 63.6399 38.8412C65.1029 37.7263 66.729 36.5597 67.705 35.022C68.8441 33.2192 68.6261 31.5199 67.9761 29.5574C67.813 29.1326 67.434 28.9212 67 29.0269C62.4479 30.0879 57.7305 33.3766 57.2436 38.0994C57.0276 37.6746 56.8095 37.2497 56.5936 36.8788C55.7805 35.4469 54.9675 34.0668 54.1544 32.6348C53.9914 32.3696 53.5574 32.1582 53.2334 32.2639C51.6073 32.8483 48.8972 33.5901 49.9262 35.766C50.4682 36.8809 51.5523 37.888 52.4204 38.8433C53.5595 40.0639 54.7515 41.2845 55.9986 42.3973C56.0536 42.4512 56.1066 42.4512 56.1066 42.503C55.6725 43.1392 55.4015 43.8831 55.3486 44.5193C55.2406 45.8455 56.3246 46.3221 56.8117 47.437C57.8406 49.6129 56.8667 52.5824 57.1377 54.9179C57.3537 56.7747 57.9508 58.4719 58.8189 60.1173C61.258 64.2017 65.0521 67.8095 69.4434 69.7202C74.3216 71.8422 79.1447 71.1004 83.915 69.1358C85.9751 68.8167 87.8722 70.3564 89.9324 69.8777C91.2874 69.5586 92.5874 68.1805 93.1845 67.0138C93.8303 65.7891 93.8303 64.6224 93.3962 63.5096L93.3961 63.5095ZM76.1593 44.3575C73.1782 43.5618 69.926 43.0313 67.3239 45.0994C66.5108 45.7356 65.3717 44.6228 66.1848 43.9845C69.2739 41.5434 72.96 41.9164 76.5912 42.8696C77.5693 43.0851 77.1353 44.6227 76.1592 44.3575L76.1593 44.3575Z" fill="#F6F2EE"/>
<circle cx="49.6992" cy="69" r="19" fill="#443B32"/>
<path d="M46.869 52.6003C46.7808 50.2916 48.7717 48.0869 51.6244 47.478C51.8587 47.428 52.0485 47.257 52.1225 47.0295C52.1963 46.8019 52.143 46.5523 51.9827 46.3747C51.8223 46.1972 51.5792 46.1186 51.3449 46.1686C50.1722 46.3893 49.0698 46.8891 48.1313 47.6258C47.1928 48.3624 46.446 49.3139 45.9538 50.3997C45.585 49.7667 45.064 49.2356 44.4378 48.8543C42.317 47.6229 39.4777 48.7766 39.3588 48.8293C39.223 48.8845 39.1091 48.9827 39.0344 49.1086C38.9599 49.2346 38.9285 49.3815 38.9454 49.5268C38.972 49.6512 39.3431 52.7073 41.4508 53.9414C41.6398 54.0491 41.8381 54.1397 42.0434 54.212C38.2852 56.1422 35.3948 59.4178 33.9505 63.3833C32.5061 67.3488 32.6142 71.7116 34.2531 75.5992C35.8921 79.4865 38.9409 82.6117 42.7896 84.3489C46.6384 86.0863 51.0031 86.308 55.0108 84.9695C59.0182 83.6311 62.3728 80.8312 64.4026 77.1301C66.4329 73.4291 66.9892 69.1 65.9603 65.0089C64.9313 60.9177 62.3929 57.3667 58.853 55.0659C55.3133 52.765 51.0332 51.8844 46.8692 52.6004L46.869 52.6003ZM42.1054 52.7681C41.0403 52.1466 40.5629 50.6808 40.3714 49.8797C41.1537 49.6579 42.6731 49.3884 43.7551 49.9927C44.8371 50.5969 45.3308 52.1071 45.4985 52.8928C44.7321 53.1249 43.2182 53.4206 42.1293 52.7836L42.1054 52.7681ZM52.3025 81.5616C52.0682 81.6116 51.8252 81.533 51.6647 81.3555C51.5044 81.1779 51.4512 80.9283 51.525 80.7007C51.599 80.4731 51.7888 80.3021 52.0231 80.2521C54.9797 79.6211 57.5649 77.8433 59.2101 75.3097C60.8554 72.7761 61.4256 69.6944 60.7956 66.7423C60.7456 66.5084 60.8245 66.2656 61.0024 66.1053C61.1804 65.9451 61.4304 65.8918 61.6582 65.9654C61.8861 66.0391 62.0572 66.2285 62.1071 66.4624C62.8113 69.7618 62.1738 73.2062 60.3353 76.0378C58.4967 78.8695 55.6072 80.8564 52.3025 81.5617L52.3025 81.5616Z" fill="#F6F2EE"/>
</svg>
