<svg width="165" height="42" viewBox="0 0 165 42" fill="none" xmlns="http://www.w3.org/2000/svg">
<path d="M10.58 15.2919C12.02 11.5019 13.45 7.83189 14.82 4.12189C15.02 3.59189 15.25 3.36189 15.84 3.40189C16.72 3.46189 17.61 3.46189 18.51 3.40189C19.07 3.37189 19.17 3.57189 19.17 4.09189C19.16 12.6419 19.16 21.1719 19.16 29.7119C19.16 32.2519 19.15 34.8019 19.17 37.3319C19.17 37.7919 19.05 37.9519 18.58 37.9419C17.36 37.9119 16.13 37.9019 14.91 37.9419C14.29 37.9719 14.23 37.7119 14.23 37.1919C14.24 30.9919 14.24 24.8119 14.24 18.6219V18.0619C14.24 18.0619 14.17 18.0319 14.14 18.0219C13.81 18.9319 13.46 19.8219 13.13 20.7319C12.5 22.4319 11.88 24.1519 11.26 25.8519C11.14 26.1519 11.04 26.3719 10.63 26.3719C10.22 26.3719 10.07 26.1819 9.93999 25.8419C8.98999 23.2519 8.01999 20.6519 6.93999 18.0419V18.7619C6.93999 24.9019 6.92999 31.0419 6.94999 37.1919C6.94999 37.7719 6.84999 37.9819 6.21999 37.9519C5.01999 37.8919 3.82999 37.9219 2.61999 37.9419C2.18999 37.9519 1.98999 37.8719 1.98999 37.3619C1.99999 26.2219 1.99999 15.1019 1.98999 3.96189C1.98999 3.51189 2.10999 3.38189 2.54999 3.40189C3.51999 3.43189 4.46999 3.43189 5.42999 3.40189C5.87999 3.39189 6.08999 3.53189 6.24999 3.96189C7.59999 7.53189 8.98999 11.1119 10.36 14.6719C10.42 14.8719 10.48 15.0319 10.59 15.3019L10.58 15.2919Z" fill="white"/>
<path d="M40.82 18.2617C40.82 13.5917 40.83 8.94171 40.81 4.30171C40.81 3.62171 40.94 3.38171 41.66 3.42171C42.78 3.49171 43.91 3.45171 45.05 3.43171C45.42 3.43171 45.55 3.55171 45.54 3.92171C45.51 4.93171 45.53 5.94171 45.53 6.95171C45.53 17.0217 45.53 27.1117 45.54 37.1817C45.54 37.7917 45.44 38.0417 44.76 37.9917C44.05 37.9217 43.32 37.9317 42.6 37.9917C41.91 38.0517 41.62 37.8217 41.45 37.1317C40.38 32.7917 39.26 28.4517 38.15 24.1317C37.8 22.7817 37.44 21.4217 36.98 20.0817V20.8617C36.98 26.3117 36.97 31.7517 36.99 37.2017C36.99 37.8217 36.86 38.0417 36.21 38.0117C35.06 37.9517 33.9 37.9817 32.75 38.0017C32.39 38.0017 32.2 37.9117 32.26 37.5217C32.27 37.4217 32.26 37.3317 32.26 37.2317C32.26 26.2217 32.26 15.2117 32.25 4.19171C32.25 3.57171 32.42 3.43171 33.01 3.46171C34.06 3.50171 35.11 3.49171 36.18 3.46171C36.64 3.45171 36.83 3.59171 36.96 4.05171C38.16 8.68171 39.4 13.3017 40.62 17.9317C40.63 18.0517 40.63 18.1917 40.82 18.2817V18.2617Z" fill="white"/>
<path d="M132.74 18.4218V4.59175C132.74 3.82509 133.133 3.44175 133.92 3.44175C134.86 3.44175 135.79 3.50175 136.73 3.43175C137.41 3.37175 137.49 3.63175 137.49 4.24175C137.46 8.03175 137.48 11.8218 137.48 15.6118C137.48 22.8018 137.47 30.0118 137.49 37.2018C137.49 37.8318 137.35 38.0418 136.71 37.9918C135.9 37.9318 135.08 37.9318 134.26 37.9918C133.74 38.0218 133.57 37.8018 133.44 37.3418C132.01 31.7518 130.59 26.1718 129.15 20.6018C129.09 20.3618 129.01 20.1118 128.86 19.8718V25.4318C128.86 29.3918 128.85 33.3418 128.87 37.3018C128.87 37.8317 128.74 38.0117 128.19 37.9818C127.07 37.9417 125.94 37.9518 124.8 37.9818C124.37 37.9917 124.18 37.9118 124.18 37.4018C124.19 26.2818 124.19 15.1418 124.18 4.01175C124.18 3.58175 124.28 3.43175 124.74 3.45175C125.86 3.48175 126.99 3.48175 128.13 3.45175C128.59 3.44175 128.74 3.61175 128.85 4.03175C130.09 8.74175 131.33 13.4718 132.58 18.1818C132.59 18.2118 132.62 18.2418 132.72 18.4418L132.74 18.4218Z" fill="white"/>
<path d="M94.47 20.5819V32.9618C94.47 33.4618 94.48 33.9719 94.41 34.4719C94.09 36.6219 92.84 37.7818 90.65 37.9118C88.83 38.0118 87 38.0319 85.19 37.9019C83.22 37.7619 81.9 36.5219 81.63 34.5718C81.56 34.0219 81.51 33.4719 81.51 32.9319V8.46185C81.51 7.64185 81.55 6.83185 81.77 6.04185C82.17 4.54185 83.23 3.72185 84.7 3.56185C86.89 3.33185 89.11 3.30185 91.3 3.56185C93.39 3.82185 94.41 5.09185 94.43 7.28185C94.46 11.7219 94.44 16.1618 94.44 20.6019C94.44 20.6019 94.45 20.5985 94.47 20.5919V20.5819ZM89.54 20.7519V9.03185C89.54 8.50185 89.4 7.99185 88.8 7.98185C88.05 7.97185 87.2 7.61185 86.6 8.38185C86.51 8.48185 86.51 8.65185 86.5 8.80185C86.49 9.09185 86.47 9.38185 86.47 9.66185V31.7419C86.47 33.4119 86.53 33.4719 88.21 33.4519C89.36 33.4519 89.54 33.2819 89.54 32.1119V20.7519Z" fill="white"/>
<path d="M108.7 19.1016V33.0616C108.7 33.7816 108.69 34.5016 108.51 35.2116C108.14 36.8016 107.01 37.7616 105.27 37.8916C103.28 38.0316 101.29 38.0516 99.3 37.8916C97.3 37.7516 96.07 36.4916 95.86 34.4916C95.8 33.9916 95.77 33.4816 95.77 32.9816C95.77 23.4116 95.77 13.8316 95.76 4.26159C95.76 3.61159 95.9 3.38159 96.58 3.42159C97.7 3.48159 98.84 3.48159 99.97 3.42159C100.6 3.39159 100.76 3.56159 100.76 4.21159C100.73 13.4516 100.75 22.6816 100.75 31.9216V32.5716C100.75 32.7116 100.75 32.8916 100.82 32.9916C101.41 33.8016 102.26 33.3816 103.01 33.4216C103.56 33.4516 103.73 33.0316 103.77 32.5616C103.8 32.3216 103.78 32.0816 103.78 31.8416C103.78 22.6316 103.79 13.4116 103.77 4.20159C103.77 3.57159 103.93 3.38159 104.56 3.42159C105.71 3.48159 106.87 3.46159 108.02 3.42159C108.58 3.41159 108.74 3.56159 108.73 4.13159C108.69 9.12159 108.7 14.1216 108.7 19.1016Z" fill="white"/>
<path d="M145.35 3.48169C146.29 3.48169 147.22 3.49169 148.16 3.47169C148.56 3.46169 148.68 3.60169 148.72 3.99169C149.41 10.4717 150.13 16.9417 150.84 23.4317C151.34 28.0617 151.82 32.6817 152.34 37.2917C152.4 37.8717 152.24 37.9817 151.71 37.9717C150.56 37.9417 149.4 37.9417 148.25 37.9717C147.82 37.9817 147.69 37.8517 147.66 37.4117C147.54 35.6817 147.37 33.9717 147.26 32.2517C147.23 31.7617 147.12 31.5317 146.55 31.5617C145.67 31.6217 144.78 31.6217 143.88 31.5617C143.33 31.5317 143.2 31.7317 143.16 32.2217C143.02 33.9317 142.81 35.6517 142.67 37.3817C142.63 37.8617 142.48 37.9917 142.02 37.9717C140.9 37.9417 139.77 37.9417 138.63 37.9717C138.13 37.9817 137.97 37.8517 138.02 37.3417C138.45 33.9117 138.86 30.5017 139.26 27.0717C139.72 23.1517 140.15 19.2217 140.61 15.2817C141.01 11.8517 141.4 8.42169 141.83 5.01169C142.02 3.50169 142.05 3.50169 143.57 3.50169H145.33L145.35 3.48169ZM145.23 10.9417H145.16C145.13 11.0717 145.1 11.2117 145.09 11.3417C144.82 14.2217 144.54 17.1017 144.27 20.0017C144.07 22.1917 143.88 24.4017 143.68 26.5917C143.64 26.9817 143.71 27.1517 144.16 27.1217C144.82 27.0817 145.5 27.0917 146.18 27.1217C146.66 27.1517 146.71 26.9817 146.67 26.5317C146.47 24.6017 146.32 22.6717 146.15 20.7417C145.82 17.4717 145.53 14.2017 145.24 10.9417H145.23Z" fill="white"/>
<path d="M55.5901 3.48183C56.7601 3.49183 57.9401 3.34183 59.1101 3.60183C60.7701 3.97183 61.7001 4.97183 61.8901 6.65183C62.1201 8.73183 61.9601 10.8118 62.0101 12.9018C62.0101 13.2218 61.8701 13.3018 61.5801 13.3018C60.2101 13.2918 58.8401 13.2918 57.4701 13.3018C57.0201 13.3018 57.0401 13.0518 57.0401 12.7518C57.0401 11.5318 57.0501 10.3018 57.0401 9.08183C57.0301 8.19183 56.7701 7.94183 55.8701 7.93183C54.0301 7.90183 54.0001 7.94183 54.0001 9.80183C54.0001 10.9818 54.0401 12.1518 53.9901 13.3318C53.9301 14.5318 54.3501 15.4518 55.1401 16.3118C56.9801 18.3618 58.7901 20.4518 60.6001 22.5218C61.4401 23.4618 62.0001 24.5118 62.0001 25.8118C62.0001 28.5618 62.1201 31.3318 61.9601 34.0818C61.8201 36.4118 60.4601 37.7518 58.1001 37.8818C56.3001 37.9818 54.5001 38.0018 52.7101 37.8718C50.6201 37.7318 49.2501 36.4118 49.1401 34.3518C49.0401 32.4318 49.1001 30.5218 49.0701 28.6018C49.0701 28.2418 49.2001 28.1518 49.5301 28.1518C50.8701 28.1618 52.2101 28.1618 53.5601 28.1518C53.9801 28.1418 54.0101 28.3518 54.0101 28.6718C54.0001 29.8918 54.0001 31.1218 54.0101 32.3418C54.0101 33.1618 54.2601 33.4118 55.0801 33.4418C57.0301 33.5118 57.0701 33.4718 57.0701 31.5518C57.0701 30.3318 57.0601 29.1018 57.0701 27.8818C57.0801 27.0718 56.8001 26.4018 56.2601 25.7918C54.3601 23.6318 52.5101 21.4218 50.5701 19.3118C49.5001 18.1418 49.0101 16.8618 49.0601 15.2818C49.1301 12.9018 49.0701 10.5218 49.0901 8.16183C49.0901 7.68183 49.0901 7.19183 49.1801 6.72183C49.5401 4.75183 50.8801 3.58183 52.9101 3.48183C53.8001 3.44183 54.7101 3.48183 55.6201 3.48183H55.5901Z" fill="white"/>
<path d="M20.3501 20.6519C20.3501 15.1719 20.3601 9.71187 20.3401 4.24187C20.3401 3.63187 20.4401 3.42188 21.1001 3.42188C24.1701 3.46187 27.2401 3.45187 30.3101 3.42188C30.8301 3.42188 31.0301 3.52188 31.0001 4.08188C30.9601 5.18188 30.9701 6.28188 31.0001 7.39188C31.0101 7.84188 30.8701 7.95187 30.4401 7.95187C28.9601 7.92187 27.4701 7.96187 25.9701 7.94187C25.4901 7.93187 25.3201 8.03187 25.3201 8.56187C25.3501 11.5419 25.3501 14.5119 25.3201 17.4919C25.3201 18.0719 25.5101 18.1719 26.0101 18.1519C27.0901 18.1119 28.1701 18.1519 29.2501 18.1419C29.6201 18.1419 29.7501 18.2419 29.7501 18.6319C29.7401 19.7819 29.7201 20.9419 29.7501 22.0919C29.7601 22.5719 29.5601 22.6519 29.1401 22.6419C28.0301 22.6119 26.9401 22.6519 25.8301 22.6319C25.4301 22.6219 25.3101 22.7519 25.3101 23.1519C25.3201 26.4219 25.3201 29.6819 25.3101 32.9519C25.3101 33.4019 25.4301 33.5119 25.8701 33.5119C27.3801 33.4819 28.9001 33.5119 30.4101 33.5019C30.8401 33.5019 31.0001 33.6019 30.9901 34.0619C30.9601 35.1819 30.9601 36.3219 30.9901 37.4519C31.0001 37.8719 30.9001 38.0419 30.4401 38.0319C27.2701 38.0219 24.1001 38.0019 20.9401 38.0319C20.2901 38.0319 20.3301 37.7019 20.3301 37.2719V20.6519H20.3501Z" fill="white"/>
<path d="M80.1999 19.0616V33.2416C80.1999 33.6316 80.2099 34.0016 80.1699 34.3916C79.8999 36.5816 78.6599 37.7816 76.4399 37.9116C74.5999 38.0116 72.7499 38.0316 70.9099 37.9116C68.7499 37.7716 67.3699 36.4016 67.2599 34.2216C67.1699 32.3816 67.2299 30.5316 67.2199 28.6916C67.2199 28.3416 67.3199 28.2316 67.6699 28.2416C69.0099 28.2516 70.3499 28.2516 71.6999 28.2416C72.0899 28.2416 72.1899 28.3716 72.1799 28.7316C72.1699 29.9116 72.1699 31.0816 72.1799 32.2616C72.1799 33.2416 72.4399 33.4716 73.4199 33.4816C75.2199 33.4916 75.2499 33.4716 75.2499 31.6416C75.2499 22.5316 75.2599 13.4116 75.2399 4.30163C75.2399 3.58163 75.4399 3.42163 76.1199 3.45163C77.2699 3.51163 78.4299 3.49163 79.5799 3.45163C80.1099 3.44163 80.2599 3.58163 80.2599 4.13163C80.1999 9.09163 80.2199 14.0716 80.2199 19.0616H80.1999Z" fill="white"/>
<path d="M152.93 20.7615C152.93 15.2415 152.94 9.72149 152.92 4.22149C152.92 3.57149 153.09 3.40149 153.73 3.43149C154.9 3.49149 156.08 3.47149 157.25 3.43149C157.84 3.40149 157.94 3.60149 157.94 4.15149C157.93 13.6515 157.94 23.1415 157.91 32.6415C157.91 33.3615 158.11 33.5015 158.79 33.4815C160.17 33.4215 161.57 33.4815 162.95 33.4515C163.38 33.4415 163.54 33.5715 163.53 34.0115C163.5 35.1615 163.52 36.3215 163.53 37.4715C163.53 37.8315 163.43 37.9715 163.05 37.9715C159.84 37.9615 156.62 37.9615 153.41 37.9715C152.79 37.9715 152.95 37.5515 152.95 37.2415C152.94 31.7515 152.94 26.2615 152.94 20.7715L152.93 20.7615Z" fill="white"/>
<path d="M46.3301 7.30184C46.3301 6.18184 46.3401 5.05184 46.3301 3.93184C46.3301 3.57184 46.4201 3.41184 46.8101 3.43184C47.3901 3.46184 47.9601 3.44184 48.5401 3.43184C48.8901 3.42184 49.0701 3.47184 48.9901 3.91184C48.5401 6.23184 48.1301 8.56184 47.6801 10.8818C47.5501 11.5318 47.0301 11.1418 46.6901 11.2118C46.3201 11.2818 46.3401 10.9818 46.3401 10.7518V7.31184L46.3301 7.30184Z" fill="white"/>
<path d="M109.96 20.6318C109.96 15.1418 109.97 9.63184 109.95 4.14184C109.95 3.56184 110.07 3.38184 110.69 3.38184C113.4 3.42184 116.11 3.39184 118.82 3.42184C119.22 3.42184 119.64 3.46184 120.03 3.54184C121.73 3.87184 122.6 4.84184 122.81 6.55184C122.9 7.21184 122.93 7.89184 122.93 8.55184V17.7618C122.93 18.3418 122.89 18.9118 122.8 19.4718C122.6 20.6818 121.98 21.5718 120.8 21.9618C120.32 22.1218 120.3 22.3518 120.37 22.7518C121.15 26.4218 121.93 30.1018 122.72 33.7718C122.96 34.9418 123.21 36.1018 123.48 37.2718C123.58 37.7218 123.51 37.9218 122.97 37.9018C121.67 37.8718 120.38 37.8718 119.08 37.9018C118.63 37.9118 118.46 37.7718 118.37 37.3418C117.51 33.0018 116.61 28.6618 115.73 24.3318C115.63 23.8418 115.53 23.3518 115.43 22.8618C115.39 22.6618 115.29 22.5718 115.1 22.5718C114.84 22.5718 114.87 22.7618 114.87 22.9218V23.4218C114.87 28.0318 114.86 32.6318 114.88 37.2418C114.88 37.7718 114.76 37.9518 114.22 37.9218C113.02 37.8818 111.83 37.8818 110.62 37.9218C110.07 37.9318 109.94 37.7818 109.94 37.2418C109.98 31.6918 109.97 26.1418 109.97 20.6118L109.96 20.6318ZM114.89 13.0218V16.2518C114.89 17.5185 115.523 18.1318 116.79 18.0918C117.71 18.0618 117.97 17.8218 117.99 16.8718C118 15.6018 117.99 14.3318 117.99 13.0718C117.99 11.7318 118 10.3918 117.99 9.05184C117.98 8.17184 117.72 7.91184 116.89 7.90184C116.39 7.89184 115.88 7.93184 115.38 7.89184C114.95 7.86184 114.86 8.03184 114.88 8.42184C114.89 9.98184 114.89 11.5018 114.89 13.0318V13.0218Z" fill="white"/>
</svg>
