<svg width="257" height="31" viewBox="0 0 257 31" fill="none" xmlns="http://www.w3.org/2000/svg">
<path fill-rule="evenodd" clip-rule="evenodd" d="M154.501 1.03538L141.421 30.4194H145.945L149.289 22.8308H160.165L163.297 30.4194H167.793L155.658 1.03538H154.501ZM154.929 10.0027L158.634 18.8091H151.066L154.929 10.0027ZM246.704 1.03538L238.966 12.7108L231.363 1.03538H226.436L236.908 17.199V30.3515H241.071V17.199L251.495 1.03538H246.704ZM196.881 1.03538V5.19775H207.272V30.4055H211.432V5.19775H222.257V1.03538H196.881ZM118.338 1.03538V30.4055H137.027V26.3076H122.475V17.7736H132.826V13.6223H122.475V5.22825H137.027V1.03538H118.338ZM106.394 13.7776C107.741 13.4968 108.588 12.7968 109.701 11.6759C110.814 10.553 111.37 9.31229 111.37 7.95025C111.37 5.6282 110.5 3.84264 108.757 2.59359C107.015 1.3473 105.895 0.991023 101.382 0.991023C99.6549 0.991023 97.0403 0.991023 92.6666 0.983398V30.3536H102.101C105.436 30.3536 108.138 29.5835 110.207 28.0447C112.279 26.508 113.313 24.4479 113.313 21.8632C113.313 19.6291 112.733 17.8651 111.569 16.5675C110.407 15.2692 108.936 14.339 106.394 13.7776ZM100.751 12.2034H96.8047V4.46579C98.5882 4.46579 99.5322 4.47549 101.254 4.46579C105.057 4.44291 107.507 5.4057 107.507 8.12007C107.507 11.0791 104.936 12.0357 100.751 12.2034ZM109.146 21.2366C109.146 23.2931 108.061 24.5172 106.801 25.4592C105.538 26.4047 103.537 26.6722 100.796 26.6722H96.8047V15.9852H100.864C103.676 15.9852 105.49 16.119 106.885 17.0042C108.089 17.9136 109.146 19.3248 109.146 21.2366ZM28.4836 1.01667V30.3834H47.4482V26.212H32.621V17.4083H43.2463L43.229 13.2896H32.6065L32.621 5.13745H47.4482V1.01667H28.4836ZM0.75 1.03677V30.4055H4.8992V9.83701L19.9496 30.4055H22.8151V1.08044H18.6652V21.6511L3.55102 1.03677H0.75ZM84.041 0.997955L77.8068 20.6723L71.3009 0.997955H68.4028L62.161 20.716L56.2616 0.997955H51.6924L61.2925 30.3612H63.2098L69.83 10.2307L77.0818 30.3612H78.9762L88.3365 0.997955H84.041ZM180.822 26.2612C178.782 26.2612 177.349 25.5528 176.085 24.5325C174.768 23.4685 173.644 21.3509 173.644 18.893V1.04925H169.506V19.1564C169.506 22.2063 170.909 25.5001 173.145 27.4195C175.072 29.0747 177.883 30.4083 180.732 30.4083C184.223 30.4083 187.194 28.6345 188.481 27.2503C190.266 25.331 192.044 23.0443 192.044 18.6955V1.04925H187.908V18.701C187.908 21.2775 186.851 23.2384 185.614 24.3627C184.374 25.4856 182.89 26.2612 180.735 26.2612H180.822ZM254.566 3.67767V2.63656H255.122C255.451 2.63656 255.683 2.86253 255.683 3.16058C255.683 3.46141 255.451 3.67767 255.122 3.67767H254.566ZM256.104 3.16058C256.104 2.65944 255.683 2.26711 255.166 2.26711H254.154V5.24627H254.566V4.03118H255.016L255.696 5.24627H256.179L255.466 3.9785C255.833 3.86482 256.104 3.59588 256.104 3.16058Z" fill="white"/>
</svg>
