<svg width="130" height="62" viewBox="0 0 130 62" fill="none" xmlns="http://www.w3.org/2000/svg">
<path d="M38.6319 10.1529C40.9086 10.0692 42.63 8.98668 42.63 6.84945C42.63 4.79589 40.9643 3.82234 38.3277 3.82234H35.7721V10.2366L38.6319 10.1529ZM35.7721 19.0086H33.4143V1.65723C33.4143 1.65723 38.5761 1.65723 38.604 1.65723C42.7973 1.65723 44.9903 3.65502 44.9903 6.73536C44.9903 9.34922 43.4616 10.9566 41.0759 11.7349L45.7661 19.0086H42.9647L38.7434 12.1228L35.7721 12.318V19.0086Z" fill="white"/>
<path d="M54.0437 11.4642V11.2766C54.0437 9.45625 53.2122 8.252 51.3437 8.252C49.318 8.252 48.1264 9.9126 47.9464 11.5174L54.0437 11.4642ZM47.8425 13.2313C47.9185 15.6398 49.4752 17.3536 51.7569 17.3536C53.0043 17.3536 54.353 17.0037 55.3139 16.3344L55.7018 18.3702C54.6395 19.0395 53.2122 19.3869 51.7088 19.3869C48.1264 19.3869 45.6875 16.735 45.6875 12.9904C45.6875 9.02779 48.2304 6.3252 51.5516 6.3252C54.4316 6.3252 56.0922 8.19876 56.0922 11.1168C56.0922 11.7862 55.9883 12.5341 55.8311 13.0715C55.8083 13.0715 47.8425 13.1222 47.8425 13.1222V13.2313Z" fill="white"/>
<path d="M64.5019 12.8839C60.9728 13.3656 59.6773 14.1135 59.6773 15.6119C59.6773 16.7096 60.481 17.5133 61.7765 17.5133C62.8692 17.5133 63.83 16.953 64.5019 16.2026V12.8839ZM64.4765 17.673C63.5689 18.7708 62.4788 19.3869 61.2086 19.3869C58.9776 19.3869 57.4209 17.8607 57.4209 15.8806C57.4209 13.6851 58.9497 11.7583 64.5019 11.4921V11.1422C64.5019 9.16216 63.7515 8.35848 61.8297 8.35848C60.6103 8.35848 59.1068 8.94666 57.9888 9.72499L57.5755 7.74241C58.6125 6.9945 60.3517 6.3252 62.0402 6.3252C65.2549 6.3252 66.6848 7.74241 66.6315 11.089V16.2279C66.6315 17.2446 66.7608 17.4322 67.7977 17.4322L67.6684 19.2804C65.7467 19.4401 64.8923 18.7429 64.5805 17.673H64.4765Z" fill="white"/>
<path d="M89.1091 11.4642V11.2766C89.1091 9.45625 88.2775 8.252 86.409 8.252C84.3859 8.252 83.1943 9.9126 83.0118 11.5174L89.1091 11.4642ZM82.9103 13.2313C82.9864 15.6398 84.5431 17.3536 86.8248 17.3536C88.0696 17.3536 89.4184 17.0037 90.3792 16.3344L90.7697 18.3702C89.7074 19.0395 88.2775 19.3869 86.7741 19.3869C83.1943 19.3869 80.7554 16.735 80.7554 12.9904C80.7554 9.02779 83.2982 6.3252 86.6194 6.3252C89.497 6.3252 91.1576 8.19876 91.1576 11.1168C91.1576 11.7862 91.0562 12.5341 90.9015 13.0715C90.8736 13.0715 82.9103 13.1222 82.9103 13.1222V13.2313Z" fill="white"/>
<path d="M95.2168 18.9863H93.0872V6.67506L95.2168 6.3252V8.49538C96.0458 7.12887 97.0346 6.3252 98.5405 6.3252C99.3391 6.3252 100.145 6.54069 100.772 6.94126L100.224 9.00244C99.5724 8.59933 98.9259 8.43961 98.3276 8.43961C97.1892 8.43961 96.0991 9.29906 95.2168 10.9825V18.9863Z" fill="white"/>
<path d="M105.778 19.4122C104.326 19.4122 102.716 18.9559 101.628 18.2612L102.171 16.2533C103.159 16.9505 104.612 17.4043 105.832 17.4043C107.18 17.4043 108.195 16.7629 108.195 15.6651C108.195 14.433 106.79 14.0324 105.388 13.6318C103.702 13.1501 101.861 12.2932 101.861 10.0444C101.861 7.7703 103.73 6.3252 106.116 6.3252C107.49 6.3252 108.869 6.67253 109.957 7.23536L109.411 9.24075C108.428 8.67792 107 8.33059 106.012 8.33059C104.744 8.33059 103.91 8.86807 103.91 9.85682C103.91 11.0332 105.185 11.4363 106.658 11.8394C108.4 12.3211 110.268 13.1755 110.268 15.5054C110.268 17.8328 108.375 19.4122 105.778 19.4122Z" fill="white"/>
<path d="M52.7736 36.479C56.1353 36.479 58.2624 34.0705 58.2624 30.4882C58.2624 27.1264 56.3027 24.7204 52.3832 24.7204C49.0214 24.7204 46.7828 27.1847 46.7828 30.767C46.7828 34.1846 49.0772 36.479 52.7736 36.479ZM44.5974 52.8898C44.5974 55.6329 47.845 57.651 52.7203 57.651C57.5348 57.651 61.3428 55.5772 61.3428 52.441C61.3428 49.6421 58.8227 48.9703 53.6711 48.9703C52.046 48.9703 50.142 48.8562 49.0214 48.7446C46.4456 49.4722 44.5974 50.9833 44.5974 52.8898ZM42.1889 43.593C42.1889 41.4633 43.8697 39.5061 46.4456 38.6061C43.7582 37.0393 42.1889 34.2404 42.1889 30.7113C42.1889 25.6712 45.941 21.0215 52.6063 21.0215C55.352 21.0215 57.5906 21.7491 59.2132 22.4793L65.8251 21.8607L65.9925 26.3988L61.0639 25.5038C62.0704 26.4546 62.8006 28.8631 62.8006 30.767C62.8006 35.9187 58.5413 40.1754 52.5505 40.1754C51.2626 40.1754 50.4766 40.0081 48.9656 39.5593C47.9033 39.9523 46.4456 40.9588 46.4456 42.2467C46.4456 43.7603 47.4546 44.6552 52.2691 44.6552C52.2691 44.6552 55.1821 44.6552 54.6218 44.6552C62.296 44.6552 65.8251 47.008 65.8251 51.5461C65.8251 57.1997 59.7177 61.4032 51.9902 61.4032C45.2134 61.4032 40.0618 58.4902 40.0618 53.8937C40.0618 50.9832 42.0215 48.5748 45.5506 47.9029C43.3652 46.9522 42.1889 45.3828 42.1889 43.593Z" fill="white"/>
<path d="M84.7435 31.7765V31.3835C84.7435 27.5755 82.9536 25.0555 78.9175 25.0555C74.5492 25.0555 71.9734 28.5288 71.583 31.8906L84.7435 31.7765ZM71.3599 35.4754C71.5272 40.513 74.8864 44.0979 79.815 44.0979C82.5024 44.0979 85.4179 43.3702 87.4892 41.9708L88.3284 46.225C86.034 47.6244 82.9536 48.3546 79.7034 48.3546C71.9734 48.3546 66.7102 42.8074 66.7102 34.9684C66.7102 26.6806 72.1991 21.0244 79.3688 21.0244C85.5827 21.0244 89.1651 24.9439 89.1651 31.0489C89.1651 32.4483 88.9445 34.0176 88.6098 35.1357C88.554 35.1357 71.3599 35.2498 71.3599 35.2498V35.4754Z" fill="white"/>
<path d="M101.038 48.4104C97.899 48.4104 94.4257 47.4571 92.073 46.0019L93.2519 41.8009C95.379 43.2587 98.5151 44.2094 101.147 44.2094C104.06 44.2094 106.243 42.8632 106.243 40.5688C106.243 37.9929 103.218 37.1538 100.196 36.3121C96.5553 35.3056 92.5801 33.5131 92.5801 28.8077C92.5801 24.049 96.6111 21.0244 101.765 21.0244C104.732 21.0244 107.698 21.752 110.056 22.9284L108.877 27.1293C106.747 25.953 103.667 25.2228 101.54 25.2228C98.7965 25.2228 97.0041 26.3459 97.0041 28.4172C97.0041 30.8815 99.7472 31.7182 102.939 32.5624C106.691 33.5689 110.725 35.3613 110.725 40.2341C110.725 45.1044 106.636 48.4104 101.038 48.4104Z" fill="white"/>
<path d="M123.513 48.3546C118.528 48.3546 115.833 45.9461 115.844 40.3457L115.836 26.0088L111.569 25.7299L111.658 22.8169L115.877 21.529L115.836 15.9844H120.257L120.252 21.8637H128.261L128.208 26.0088H120.199L120.212 40.5156C120.227 42.9241 121.381 44.1537 123.675 44.1537C125.247 44.1537 126.801 43.7633 128.299 43.203C128.355 43.203 129.25 47.234 129.25 47.234C127.366 47.9617 125.417 48.3546 123.513 48.3546Z" fill="white"/>
<path d="M101.646 6.91874V0H106.22L101.646 6.91874Z" fill="white"/>
<path d="M77.0262 16.1737C76.2225 16.8988 75.2617 17.3526 74.1461 17.3526C71.9405 17.3526 70.6171 15.5602 70.6171 12.855C70.6171 10.3401 71.9684 8.30677 74.3819 8.30677C75.4189 8.30677 76.3239 8.60086 77.0262 9.18904C77.0262 9.18904 77.0262 16.3081 77.0262 16.1737ZM77.0262 6.7273C76.2758 6.48645 75.3124 6.32419 74.458 6.32419C70.9035 6.32419 68.4114 9.18904 68.4114 12.9083C68.4114 16.6047 70.3559 19.3859 73.7025 19.3859C75.107 19.3859 76.1718 18.6912 77.0262 17.8622C77.0262 17.9966 77.0262 18.9853 77.0262 18.9853H79.1558V0.046875H77.0262V6.7273Z" fill="white"/>
<path d="M33.4956 21.8633V47.5151H38.088V21.8633H33.4956Z" fill="white"/>
<path d="M11.279 43.0885H8.4927L5.51376 47.2108L5.51123 16.9347H11.0559C19.9039 16.9347 25.0556 21.4728 25.0556 30.0978C25.0556 38.6644 19.625 43.0885 11.279 43.0885ZM11.279 12.5132C8.48002 12.5132 0.75 12.5132 0.75 12.5132V47.5151C0.75 47.5151 8.25692 47.5151 11.0559 47.5151C23.0958 47.5151 29.8168 40.5684 29.8168 29.7606C29.8168 19.3432 22.8727 12.5132 11.279 12.5132Z" fill="white"/>
</svg>
