<svg width="172" height="31" viewBox="0 0 172 31" fill="none" xmlns="http://www.w3.org/2000/svg">
<path d="M20.7275 7.60481C20.7275 5.24147 19.0546 3.75016 16.8501 3.75016C16.3354 3.75016 15.0256 3.76642 14.569 3.81518L13.0401 12.9589C13.3189 12.9833 13.7999 12.9589 14.0543 12.9589C17.6857 12.9589 20.7275 10.6768 20.7275 7.60481ZM47.8415 1.95735L44.7922 19.9107C44.6658 20.6438 44.6574 20.9372 46.1021 20.9372L45.7382 23.2355H43.2296C44.6069 23.8475 45.9496 24.8007 45.9496 26.0556C45.9496 28.4595 43.5 30.3743 37.0803 30.3743C25.1954 30.3743 17.3488 24.5236 14.6532 15.7294H12.5498L11.6376 21.2639C11.4682 22.3228 11.4851 22.6658 13.4369 22.7877L14.7804 22.8771L14.2312 25.5826C12.2879 25.468 10.1424 25.3696 8.00529 25.3786C6.06279 25.3786 4.01837 25.4761 2.09273 25.5826L2.54929 22.8771C3.05639 22.8527 3.40261 22.8527 3.73197 22.8194C4.03691 22.795 4.33763 22.7349 4.6274 22.6406C5.1682 22.4772 5.60707 22.1432 5.72501 21.467L8.62274 4.60594C7.79712 4.74613 6.98788 4.96473 6.20684 5.25854C5.56496 5.50235 4.86327 6.06474 4.86327 6.52147C4.86327 6.71734 4.90623 6.86362 4.99046 6.99447C5.09997 7.15701 5.23559 7.30411 5.23559 7.52354C5.23559 7.67795 5.1682 7.76816 5.08397 7.87462C4.66194 8.36387 3.71512 8.75396 2.82811 8.75396C2.55525 8.75407 2.28504 8.70231 2.03292 8.60164C1.78079 8.50097 1.5517 8.35337 1.35872 8.16726C1.16573 7.98115 1.01265 7.76018 0.908203 7.51697C0.803758 7.27377 0.75 7.0131 0.75 6.74984L0.75 6.72546C0.75 3.57137 4.83884 2.30762 7.45691 1.81106C10.4004 1.29173 13.3845 1.01631 16.3767 0.987793C22.4165 0.987793 26.8001 2.80499 26.8001 7.40163C26.8001 11.1831 23.8274 13.6277 20.6424 14.6704C23.0668 21.9652 28.9877 27.4412 36.5901 27.4412C39.4794 27.4412 40.4928 26.2514 40.4928 25.086C40.5084 24.6109 40.3279 24.1492 39.9908 23.8025C39.6537 23.4557 39.1876 23.2524 38.6952 23.2371L38.6092 23.2363H37.4097L37.8663 20.938C38.7112 20.938 39.6403 20.8648 39.7835 20.0261L41.9543 7.07574C41.988 6.84818 41.8953 6.75066 41.6502 6.75066H39.631L40.0286 4.69696L47.5973 1.72247L47.8424 1.9671L47.8415 1.95735ZM157.229 20.9364L156.774 23.2347H148.631L149.028 20.9364C150.278 20.9364 150.456 20.8307 150.617 19.7961L151.503 14.1405C151.656 13.171 151.047 12.8443 150.465 12.8443C149.282 12.8443 148.059 14.0341 147.846 15.4035L147.112 19.9912C147.002 20.6438 147.112 20.9364 148.514 20.9364L148.143 23.2347H139.882L140.304 20.9364C141.798 20.9364 142.052 20.7251 142.196 19.8449L143.175 14.0178C143.243 13.6099 143.175 13.5538 142.838 13.5538H141.038L141.41 11.5488L148.784 8.49228L149.004 8.69626L148.667 10.4891C150.018 9.33179 151.513 8.51666 153.211 8.51666C155.331 8.51666 156.751 10.4395 156.751 12.494C156.751 12.9751 156.708 13.3652 156.598 14.0503L155.619 19.788C155.449 20.7494 155.627 20.9282 157.24 20.9282L157.229 20.9364ZM127.378 9.20176L125.976 12.0787C125.441 11.8703 124.871 11.7598 124.295 11.7528H122.623L121.491 18.4357C121.288 19.6344 121.524 19.8457 122.167 19.8457C122.859 19.8457 123.569 19.5028 124.845 18.3788L125.943 20.4642C124.431 22.0124 122.505 23.6426 120.056 23.6426C117.454 23.6426 116.305 22.2082 116.305 19.9343C116.305 19.4532 116.391 18.8006 116.458 18.3455L117.556 11.752L115.639 11.7845L116.095 9.25865L117.92 9.28303L118.351 6.61006L123.386 4.63763L123.723 4.96353L123.013 9.22533L127.38 9.19282V9.20176H127.378ZM117.343 1.98985C116.698 4.14668 116.179 6.33685 115.788 8.54998H112.858C113.128 7.61293 113.212 7.02616 113.221 6.51254C113.247 5.28942 111.802 4.51573 109.658 4.51573C107.462 4.51573 105.992 5.59987 105.966 6.96033C105.941 8.24846 106.447 8.78647 108.137 9.93482L111.059 11.9316C113.779 13.7895 115.418 15.5262 115.366 18.5243C115.275 23.5037 110.898 26.0222 105.298 26.0222C103.989 26.0222 102.899 25.8191 102.004 25.6151C101.244 25.4355 100.51 25.2071 99.7152 25.2071C99.1183 25.2197 98.5333 25.3705 98.0094 25.6468L97.5537 25.403C97.1836 22.988 96.7327 20.5852 96.2017 18.1984L99.2595 17.4897C100.062 21.1403 101.819 22.8194 105.629 22.8194C108.13 22.8194 109.473 21.6467 109.507 19.7636C109.541 17.9546 108.569 17.2052 106.794 16.0805C106.013 15.6025 105.239 15.1135 104.472 14.6135C103.731 14.1484 103.038 13.6161 102.402 13.0239C101.735 12.3664 101.216 11.5819 100.88 10.7203C100.544 9.85879 100.398 8.93915 100.451 8.0201C100.519 4.10856 104.151 1.33725 109.076 1.33725C111.136 1.33725 112.742 1.83463 114.6 1.93215C115.216 1.95653 116.256 1.82569 116.915 1.66315L117.337 1.98904H117.343V1.98985ZM64.6425 4.36944C64.6425 6.21915 62.5644 7.84049 60.402 7.84049C59.3036 7.84049 58.0283 7.39269 58.0283 5.90138C58.0283 3.68434 60.3599 2.19303 62.294 2.19303C63.5702 2.19384 64.6425 3.01711 64.6425 4.36944ZM64.1531 8.69708L62.2948 19.584C62.0842 20.8071 62.0581 20.9364 63.8827 20.9364L63.5112 23.2347H55.005L55.3681 20.9364C56.7706 20.9364 57.1758 20.6113 57.2946 19.8774L58.2405 13.9284C58.2911 13.5863 58.2995 13.5538 57.9364 13.5538H55.9855L56.3494 11.5488L63.9433 8.49228L64.1531 8.69708ZM56.5929 1.86795L53.6025 19.4946C53.3826 20.8071 53.5267 20.9364 54.8862 20.9364L54.5148 23.2265H46.22L46.5915 20.9364C48.0446 20.9364 48.4076 20.6682 48.5685 19.6734L50.6466 7.22121C50.714 6.81405 50.6635 6.75716 50.3425 6.75716H48.416L48.7875 4.71972L56.3814 1.67127L56.5929 1.87526V1.86795ZM166.901 12.9914C166.858 11.6878 166.31 11.3132 165.524 11.3132C164.629 11.3132 163.354 12.3729 162.872 14.7354L166.901 12.9914ZM171.75 13.7001L162.476 17.8156C162.669 19.3475 163.556 20.374 165.009 20.374C166.53 20.374 167.054 19.5507 167.054 19.1679C167.055 19.0016 167.001 18.8393 166.901 18.7039C166.783 18.5413 166.69 18.4438 166.69 18.2317C166.681 18.102 166.723 17.9739 166.809 17.8733C167.075 17.6003 167.397 17.384 167.755 17.238C168.113 17.0921 168.498 17.0197 168.887 17.0256C169.968 17.0256 170.931 17.8083 170.931 18.9981C170.931 21.5816 168.304 23.676 164.191 23.676C160.136 23.676 157.239 21.3045 157.239 16.8143C157.239 12.7972 160.955 8.46139 165.592 8.46139C169.478 8.46058 171.168 10.3428 171.75 13.7001ZM135.512 13.6676C135.512 12.0462 134.964 11.3132 133.967 11.3132C132.514 11.3132 130.942 14.2795 130.942 18.4926C130.942 20.1058 131.509 20.8153 132.497 20.8153C134.034 20.8153 135.521 17.3922 135.521 13.6676M140.791 14.8492C140.791 19.2671 137.498 23.7004 132.261 23.7004C128.274 23.7004 125.731 21.4589 125.731 16.9931C125.731 12.4379 129.296 8.40369 134.212 8.40369C138.038 8.40369 140.8 10.7345 140.8 14.8419M89.4678 25.5013C89.4678 25.1673 89.1469 24.9397 88.4031 24.9397C87.5506 24.9397 86.6889 25.0535 85.8103 25.0535C84.4737 25.1022 83.1444 24.8422 81.9329 24.2952C81.3415 24.7439 80.9869 25.2575 80.9869 25.9987C80.9869 26.9528 82.2791 27.7346 83.7069 27.7346C87.4841 27.7338 89.4678 26.4058 89.4678 25.5013ZM90.322 12.6403C90.322 11.826 89.9918 11.1084 89.3078 11.1084C87.7536 11.1084 87.0856 13.8878 87.0856 15.5498C87.0856 16.7071 87.3392 17.1963 88.1588 17.1963C89.5268 17.1963 90.3212 14.1649 90.3212 12.6322M99.8416 10.229C99.8416 11.1661 98.9798 12.3152 98.1518 12.3152C97.8814 12.3152 97.7879 12.1283 97.6447 11.9316C97.5529 11.8088 97.4227 11.7176 97.2732 11.6716C97.1569 11.629 97.0337 11.6067 96.9093 11.6057C96.0223 11.6057 95.3888 12.5753 95.3888 13.4319L95.4141 14.0186C95.4001 14.9465 95.1259 15.8533 94.6206 16.6429C93.9564 17.6477 93.0414 18.4757 91.9596 19.051C90.8778 19.6263 89.6636 19.9306 88.4284 19.9359C87.4886 19.9675 86.5505 19.8377 85.6578 19.5523C85.5045 19.7134 85.4147 19.9214 85.4043 20.1399C85.4043 20.7421 85.9029 20.873 86.6628 20.873C88.243 20.873 89.6532 20.6446 91.1138 20.6446C93.6148 20.6446 95.4132 21.8344 95.4132 24.0588C95.4132 28.0109 89.1621 30.4157 83.3346 30.4157C79.8716 30.4157 76.535 29.4535 76.535 26.6179C76.535 25.216 77.3799 24.1246 79.2803 23.2355H72.3872L72.7848 20.9372C74.1705 20.9047 74.3053 20.8079 74.4316 19.9603L75.3439 14.0845C75.4627 13.3587 74.9556 12.8459 74.3137 12.8459C73.1142 12.8459 71.8894 14.1495 71.7201 15.2011L70.9265 20.0586C70.8246 20.6608 70.9602 20.938 72.2693 20.938L71.8978 23.2363H64.0006L64.3974 20.938C65.7662 20.938 65.8075 20.7429 65.9178 20.0586L66.9321 13.9951C66.9994 13.5879 66.9321 13.5554 66.628 13.5554H64.6686L65.0654 11.518L72.634 8.4939L72.8455 8.69789L72.5414 10.4663C74.0618 9.19526 75.616 8.4939 76.9933 8.4939C79.4092 8.4939 80.591 10.6703 80.591 12.6663C80.591 12.8865 80.532 13.4327 80.5068 13.6448L79.4681 19.9115C79.3418 20.6698 79.8901 20.8892 80.6508 20.938C81.0307 19.545 82.1039 18.8201 83.3708 18.3227C82.8927 17.8495 82.5189 17.2878 82.2721 16.6714C82.0252 16.0549 81.9104 15.3967 81.9346 14.7363C81.9346 10.7678 85.6427 8.34761 89.4097 8.34761C91.1248 8.34761 93.2534 8.90188 94.4361 10.637C95.2903 9.19526 96.5142 8.34761 97.7887 8.34761C98.9293 8.34761 99.8331 9.04816 99.8331 10.2225M34.234 13.6676C34.234 12.0462 33.6763 11.3132 32.6798 11.3132C31.2267 11.3132 29.6642 14.2795 29.6642 18.4926C29.6642 20.1058 30.2302 20.8234 31.2183 20.8234C32.7556 20.8234 34.234 17.4003 34.234 13.6676ZM39.5131 14.8492C39.5131 19.2671 36.2186 23.7004 30.9732 23.7004C26.9947 23.7004 24.444 21.4589 24.444 16.9931C24.444 12.4379 28.0089 8.40369 32.925 8.40369C36.7602 8.40369 39.5139 10.7345 39.5139 14.8419" fill="white"/>
</svg>
