<svg width="116" height="18" viewBox="0 0 116 18" fill="none" xmlns="http://www.w3.org/2000/svg">
<path d="M12.9317 5.90112L19.5 6.81945L14.7728 11.447L15.9261 17.9433L10.0399 14.9011L4.18216 18L5.27281 11.4923L0.5 6.91015L7.05882 5.92945L9.96582 0L12.9317 5.90112Z" fill="#FFC225"/>
<path d="M36.9317 5.90112L43.5 6.81945L38.7728 11.447L39.9261 17.9433L34.0399 14.9011L28.1822 18L29.2728 11.4923L24.5 6.91015L31.0588 5.92945L33.9658 0L36.9317 5.90112Z" fill="#FFC225"/>
<path d="M60.9317 5.90112L67.5 6.81945L62.7728 11.447L63.9261 17.9433L58.0399 14.9011L52.1822 18L53.2728 11.4923L48.5 6.91015L55.0588 5.92945L57.9658 0L60.9317 5.90112Z" fill="#FFC225"/>
<path d="M84.9317 5.90112L91.5 6.81945L86.7728 11.447L87.9261 17.9433L82.0399 14.9011L76.1822 18L77.2728 11.4923L72.5 6.91015L79.0588 5.92945L81.9658 0L84.9317 5.90112Z" fill="#FFC225"/>
<path d="M108.932 5.90112L115.5 6.81945L110.773 11.447L111.926 17.9433L106.04 14.9011L100.182 18L101.273 11.4923L96.5 6.91015L103.059 5.92945L105.966 0L108.932 5.90112Z" fill="#FFC225"/>
</svg>
