<?xml version="1.0" encoding="UTF-8"?>
<svg id="Layer_1" xmlns="http://www.w3.org/2000/svg" version="1.1" viewBox="0 0 33 33">
  <!-- Generator: Adobe Illustrator 29.3.1, SVG Export Plug-In . SVG Version: 2.1.0 Build 151)  -->
  <defs>
    <style>
      .st0 {
        fill: #ce350f;
      }
    </style>
  </defs>
  <path class="st0" d="M15.5,2.9c.3-.9,1.6-.9,1.9,0l2.5,7.8c.1.4.5.7,1,.7h8.2c1,0,1.4,1.2.6,1.8l-6.6,4.8c-.4.3-.5.7-.4,1.1l2.5,7.8c.3.9-.8,1.7-1.5,1.1l-6.6-4.8c-.4-.3-.8-.3-1.2,0l-6.6,4.8c-.8.6-1.8-.2-1.5-1.1l2.5-7.8c.1-.4,0-.9-.4-1.1l-6.6-4.8c-.8-.6-.4-1.8.6-1.8h8.2c.4,0,.8-.3,1-.7l2.5-7.8Z"/>
</svg>